<svg width="1478" height="1478" viewBox="0 0 1478 1478" fill="none" xmlns="http://www.w3.org/2000/svg">
<g clip-path="url(#clip0_4202_13921)">
<rect width="1477.02" height="1477.02" transform="translate(0 0.97702)" fill="#F6FCFF"/>
<g filter="url(#filter0_d_4202_13921)">
<g clip-path="url(#clip1_4202_13921)">
<rect x="141.95" y="162.351" width="627.834" height="2035.23" rx="45.518" fill="white" shape-rendering="crispEdges"/>
<rect x="186.421" y="1312.51" width="540.661" height="353.215" rx="23.5438" fill="white"/>
<circle cx="230.021" cy="1388.75" r="6.10394" fill="#71A1FE"/>
<path d="M264.402 1377.59C266.111 1377.59 267.429 1375.95 267.429 1373.51C267.429 1371.09 266.379 1369.56 264.206 1369.56C263.083 1369.56 261.716 1370.19 260.544 1371.85C260.813 1375.56 262.155 1377.59 264.402 1377.59ZM269.212 1362.6L267.991 1363.99C267.283 1363.13 266.208 1362.62 265.11 1362.62C262.668 1362.62 260.593 1364.5 260.495 1370.07C261.594 1368.73 263.157 1367.9 264.573 1367.9C267.6 1367.9 269.529 1369.78 269.529 1373.51C269.529 1376.98 267.185 1379.32 264.402 1379.32C260.959 1379.32 258.42 1376.37 258.42 1370.46C258.42 1363.45 261.57 1360.77 265.037 1360.77C266.892 1360.77 268.235 1361.55 269.212 1362.6ZM283.463 1369.34H287.809V1358.93H289.811V1371.8H287.809V1370.65H283.463V1369.34ZM278.897 1360.74C276.773 1360.74 275.381 1361.47 275.381 1362.65C275.381 1363.77 276.773 1364.53 278.897 1364.53C281.046 1364.53 282.413 1363.77 282.413 1362.65C282.413 1361.47 281.046 1360.74 278.897 1360.74ZM278.897 1365.89C275.65 1365.89 273.501 1364.65 273.501 1362.65C273.501 1360.6 275.65 1359.35 278.897 1359.35C282.144 1359.35 284.293 1360.6 284.293 1362.65C284.293 1364.65 282.144 1365.89 278.897 1365.89ZM277.774 1371.88V1368.6C275.747 1368.65 273.819 1368.68 272.061 1368.68L271.816 1367.16C276.04 1367.16 281.387 1367.14 286.075 1366.6L286.197 1367.92C284.073 1368.21 281.9 1368.38 279.776 1368.51V1371.88H277.774ZM277.164 1379.1H290.568V1380.57H275.186V1375.81H287.858V1374.05H275.137V1372.61H289.811V1377.17H277.164V1379.1ZM300.665 1379V1377.15H304.645V1363.79H301.471V1362.38C303.058 1362.08 304.205 1361.67 305.182 1361.11H306.891V1377.15H310.48V1379H300.665ZM318.505 1379.32C315.698 1379.32 313.94 1378.15 312.768 1376.88L313.891 1375.42C314.941 1376.51 316.308 1377.47 318.334 1377.47C320.459 1377.47 321.972 1376.2 321.972 1374.15C321.972 1372 320.532 1370.56 316.406 1370.56V1368.85C320.092 1368.85 321.362 1367.36 321.362 1365.43C321.362 1363.7 320.19 1362.6 318.334 1362.55C316.894 1362.6 315.624 1363.33 314.623 1364.33L313.427 1362.91C314.77 1361.67 316.357 1360.77 318.432 1360.77C321.435 1360.77 323.633 1362.38 323.633 1365.26C323.633 1367.43 322.339 1368.87 320.434 1369.58V1369.68C322.558 1370.17 324.243 1371.78 324.243 1374.22C324.243 1377.42 321.679 1379.32 318.505 1379.32ZM344.867 1358.91V1370.14H342.865V1358.91H344.867ZM329.338 1364.57C329.338 1366.45 330.925 1367.8 333.05 1367.8C335.198 1367.8 336.761 1366.45 336.761 1364.57C336.761 1362.67 335.198 1361.33 333.05 1361.33C330.925 1361.33 329.338 1362.67 329.338 1364.57ZM338.714 1364.57C338.714 1367.46 336.321 1369.41 333.05 1369.41C329.778 1369.41 327.41 1367.46 327.41 1364.57C327.41 1361.67 329.778 1359.69 333.05 1359.69C336.321 1359.69 338.714 1361.67 338.714 1364.57ZM332.708 1378.93H345.599V1380.52H330.73V1375.02H342.889V1372.8H330.681V1371.22H344.867V1376.51H332.708V1378.93Z" fill="black"/>
<path d="M264.768 1414.76C266.77 1414.76 268.211 1413.34 268.211 1411.39C268.211 1409.41 266.77 1407.99 264.768 1407.99C262.79 1407.99 261.35 1409.41 261.35 1411.39C261.35 1413.34 262.79 1414.76 264.768 1414.76ZM264.768 1406.33C267.893 1406.33 270.115 1408.43 270.115 1411.39C270.115 1414.37 267.893 1416.42 264.768 1416.42C261.692 1416.42 259.47 1414.37 259.47 1411.39C259.47 1408.43 261.692 1406.33 264.768 1406.33ZM265.745 1399.67V1402.91H271.14V1404.53H258.225V1402.91H263.743V1399.67H265.745ZM278.807 1408.41V1410.09H275.218V1421.3H273.216V1399.42H275.218V1408.41H278.807ZM296.238 1404.45V1401.86H283.151V1400.28H298.265V1405.99H285.226V1408.8H298.753V1410.43H283.224V1404.45H296.238ZM300.657 1412.68V1414.32H291.697V1421.32H289.695V1414.32H280.783V1412.68H300.657ZM312.302 1409.95V1402.91H306.247V1409.95H312.302ZM319.285 1404.89H314.255V1407.94H319.285V1404.89ZM314.255 1409.58V1411.53H304.269V1401.33H314.255V1403.26H319.285V1399.42H321.311V1415.39H319.285V1409.58H314.255ZM309.225 1419.18H321.824V1420.81H307.223V1413.97H309.225V1419.18ZM335.657 1417.08V1419.47H348.792V1421.01H333.655V1411.78H348.621V1413.29H335.657V1415.59H348.084V1417.08H335.657ZM347.865 1407.85H351.063V1409.46H331.164V1407.85H337.244C337.952 1405.18 338.123 1403.18 338.172 1401.86H333.02V1400.25H340.125V1400.86C340.125 1402.01 340.125 1404.48 339.27 1407.85H345.862C346.522 1405.18 346.619 1403.23 346.644 1401.86H341.614V1400.25H348.597V1401.18C348.597 1402.52 348.597 1404.77 347.865 1407.85ZM356.506 1401.52V1414.07C359.655 1414.07 362.903 1413.8 366.443 1413.1L366.687 1414.76C362.952 1415.51 359.607 1415.76 356.262 1415.76H354.528V1401.52H356.506ZM374.012 1408.14V1409.8H370.496V1421.3H368.494V1399.4H370.496V1408.14H374.012ZM393.665 1405.99V1407.63H378.771V1400.2H380.773V1405.99H393.665ZM380.627 1414.37V1419.13H393.787V1420.76H378.625V1414.37H380.627ZM376.085 1410.56H395.935V1412.17H376.085V1410.56ZM422.001 1399.4V1410.63H419.999V1399.4H422.001ZM406.472 1405.06C406.472 1406.94 408.059 1408.29 410.183 1408.29C412.332 1408.29 413.895 1406.94 413.895 1405.06C413.895 1403.16 412.332 1401.82 410.183 1401.82C408.059 1401.82 406.472 1403.16 406.472 1405.06ZM415.848 1405.06C415.848 1407.94 413.455 1409.9 410.183 1409.9C406.912 1409.9 404.543 1407.94 404.543 1405.06C404.543 1402.16 406.912 1400.18 410.183 1400.18C413.455 1400.18 415.848 1402.16 415.848 1405.06ZM409.842 1419.42H422.733V1421.01H407.864V1415.51H420.023V1413.29H407.815V1411.7H422.001V1417H409.842V1419.42ZM438.186 1405.09H442.508V1399.42H444.534V1412.46H442.508V1406.72H438.186V1405.09ZM439.407 1410.07L438.406 1411.63C435.965 1410.75 434.085 1408.94 433.132 1406.7C432.205 1409.24 430.178 1411.29 427.614 1412.27L426.564 1410.68C429.836 1409.48 432.082 1406.53 432.082 1403.38V1402.62H427.199V1401.01H438.894V1402.62H434.085V1403.38C434.085 1406.19 436.233 1408.94 439.407 1410.07ZM437.307 1419.74C440.604 1419.74 442.606 1418.81 442.606 1417.22C442.606 1415.63 440.604 1414.68 437.307 1414.68C434.011 1414.68 432.009 1415.63 432.009 1417.22C432.009 1418.81 434.011 1419.74 437.307 1419.74ZM437.307 1413.14C441.8 1413.14 444.583 1414.63 444.583 1417.22C444.583 1419.81 441.8 1421.3 437.307 1421.3C432.815 1421.3 430.007 1419.81 430.007 1417.22C430.007 1414.63 432.815 1413.14 437.307 1413.14Z" fill="black"/>
<path d="M275.308 1458.68V1468.31H273.592V1458.68H275.308ZM261.998 1463.54C261.998 1465.15 263.359 1466.3 265.179 1466.3C267.021 1466.3 268.36 1465.15 268.36 1463.54C268.36 1461.91 267.021 1460.76 265.179 1460.76C263.359 1460.76 261.998 1461.91 261.998 1463.54ZM270.035 1463.54C270.035 1466.01 267.984 1467.68 265.179 1467.68C262.375 1467.68 260.345 1466.01 260.345 1463.54C260.345 1461.05 262.375 1459.35 265.179 1459.35C267.984 1459.35 270.035 1461.05 270.035 1463.54ZM264.886 1475.85H275.936V1477.21H263.191V1472.5H273.613V1470.59H263.149V1469.23H275.308V1473.77H264.886V1475.85ZM289.182 1463.56H292.886V1458.71H294.623V1469.88H292.886V1464.96H289.182V1463.56ZM290.228 1467.83L289.37 1469.17C287.277 1468.42 285.666 1466.87 284.85 1464.94C284.055 1467.12 282.318 1468.88 280.12 1469.71L279.22 1468.35C282.025 1467.33 283.95 1464.8 283.95 1462.1V1461.45H279.764V1460.07H289.789V1461.45H285.666V1462.1C285.666 1464.5 287.508 1466.87 290.228 1467.83ZM288.428 1476.12C291.254 1476.12 292.97 1475.32 292.97 1473.96C292.97 1472.6 291.254 1471.79 288.428 1471.79C285.603 1471.79 283.887 1472.6 283.887 1473.96C283.887 1475.32 285.603 1476.12 288.428 1476.12ZM288.428 1470.47C292.279 1470.47 294.665 1471.74 294.665 1473.96C294.665 1476.18 292.279 1477.46 288.428 1477.46C284.578 1477.46 282.171 1476.18 282.171 1473.96C282.171 1471.74 284.578 1470.47 288.428 1470.47ZM312.054 1458.68H313.77V1477.5H312.054V1458.68ZM303.872 1460.13C306.655 1460.13 308.643 1462.68 308.643 1466.68C308.643 1470.68 306.655 1473.23 303.872 1473.23C301.088 1473.23 299.1 1470.68 299.1 1466.68C299.1 1462.68 301.088 1460.13 303.872 1460.13ZM303.872 1461.68C302.03 1461.68 300.732 1463.64 300.732 1466.68C300.732 1469.73 302.03 1471.7 303.872 1471.7C305.692 1471.7 306.99 1469.73 306.99 1466.68C306.99 1463.64 305.692 1461.68 303.872 1461.68ZM337.744 1458.71V1469.42H336.028V1458.71H337.744ZM327.657 1461.22C325.795 1461.22 324.455 1462.45 324.455 1464.17C324.455 1465.9 325.795 1467.12 327.657 1467.12C329.52 1467.12 330.901 1465.9 330.901 1464.17C330.901 1462.45 329.52 1461.22 327.657 1461.22ZM327.657 1468.54C324.832 1468.54 322.781 1466.76 322.781 1464.17C322.781 1461.57 324.832 1459.79 327.657 1459.79C330.503 1459.79 332.575 1461.57 332.575 1464.17C332.575 1466.76 330.503 1468.54 327.657 1468.54ZM335.652 1470.24V1471.24C335.652 1473.19 337.033 1475.11 339.419 1475.91L338.561 1477.21C336.719 1476.54 335.421 1475.24 334.794 1473.67C334.208 1475.2 333.057 1476.62 331.32 1477.37C329.52 1476.66 328.39 1475.3 327.825 1473.73C327.155 1475.24 325.878 1476.54 324.12 1477.21L323.262 1475.91C325.627 1475.07 327.029 1473.04 327.029 1471.24V1470.24H328.683V1471.24C328.683 1472.89 329.541 1474.67 331.278 1475.7C333.077 1474.59 333.977 1472.71 333.977 1471.24V1470.24H335.652ZM356.641 1464.34V1465.74H343.875V1459.38H345.591V1464.34H356.641ZM345.465 1471.51V1475.59H356.745V1477H343.749V1471.51H345.465ZM341.573 1468.25H358.587V1469.63H341.573V1468.25ZM366.635 1460.71H375.424C375.424 1466.13 372.934 1470.91 366.698 1473.96L365.777 1472.56C370.82 1470.15 373.332 1466.55 373.687 1462.1H366.635V1460.71ZM379.212 1458.68H380.928V1477.46H379.212V1458.68ZM400.766 1464.73L400.139 1466.09C397.23 1465.63 394.467 1464.1 393.274 1461.99C392.102 1464.13 389.319 1465.61 386.41 1466.09L385.761 1464.73C389.11 1464.27 392.395 1462.2 392.395 1459.77V1458.94H394.153V1459.77C394.153 1462.16 397.46 1464.27 400.766 1464.73ZM401.75 1468.96H394.111V1471.35H399.657V1477.48H397.941V1472.73H386.661V1471.35H392.395V1468.96H384.778V1467.58H401.75V1468.96ZM410.329 1460.32V1463.69C410.329 1466.99 412.463 1470.4 415.1 1471.72L414.033 1473.08C412.045 1472.02 410.35 1469.82 409.492 1467.24C408.675 1469.99 406.938 1472.33 404.825 1473.46L403.799 1472.08C406.499 1470.7 408.634 1467.1 408.634 1463.69V1460.32H410.329ZM421.567 1466.3V1467.73H418.47V1477.46H416.754V1458.71H418.47V1466.3H421.567Z" fill="#9B9B9B"/>
<path d="M680.867 1381.4L691.331 1370.93L680.867 1360.47" stroke="black" stroke-width="1.74398" stroke-linecap="round" stroke-linejoin="round"/>
<rect x="186.421" y="1312.51" width="540.661" height="353.215" rx="23.5438" stroke="#E3E1EC" stroke-width="1.74398"/>
<rect width="627.624" height="76.7353" transform="translate(141.95 239.087)" fill="white"/>
<path d="M705.663 293.15C706.893 294.235 708.508 294.894 710.278 294.894C712.047 294.894 713.662 294.235 714.892 293.15M720.742 270.478C720.742 267.703 719.639 265.042 717.677 263.079C715.714 261.117 713.053 260.014 710.278 260.014C707.502 260.014 704.841 261.117 702.879 263.079C700.916 265.042 699.814 267.703 699.814 270.478C699.814 275.867 698.454 279.557 696.936 281.998C695.655 284.057 695.014 285.086 695.038 285.373C695.064 285.691 695.131 285.812 695.387 286.002C695.618 286.174 696.662 286.174 698.748 286.174H721.807C723.894 286.174 724.937 286.174 725.168 286.002C725.424 285.812 725.492 285.691 725.518 285.373C725.541 285.086 724.901 284.057 723.62 281.998C722.101 279.557 720.742 275.867 720.742 270.478Z" stroke="black" stroke-width="3.48797" stroke-linecap="round" stroke-linejoin="round"/>
<circle cx="718.997" cy="263.502" r="8.89432" fill="#71A1FE" stroke="white" stroke-width="3.83677"/>
<path d="M188.409 356.822V352.671H193.955V336.348H189.281V333.173C191.862 332.685 193.641 332.022 195.281 331.011H199.083V352.671H203.931V356.822H188.409ZM226.493 330.523V334.15H207.589V330.523H214.704V327.523H219.343V330.523H226.493ZM213.553 341.056C213.553 342.696 214.948 343.498 217.041 343.498C219.099 343.498 220.529 342.696 220.529 341.056C220.529 339.452 219.099 338.65 217.041 338.65C214.948 338.65 213.553 339.452 213.553 341.056ZM224.924 341.056C224.924 344.579 221.68 346.986 217.041 346.986C212.437 346.986 209.158 344.579 209.158 341.056C209.158 337.568 212.437 335.162 217.041 335.162C221.68 335.162 224.924 337.568 224.924 341.056ZM211.46 352.846V349.148H232.876V359.856H228.272V352.846H211.46ZM237.132 335.964V339.766H232.876V347.823H228.272V327.697H232.876V335.964H237.132ZM241.454 331.011H256.871C256.871 340.847 253.557 348.869 242.152 354.38L239.745 350.753C247.942 346.811 251.499 341.789 252.162 334.673H241.454V331.011ZM261.789 327.662H266.428V359.787H261.789V327.662Z" fill="#71A1FE"/>
<path d="M304.173 333.941V331.429H286.35V328.674H307.731V336.522H289.942V339.033H308.359V341.824H286.419V333.941H304.173ZM304.278 356.264V352.322H290.012V356.264H304.278ZM311.324 346.777H298.837V349.462H307.801V359.124H286.489V349.462H295.244V346.777H282.722V343.916H311.324V346.777ZM324.715 348.451V334.325H319.273V348.451H324.715ZM332.039 339.696V328.604H335.388V358.008H332.039V342.626H328.063V351.311H315.925V331.464H328.063V339.696H332.039ZM338.353 328.011H341.771V359.473H338.353V328.011ZM369.253 327.976H372.881V359.577H369.253V327.976ZM356.104 330.313C360.812 330.313 364.231 334.638 364.231 341.405C364.231 348.241 360.812 352.532 356.104 352.532C351.43 352.532 348.012 348.241 348.012 341.405C348.012 334.638 351.43 330.313 356.104 330.313ZM356.104 333.557C353.383 333.557 351.465 336.522 351.465 341.405C351.465 346.358 353.383 349.323 356.104 349.323C358.859 349.323 360.777 346.358 360.777 341.405C360.777 336.522 358.859 333.557 356.104 333.557ZM404.409 344.649V347.544H382.575V330.558H404.165V333.453H386.237V337.499H403.467V340.324H386.237V344.649H404.409ZM379.052 352.706H407.618V355.636H379.052V352.706ZM423.367 334.325V348.451H428.809V334.325H423.367ZM420.019 351.311V331.464H432.157V351.311H420.019ZM442.447 328.011H445.865V359.473H442.447V343.219H438.854V358.008H435.471V328.604H438.854V340.289H442.447V328.011ZM477.01 328.011V347.195H473.417V328.011H477.01ZM470.557 343.044L468.918 345.835C465.255 344.823 462.535 342.556 461.07 339.696C459.674 342.87 456.989 345.381 453.187 346.532L451.478 343.777C456.396 342.277 459.221 338.475 459.221 334.499V334.464H452.385V331.604H459.221V328.011H462.814V331.604H469.58V334.464H462.814V334.499C462.814 338.196 465.674 341.684 470.557 343.044ZM466.476 356.717C470.975 356.717 473.557 355.636 473.557 353.648C473.557 351.66 470.975 350.578 466.476 350.578C461.976 350.578 459.395 351.66 459.395 353.648C459.395 355.636 461.976 356.717 466.476 356.717ZM466.476 347.788C473.103 347.788 477.149 349.951 477.149 353.648C477.149 357.345 473.103 359.508 466.476 359.508C459.849 359.508 455.803 357.345 455.803 353.648C455.803 349.951 459.849 347.788 466.476 347.788Z" fill="#5B5B5B"/>
<path d="M195.699 401.323C198.42 401.323 200.338 398.358 200.338 393.44C200.338 388.522 198.42 385.557 195.699 385.557C192.944 385.557 191.06 388.522 191.06 393.44C191.06 398.358 192.944 401.323 195.699 401.323ZM195.699 382.313C200.408 382.313 203.791 386.638 203.791 393.44C203.791 400.241 200.408 404.532 195.699 404.532C190.99 404.532 187.607 400.241 187.607 393.44C187.607 386.638 190.99 382.313 195.699 382.313ZM216.627 392.324V395.289H211.709V411.543H208.116V380.011H211.709V392.324H216.627ZM241.703 379.976H245.33V411.577H241.703V379.976ZM228.553 382.313C233.262 382.313 236.68 386.638 236.68 393.405C236.68 400.241 233.262 404.532 228.553 404.532C223.879 404.532 220.461 400.241 220.461 393.405C220.461 386.638 223.879 382.313 228.553 382.313ZM228.553 385.557C225.832 385.557 223.914 388.522 223.914 393.405C223.914 398.358 225.832 401.323 228.553 401.323C231.309 401.323 233.227 398.358 233.227 393.405C233.227 388.522 231.309 385.557 228.553 385.557ZM258.442 403.311V408.264H273.022V403.311H258.442ZM254.885 411.124V400.451H276.58V411.124H254.885ZM267.476 394.87H279.998V397.8H251.536V394.87H263.884V391.766H255.059V381.232H276.51V384.127H258.617V388.871H276.789V391.766H267.476V394.87ZM300.086 397.73L296.563 397.416C297.365 392.533 297.435 388.871 297.435 386.22H284.948V383.325H300.958V385.418C300.958 388.173 300.958 392.149 300.086 397.73ZM293.04 392.359V401.741C296.319 401.602 299.632 401.427 302.702 401.009L302.876 403.66C296.389 404.741 289.169 404.88 283.658 404.88L283.274 401.916C285.192 401.916 287.32 401.881 289.517 401.846V392.359H293.04ZM312.643 392.952V395.986H308.004V411.508H304.376V380.011H308.004V392.952H312.643ZM342.134 383.116V385.976H323.544V383.116H331.043V379.767H334.635V383.116H342.134ZM328.636 392.917C328.636 394.765 330.31 395.882 332.822 395.882C335.333 395.882 337.042 394.765 337.042 392.917C337.042 391.103 335.333 389.987 332.822 389.987C330.31 389.987 328.636 391.103 328.636 392.917ZM340.46 392.917C340.46 396.335 337.391 398.567 332.822 398.567C328.287 398.567 325.183 396.335 325.183 392.917C325.183 389.533 328.287 387.266 332.822 387.266C337.391 387.266 340.46 389.533 340.46 392.917ZM331.531 403.416V408.264H344.576V403.416H331.531ZM327.973 411.124V400.59H348.099V411.124H327.973ZM352.563 388.103V391.068H348.099V398.986H344.506V380.011H348.099V388.103H352.563ZM356.258 383.674H363.269C363.269 390.964 362.432 398.218 358.176 404.427L355.421 402.857C358.979 397.905 359.99 392.603 360.234 386.604H356.258V383.674ZM373.279 392.115V380.744H376.663V409.973H373.279V395.044H369.477C368.78 398.951 367.524 402.788 365.187 406.241L362.397 404.671C366.338 399.125 367.071 392.742 367.175 386.604H364.28V383.674H370.245C370.245 386.394 370.175 389.254 369.861 392.115H373.279ZM379.244 379.976H382.662V411.543H379.244V379.976ZM395.355 401.462C397.483 401.462 398.983 399.753 398.983 397.137C398.983 394.521 397.483 392.777 395.355 392.777C393.228 392.777 391.728 394.521 391.728 397.137C391.728 399.753 393.228 401.462 395.355 401.462ZM395.355 389.812C399.332 389.812 402.192 392.777 402.192 397.137C402.192 401.462 399.332 404.462 395.355 404.462C391.379 404.462 388.519 401.462 388.519 397.137C388.519 392.777 391.379 389.812 395.355 389.812ZM397.134 380.918V385.139H403.029V388.034H387.612V385.139H393.576V380.918H397.134ZM411.086 380.011H414.504V411.508H411.086V396.021H407.738V410.043H404.389V380.674H407.738V393.056H411.086V380.011ZM430.023 397.87V404.706H437.976V397.835C436.755 398.149 435.395 398.288 433.999 398.288C432.604 398.288 431.244 398.149 430.023 397.87ZM433.999 384.65C429.221 384.65 425.907 386.743 425.907 390.057C425.907 393.405 429.221 395.498 433.999 395.498C438.743 395.498 442.057 393.405 442.057 390.057C442.057 386.743 438.743 384.65 433.999 384.65ZM441.568 404.706H448.3V407.636H419.768V404.706H426.43V396.509C423.919 395.114 422.419 392.847 422.419 390.057C422.419 385.034 427.268 381.825 433.999 381.825C440.696 381.825 445.579 385.034 445.579 390.057C445.579 392.847 444.08 395.079 441.568 396.509V404.706ZM455.273 409.275C453.773 409.275 452.587 408.124 452.587 406.485C452.587 404.846 453.773 403.625 455.273 403.625C456.773 403.625 457.959 404.846 457.959 406.485C457.959 408.124 456.773 409.275 455.273 409.275Z" fill="#5B5B5B"/>
<ellipse cx="609.337" cy="503.3" rx="108.127" ry="112.487" fill="#F2F5FA"/>
<ellipse cx="522.138" cy="644.563" rx="123.823" ry="112.487" fill="#F2F5FA"/>
<path d="M582.884 776.485H575.902C569.163 776.485 563.638 770.969 563.638 764.241V731.086C563.638 725.873 567.918 721.6 573.14 721.6H585.676C590.898 721.6 595.178 725.873 595.178 731.086V764.241C595.147 770.969 589.623 776.485 582.884 776.485Z" fill="white" stroke="#5B5B5B" stroke-width="2.00644" stroke-miterlimit="10" stroke-linecap="round"/>
<path d="M575.325 770.577V775.911" stroke="#5B5B5B" stroke-width="2.00644" stroke-miterlimit="10" stroke-linecap="round"/>
<path d="M584.738 770.577V775.911" stroke="#5B5B5B" stroke-width="2.00644" stroke-miterlimit="10" stroke-linecap="round"/>
<path d="M627.815 776.485H620.833C614.095 776.485 608.57 770.969 608.57 764.241V731.086C608.57 725.873 612.85 721.6 618.071 721.6H630.608C635.829 721.6 640.109 725.873 640.109 731.086V764.241C640.079 770.969 634.554 776.485 627.815 776.485Z" fill="white" stroke="#5B5B5B" stroke-width="2.00644" stroke-miterlimit="10" stroke-linecap="round"/>
<path d="M620.257 770.577V775.911" stroke="#5B5B5B" stroke-width="2.00644" stroke-miterlimit="10" stroke-linecap="round"/>
<path d="M629.667 770.577V775.911" stroke="#5B5B5B" stroke-width="2.00644" stroke-miterlimit="10" stroke-linecap="round"/>
<path d="M723.281 534.001C721.976 520.696 711.503 509.998 697.145 505.361C697.206 503.937 697.175 502.512 697.054 501.088C695.141 481.722 673.832 467.902 649.426 470.175C643.901 470.69 638.711 471.994 633.975 473.933C625.445 463.599 610.055 457.477 593.208 459.083C579.639 460.356 567.982 466.357 560.636 474.752C553.048 471.418 544.093 469.872 534.622 470.781C512.31 472.873 495.16 487.753 493.885 505.089C475.671 510.938 463.347 525.788 464.926 541.881C465.624 549.064 469.024 555.458 474.214 560.58C466.383 567.763 461.981 577.279 462.983 587.28C464.167 599.13 472.606 608.919 484.596 614.193C481.014 619.92 479.253 626.406 479.921 633.104C481.834 652.47 503.143 666.29 527.549 664.017C527.974 663.986 528.369 663.926 528.793 663.895C535.016 678.806 553.564 688.565 574.357 686.625C582.705 685.837 590.324 683.261 596.668 679.443C605.441 685.777 617.553 689.111 630.545 687.898C650.185 686.05 665.818 674.321 670.159 659.713C693.563 656.682 710.774 639.559 708.892 620.739C708.741 619.314 708.498 617.89 708.164 616.526C721.338 609.283 729.504 596.857 728.198 583.552C727.257 573.885 721.46 565.611 712.869 560.004C720.185 552.882 724.222 543.669 723.281 534.001ZM566.161 616.617C562.761 608.495 555.719 601.888 546.612 597.888C550.194 592.19 551.955 585.704 551.287 578.976C550.589 571.794 547.189 565.399 541.998 560.277C548.555 554.276 552.683 546.639 553.29 538.486C561.79 535.759 569.014 531.061 574.114 525.212C581.703 528.546 590.658 530.092 600.129 529.182C605.653 528.667 610.844 527.364 615.58 525.424C620.254 531.092 626.963 535.486 634.886 538.032C634.825 539.456 634.855 540.881 634.977 542.305C635.918 551.973 641.716 560.247 650.306 565.853C642.96 572.945 638.893 582.158 639.864 591.826C640.016 593.251 640.259 594.675 640.593 596.039C631.152 601.221 624.292 609.071 621.62 618.011C614.032 618.981 607.111 621.436 601.282 624.951C592.51 618.617 580.398 615.284 567.406 616.496C566.981 616.526 566.586 616.587 566.161 616.617Z" fill="#FACD5B" stroke="#5B5B5B" stroke-width="2.00644" stroke-miterlimit="10"/>
<path d="M639.253 708.598C639.253 720.63 659.47 730.358 684.483 730.358" stroke="#5B5B5B" stroke-width="2.00644" stroke-miterlimit="10"/>
<path d="M696.109 732.64C690.949 734.368 684.483 729.276 684.483 729.276C684.483 729.276 686.395 721.396 691.556 719.669C696.716 717.941 701.907 719.457 703.182 723.033C704.426 726.639 701.269 730.913 696.109 732.64Z" fill="#FACD5B" stroke="#5B5B5B" stroke-width="2.00644" stroke-miterlimit="10"/>
<path d="M658.837 644.049C672.284 630.351 680.48 612.258 680.48 592.407C680.48 578.072 676.2 564.646 668.763 553.129C673.165 548.553 675.775 542.492 675.593 535.885C675.229 522.398 663.148 511.458 648.395 511.276C639.683 511.155 631.912 514.731 626.751 520.368C617.159 516.913 606.686 515.034 595.758 515.034C584.83 515.034 574.358 516.943 564.765 520.368C559.605 514.731 551.834 511.155 543.122 511.276C528.369 511.488 516.288 522.398 515.924 535.885C515.741 542.492 518.352 548.553 522.754 553.129C515.316 564.646 511.036 578.072 511.036 592.407C511.036 613.561 520.325 632.715 535.351 646.686C537.931 648.232 539.328 649.929 538.872 652.838C538.569 654.748 538.417 657.869 538.417 659.869V695.995C538.417 724.908 564.31 742.213 595.971 742.213H602.012C633.672 742.213 660.78 724.938 660.78 695.995L659.566 659.869C659.11 656.051 658.321 652.99 657.107 649.232C656.682 647.777 657.714 645.08 658.837 644.049Z" fill="white" stroke="#5B5B5B" stroke-width="2.00644" stroke-miterlimit="10"/>
<path d="M657.443 527.36C652.404 522.45 644.238 522.45 639.199 527.36L657.443 545.15C662.482 540.24 662.482 532.27 657.443 527.36Z" fill="#FACD5B" stroke="#5B5B5B" stroke-width="2.00644" stroke-miterlimit="10"/>
<path d="M534.165 527.36C529.126 532.27 529.126 540.24 534.165 545.15L552.409 527.36C547.37 522.45 539.204 522.45 534.165 527.36Z" fill="#FACD5B" stroke="#5B5B5B" stroke-width="2.00644" stroke-miterlimit="10"/>
<path d="M618.929 586.194C620.23 586.636 621.263 587.308 621.892 587.99C622.551 588.703 622.608 589.225 622.518 589.49C622.428 589.754 622.064 590.133 621.106 590.298C620.191 590.455 618.962 590.36 617.66 589.919C616.359 589.477 615.326 588.804 614.697 588.123C614.039 587.409 613.981 586.887 614.071 586.623C614.161 586.358 614.525 585.979 615.483 585.814C616.398 585.657 617.627 585.752 618.929 586.194Z" fill="black" stroke="#5B5B5B" stroke-width="2.00644"/>
<path d="M576.785 586.233C576.902 586.49 576.897 587.014 576.318 587.786C575.765 588.523 574.812 589.291 573.569 589.855C572.327 590.42 571.12 590.634 570.2 590.566C569.238 590.495 568.838 590.155 568.721 589.897C568.603 589.64 568.609 589.116 569.188 588.344C569.741 587.607 570.694 586.839 571.937 586.275C573.179 585.71 574.385 585.496 575.305 585.564C576.268 585.635 576.668 585.975 576.785 586.233Z" fill="black" stroke="#5B5B5B" stroke-width="2.00644"/>
<path d="M585.653 606.89C591.185 606.89 595.67 603.376 595.67 599.041C595.67 594.706 591.185 591.191 585.653 591.191C580.12 591.191 575.635 594.706 575.635 599.041C575.635 603.376 580.12 606.89 585.653 606.89Z" fill="white" stroke="#5B5B5B" stroke-width="2.00644" stroke-miterlimit="10"/>
<path d="M605.566 607.045C611.098 607.045 615.583 603.531 615.583 599.196C615.583 594.861 611.098 591.346 605.566 591.346C600.034 591.346 595.549 594.861 595.549 599.196C595.549 603.531 600.034 607.045 605.566 607.045Z" fill="white" stroke="#5B5B5B" stroke-width="2.00644" stroke-miterlimit="10"/>
<path d="M601.432 593.374C601.432 595.92 595.209 597.981 595.209 597.981C595.209 597.981 588.986 595.92 588.986 593.374C588.986 590.828 591.779 588.767 595.209 588.767C598.669 588.767 601.432 590.828 601.432 593.374Z" fill="#FACD5B" stroke="#5B5B5B" stroke-width="2.00644" stroke-miterlimit="10"/>
<path d="M566.675 667.559C574.974 667.559 581.701 663.122 581.701 657.648C581.701 652.175 574.974 647.738 566.675 647.738C558.377 647.738 551.649 652.175 551.649 657.648C551.649 663.122 558.377 667.559 566.675 667.559Z" fill="white" stroke="#5B5B5B" stroke-width="2.00644" stroke-miterlimit="10"/>
<path d="M561.059 661.642V666.461" stroke="#5B5B5B" stroke-width="2.00644" stroke-miterlimit="10" stroke-linecap="round"/>
<path d="M570.774 661.651V666.985" stroke="#5B5B5B" stroke-width="2.00644" stroke-miterlimit="10" stroke-linecap="round"/>
<path d="M630.155 667.559C638.454 667.559 645.181 663.122 645.181 657.648C645.181 652.175 638.454 647.738 630.155 647.738C621.856 647.738 615.129 652.175 615.129 657.648C615.129 663.122 621.856 667.559 630.155 667.559Z" fill="white" stroke="#5B5B5B" stroke-width="2.00644" stroke-miterlimit="10"/>
<path d="M624.538 661.654V666.473" stroke="#5B5B5B" stroke-width="2.00644" stroke-miterlimit="10" stroke-linecap="round"/>
<path d="M634.251 661.651V666.985" stroke="#5B5B5B" stroke-width="2.00644" stroke-miterlimit="10" stroke-linecap="round"/>
<g filter="url(#filter1_d_4202_13921)">
<rect x="183.805" y="668.107" width="545.549" height="90.8316" rx="10.4639" fill="#71A1FE" shape-rendering="crispEdges"/>
<path d="M310.46 707.218V705.209H296.202V703.004H313.307V709.282H299.076V711.292H313.809V713.524H296.257V707.218H310.46ZM310.544 725.076V721.923H299.131V725.076H310.544ZM316.181 717.486H306.191V719.635H313.362V727.364H296.313V719.635H303.317V717.486H293.3V715.198H316.181V717.486ZM326.893 718.826V707.525H322.54V718.826H326.893ZM332.753 711.822V702.948H335.432V726.471H332.753V714.166H329.572V721.114H319.862V705.236H329.572V711.822H332.753ZM337.804 702.474H340.538V727.643H337.804V702.474ZM362.524 702.446H365.426V727.727H362.524V702.446ZM352.005 704.316C355.772 704.316 358.506 707.776 358.506 713.189C358.506 718.658 355.772 722.09 352.005 722.09C348.266 722.09 345.531 718.658 345.531 713.189C345.531 707.776 348.266 704.316 352.005 704.316ZM352.005 706.911C349.828 706.911 348.293 709.282 348.293 713.189C348.293 717.151 349.828 719.523 352.005 719.523C354.209 719.523 355.744 717.151 355.744 713.189C355.744 709.282 354.209 706.911 352.005 706.911ZM390.649 715.784V718.1H373.181V704.511H390.454V706.827H376.111V710.064H389.896V712.324H376.111V715.784H390.649ZM370.363 722.23H393.216V724.574H370.363V722.23ZM405.816 707.525V718.826H410.169V707.525H405.816ZM403.137 721.114V705.236H412.847V721.114H403.137ZM421.079 702.474H423.814V727.643H421.079V714.64H418.205V726.471H415.498V702.948H418.205V712.296H421.079V702.474ZM448.729 702.474V717.821H445.855V702.474H448.729ZM443.567 714.5L442.256 716.733C439.326 715.924 437.149 714.11 435.977 711.822C434.861 714.361 432.713 716.37 429.671 717.291L428.304 715.086C432.238 713.887 434.499 710.845 434.499 707.664V707.636H429.029V705.348H434.499V702.474H437.373V705.348H442.786V707.636H437.373V707.664C437.373 710.622 439.661 713.412 443.567 714.5ZM440.303 725.439C443.902 725.439 445.967 724.574 445.967 722.983C445.967 721.393 443.902 720.528 440.303 720.528C436.703 720.528 434.638 721.393 434.638 722.983C434.638 724.574 436.703 725.439 440.303 725.439ZM440.303 718.295C445.604 718.295 448.841 720.025 448.841 722.983C448.841 725.941 445.604 727.671 440.303 727.671C435.001 727.671 431.764 725.941 431.764 722.983C431.764 720.025 435.001 718.295 440.303 718.295ZM469.198 704.567V708.697C469.198 713.329 471.765 717.961 475.727 719.746L474.053 722.034C471.151 720.667 468.947 717.877 467.803 714.473C466.659 718.128 464.426 721.114 461.385 722.593L459.683 720.193C463.701 718.379 466.324 713.552 466.324 708.697V704.567H469.198ZM477.736 702.446H480.638V727.727H477.736V702.446ZM500.392 714.445L498.913 716.649C496.095 715.728 494.086 713.803 492.997 711.403C491.881 714.054 489.789 716.119 486.831 717.151L485.324 714.891C489.314 713.552 491.519 710.343 491.519 706.883V706.436H486.161V704.092H499.694V706.436H494.421V706.883C494.421 710.064 496.541 713.161 500.392 714.445ZM488.672 721.197V718.881H505.247V727.671H502.373V721.197H488.672ZM508.819 708.892V711.264H505.247V717.654H502.373V702.446H505.247V708.892H508.819ZM518.583 719.886C520.62 719.886 522.099 718.491 522.099 716.37C522.099 714.249 520.62 712.854 518.583 712.854C516.546 712.854 515.067 714.249 515.067 716.37C515.067 718.491 516.546 719.886 518.583 719.886ZM518.583 710.482C522.183 710.482 524.833 712.938 524.833 716.37C524.833 719.83 522.183 722.258 518.583 722.258C514.956 722.258 512.333 719.83 512.333 716.37C512.333 712.938 514.956 710.482 518.583 710.482ZM519.978 702.837V706.353H525.866V708.697H511.105V706.353H517.104V702.837H519.978ZM534.683 712.603V715.003H530.805V727.699H527.903V702.474H530.805V712.603H534.683ZM538.337 705.125H550.279C550.279 712.631 547.266 718.993 538.616 723.179L537.081 720.89C543.694 717.709 546.819 713.273 547.322 707.469H538.337V705.125ZM554.828 702.474H557.702V727.671H554.828V702.474Z" fill="white"/>
<path fill-rule="evenodd" clip-rule="evenodd" d="M607.415 730.962H593.167C587.011 730.962 582.86 727.002 582.86 721.091V705.971C582.86 700.059 587.011 696.083 593.167 696.083H607.415C613.589 696.083 617.74 700.059 617.74 705.971V721.091C617.74 727.002 613.589 730.962 607.415 730.962ZM604.259 712.214H593.184C592.452 712.214 591.876 712.807 591.876 713.522C591.876 714.255 592.452 714.83 593.184 714.83H604.259L599.933 719.138C599.689 719.382 599.55 719.731 599.55 720.062C599.55 720.392 599.689 720.725 599.933 720.987C600.439 721.492 601.276 721.492 601.782 720.987L608.357 714.447C608.845 713.958 608.845 713.086 608.357 712.598L601.782 706.058C601.276 705.552 600.439 705.552 599.933 706.058C599.428 706.581 599.428 707.401 599.933 707.924L604.259 712.214Z" fill="white"/>
</g>
<rect x="141.95" y="851.225" width="653.994" height="272.061" fill="#F2F5FA"/>
<g filter="url(#filter2_d_4202_13921)">
<rect x="183.805" y="871.901" width="240.67" height="230.206" rx="13.9519" fill="white" shape-rendering="crispEdges"/>
<path d="M218.155 904.607V918.44H215.371V904.607H218.155ZM205.117 910.718C205.117 912.266 206.247 913.208 207.67 913.208C209.114 913.208 210.202 912.266 210.202 910.718C210.202 909.127 209.114 908.206 207.67 908.206C206.247 908.206 205.117 909.127 205.117 910.718ZM212.902 910.718C212.902 913.522 210.621 915.594 207.67 915.594C204.719 915.594 202.417 913.522 202.417 910.718C202.417 907.871 204.719 905.821 207.67 905.821C210.621 905.821 212.902 907.871 212.902 910.718ZM208.088 921.328H218.636V923.525H205.326V917.08H208.088V921.328ZM222.464 906.574H231.714C231.714 912.476 229.726 917.289 222.883 920.596L221.439 918.419C226.357 916.054 228.491 913.041 228.889 908.771H222.464V906.574ZM234.665 904.565H237.448V923.839H234.665V904.565Z" fill="#71A1FE"/>
<path d="M206.77 960.309C204.363 960.309 202.856 959.304 201.852 958.216L202.815 956.96C203.715 957.902 204.886 958.718 206.623 958.718C208.444 958.718 209.742 957.63 209.742 955.872C209.742 954.03 208.507 952.795 204.97 952.795V951.331C208.13 951.331 209.219 950.054 209.219 948.401C209.219 946.915 208.214 945.973 206.623 945.931C205.389 945.973 204.3 946.601 203.442 947.459L202.417 946.245C203.568 945.178 204.928 944.403 206.707 944.403C209.281 944.403 211.165 945.785 211.165 948.254C211.165 950.117 210.056 951.351 208.423 951.958V952.042C210.244 952.461 211.688 953.842 211.688 955.935C211.688 958.676 209.491 960.309 206.77 960.309ZM215.072 944.843H223.861C223.861 950.263 221.371 955.035 215.135 958.09L214.214 956.688C219.257 954.281 221.769 950.682 222.124 946.224H215.072V944.843ZM227.649 942.813H229.365V961.585H227.649V942.813ZM249.203 948.861L248.576 950.221C245.667 949.761 242.904 948.233 241.711 946.12C240.539 948.254 237.756 949.74 234.847 950.221L234.198 948.861C237.547 948.401 240.832 946.329 240.832 943.901V943.064H242.59V943.901C242.59 946.287 245.897 948.401 249.203 948.861ZM250.187 953.088H242.548V955.474H248.094V961.606H246.378V956.855H235.098V955.474H240.832V953.088H233.215V951.707H250.187V953.088ZM258.766 944.445V947.815C258.766 951.121 260.9 954.532 263.537 955.851L262.47 957.211C260.482 956.144 258.787 953.947 257.929 951.372C257.112 954.114 255.375 956.458 253.262 957.588L252.236 956.207C254.936 954.825 257.071 951.226 257.071 947.815V944.445H258.766ZM270.004 950.431V951.854H266.907V961.585H265.191V942.834H266.907V950.431H270.004ZM277.591 944.759H286.067C286.067 950.2 284.226 955.16 277.508 958.509L276.566 957.19C280.04 955.474 282.112 953.34 283.263 950.828L276.943 951.435L276.65 949.928L283.786 949.447C284.1 948.401 284.288 947.312 284.351 946.161H277.591V944.759ZM293.852 950.431V951.854H290.839V961.585H289.123V942.813H290.839V950.431H293.852ZM298.936 946.58V955.474C299.711 955.453 300.485 955.432 301.28 955.391V946.58H298.936ZM302.85 946.58V955.286C303.519 955.223 304.21 955.16 304.817 955.077L304.922 956.332C302.013 956.876 298.078 956.96 295.63 956.96L295.462 955.537C296.027 955.537 296.655 955.537 297.367 955.516V946.58H295.818V945.199H304.398V946.58H302.85ZM306.407 949.97V943.273H308.019V960.602H306.407V951.477H303.854V949.97H306.407ZM310.028 942.834H311.681V961.585H310.028V942.834ZM333.492 946.036V947.417H324.242V946.036H327.988V943.294H329.683V946.036H333.492ZM328.846 955.914C330.227 955.914 331.253 954.721 331.253 953.047C331.253 951.351 330.227 950.159 328.846 950.159C327.423 950.159 326.418 951.351 326.418 953.047C326.418 954.721 327.423 955.914 328.846 955.914ZM335.103 949.175V943.231H336.736V960.664H335.103V954.846H332.446C331.88 956.395 330.52 957.379 328.846 957.379C326.565 957.379 324.912 955.6 324.912 953.047C324.912 950.472 326.565 948.694 328.846 948.694C331.106 948.694 332.759 950.472 332.759 953.047C332.759 953.172 332.759 953.319 332.739 953.465H335.103V950.556H332.508V949.175H335.103ZM338.577 942.813H340.21V961.585H338.577V942.813ZM351.99 944.508C348.998 944.508 347.156 945.324 347.156 946.685C347.156 948.045 348.998 948.861 351.99 948.861C354.983 948.861 356.825 948.045 356.825 946.685C356.825 945.324 354.983 944.508 351.99 944.508ZM351.99 950.18C347.93 950.18 345.398 948.903 345.398 946.685C345.398 944.466 347.93 943.169 351.99 943.169C356.071 943.169 358.583 944.466 358.583 946.685C358.583 948.903 356.071 950.18 351.99 950.18ZM354.104 955.16V952.942H349.835V955.16H354.104ZM356.741 959.953V956.521H347.282V959.953H356.741ZM360.487 952.942H355.82V955.16H358.415V961.334H345.607V955.16H348.119V952.942H343.515V951.561H360.487V952.942ZM368.982 955.181V946.35H365.048V955.181H368.982ZM373.356 949.887V943.231H374.988V960.643H373.356V951.31H370.573V956.542H363.436V944.989H370.573V949.887H373.356ZM377.081 942.813H378.714V961.564H377.081V942.813ZM396.982 949.154V950.535H384.174V943.776H385.89V949.154H396.982ZM398.991 953.235V954.658H394.596V961.585H392.88V954.658H388.109V961.585H386.413V954.658H382.019V953.235H398.991ZM206.121 989.153V991.036H217.715V992.376H204.447V987.876H215.455V986.202H204.384V984.905H217.15V989.153H206.121ZM205.996 977.287C205.996 978.543 207.754 979.254 210.83 979.254C213.906 979.254 215.664 978.543 215.664 977.287C215.664 976.031 213.906 975.32 210.83 975.32C207.754 975.32 205.996 976.031 205.996 977.287ZM211.688 981.954H219.306V983.335H202.354V981.954H209.972V980.531C206.351 980.384 204.238 979.233 204.238 977.287C204.238 975.173 206.707 974.022 210.83 974.022C214.974 974.022 217.422 975.173 217.422 977.287C217.422 979.254 215.288 980.384 211.688 980.531V981.954ZM223.992 982.226V986.809C226.754 986.809 229.056 986.684 231.861 986.244L232.007 987.667C229.056 988.128 226.65 988.232 223.72 988.232H222.297V980.824H228.763V976.889H222.255V975.508H230.459V982.226H223.992ZM235.335 973.792H237.051V992.606H235.335V984.633H231.505V983.23H235.335V979.484H231.631V978.082H235.335V973.792ZM255.905 982.812V984.214H243.014V975.529H255.717V976.952H244.709V982.812H255.905ZM240.837 988.63H257.872V990.053H240.837V988.63ZM271.516 981.745L271.704 983.126C268.628 983.628 266.074 983.733 262.6 983.733H261.094V978.48H267.874V976.115H261.031V974.734H269.569V979.798H262.768V982.331C266.095 982.331 268.544 982.226 271.516 981.745ZM273.818 990.932V988.63H265.049V990.932H273.818ZM273.818 987.29V985.072H275.513V992.334H263.354V985.072H265.049V987.29H273.818ZM273.797 973.834H275.513V984.13H273.797V973.834ZM282.25 975.634V986.265C285.075 986.265 287.984 986.014 291.102 985.386L291.291 986.851C288.026 987.521 285.075 987.73 282.083 987.73H280.534V975.634H282.25ZM293.028 973.813H294.744V992.564H293.028V973.813ZM301.125 977.036V986.474C304.453 986.474 306.859 986.328 309.58 985.846L309.768 987.269C306.901 987.814 304.432 987.939 300.895 987.939H299.409V975.613H308.136V977.036H301.125ZM316.151 981.221V982.644H313.054V992.627H311.338V973.813H313.054V981.221H316.151ZM319.477 986.411L319.226 977.538L319.163 975.362H321.11L321.047 977.538L320.796 986.411H319.477ZM320.126 991.309C319.373 991.309 318.745 990.723 318.745 989.865C318.745 989.007 319.373 988.379 320.126 988.379C320.9 988.379 321.507 989.007 321.507 989.865C321.507 990.723 320.9 991.309 320.126 991.309ZM334.815 977.412V979.108C334.815 982.372 336.217 985.637 338.812 987.102L337.766 988.358C335.945 987.269 334.647 985.26 333.999 982.875C333.35 985.449 331.99 987.646 330.127 988.818L329.081 987.542C331.697 985.972 333.161 982.561 333.161 979.108V977.412H329.604V976.01H338.163V977.412H334.815ZM339.837 980.552V974.231H341.47V991.602H339.837V981.954H336.74V980.552H339.837ZM343.604 973.792H345.258V992.564H343.604V973.792ZM349.567 975.822H358.148C358.148 981.159 355.699 985.993 349.63 989.027L348.688 987.688C353.481 985.281 356.055 981.682 356.453 977.245H349.567V975.822ZM366.017 981.431V982.854H363.003V992.585H361.287V973.813H363.003V981.431H366.017ZM368.819 983.084C368.819 982.31 369.426 981.703 370.2 981.703C370.975 981.703 371.582 982.31 371.582 983.084C371.582 983.858 370.975 984.465 370.2 984.465C369.426 984.465 368.819 983.858 368.819 983.084ZM375.788 983.084C375.788 982.31 376.395 981.703 377.169 981.703C377.944 981.703 378.551 982.31 378.551 983.084C378.551 983.858 377.944 984.465 377.169 984.465C376.395 984.465 375.788 983.858 375.788 983.084ZM382.757 983.084C382.757 982.31 383.364 981.703 384.138 981.703C384.913 981.703 385.52 982.31 385.52 983.084C385.52 983.858 384.913 984.465 384.138 984.465C383.364 984.465 382.757 983.858 382.757 983.084Z" fill="black"/>
<path d="M207.46 1078.85V1069.26M202.989 1071V1077.1C202.989 1078.07 203.79 1078.85 204.777 1078.85H216.783C218.107 1078.85 219.233 1077.91 219.434 1076.63L220.397 1070.53C220.647 1068.94 219.39 1067.51 217.746 1067.51H214.613C214.12 1067.51 213.719 1067.12 213.719 1066.64V1063.56C213.719 1062.37 212.732 1061.41 211.514 1061.41C211.224 1061.41 210.961 1061.57 210.843 1061.83L207.696 1068.74C207.552 1069.05 207.232 1069.26 206.879 1069.26H204.777C203.79 1069.26 202.989 1070.04 202.989 1071Z" stroke="#5B5B5B" stroke-width="1.74398" stroke-linecap="round" stroke-linejoin="round"/>
<path d="M229.247 1078.63V1077.04H232.658V1065.59H229.937V1064.38C231.298 1064.12 232.281 1063.77 233.118 1063.29H234.583V1077.04H237.66V1078.63H229.247ZM244.831 1078.9C241.901 1078.9 240.039 1076.24 240.039 1070.9C240.039 1065.57 241.901 1062.99 244.831 1062.99C247.74 1062.99 249.603 1065.59 249.603 1070.9C249.603 1076.24 247.74 1078.9 244.831 1078.9ZM244.831 1077.37C246.568 1077.37 247.74 1075.43 247.74 1070.9C247.74 1066.43 246.568 1064.54 244.831 1064.54C243.073 1064.54 241.901 1066.43 241.901 1070.9C241.901 1075.43 243.073 1077.37 244.831 1077.37ZM256.44 1078.9C253.51 1078.9 251.647 1076.24 251.647 1070.9C251.647 1065.57 253.51 1062.99 256.44 1062.99C259.349 1062.99 261.211 1065.59 261.211 1070.9C261.211 1076.24 259.349 1078.9 256.44 1078.9ZM256.44 1077.37C258.177 1077.37 259.349 1075.43 259.349 1070.9C259.349 1066.43 258.177 1064.54 256.44 1064.54C254.682 1064.54 253.51 1066.43 253.51 1070.9C253.51 1075.43 254.682 1077.37 256.44 1077.37Z" fill="#5B5B5B"/>
<path d="M285.077 1072.74L282.395 1075.46C282.021 1075.84 281.834 1076.03 281.673 1076.04C281.534 1076.05 281.397 1076 281.306 1075.89C281.201 1075.77 281.201 1075.5 281.201 1074.97V1073.61C281.201 1073.13 280.81 1072.79 280.338 1072.72V1072.72C279.194 1072.55 278.296 1071.65 278.128 1070.51C278.101 1070.32 278.101 1070.09 278.101 1069.64V1065.59C278.101 1064.13 278.101 1063.4 278.386 1062.84C278.637 1062.34 279.037 1061.94 279.529 1061.69C280.089 1061.41 280.821 1061.41 282.286 1061.41H288.739C290.204 1061.41 290.937 1061.41 291.496 1061.69C291.988 1061.94 292.389 1062.34 292.639 1062.84C292.925 1063.4 292.925 1064.13 292.925 1065.59V1069.26M292.925 1078.85L291.027 1077.53C290.76 1077.34 290.627 1077.25 290.481 1077.18C290.353 1077.13 290.217 1077.08 290.078 1077.06C289.921 1077.03 289.759 1077.03 289.434 1077.03H287.867C286.89 1077.03 286.402 1077.03 286.029 1076.84C285.701 1076.67 285.434 1076.4 285.267 1076.08C285.077 1075.7 285.077 1075.22 285.077 1074.24V1072.05C285.077 1071.07 285.077 1070.58 285.267 1070.21C285.434 1069.88 285.701 1069.61 286.029 1069.45C286.402 1069.26 286.89 1069.26 287.867 1069.26H292.75C293.727 1069.26 294.215 1069.26 294.588 1069.45C294.916 1069.61 295.183 1069.88 295.35 1070.21C295.541 1070.58 295.541 1071.07 295.541 1072.05V1074.41C295.541 1075.23 295.541 1075.63 295.408 1075.95C295.231 1076.38 294.891 1076.72 294.464 1076.9C294.143 1077.03 293.737 1077.03 292.925 1077.03V1078.85Z" stroke="#5B5B5B" stroke-width="1.74398" stroke-linecap="round" stroke-linejoin="round"/>
<path d="M304.358 1078.63V1077.04H307.769V1065.59H305.049V1064.38C306.409 1064.12 307.393 1063.77 308.23 1063.29H309.695V1077.04H312.771V1078.63H304.358ZM319.943 1078.9C317.013 1078.9 315.15 1076.24 315.15 1070.9C315.15 1065.57 317.013 1062.99 319.943 1062.99C322.852 1062.99 324.714 1065.59 324.714 1070.9C324.714 1076.24 322.852 1078.9 319.943 1078.9ZM319.943 1077.37C321.68 1077.37 322.852 1075.43 322.852 1070.9C322.852 1066.43 321.68 1064.54 319.943 1064.54C318.185 1064.54 317.013 1066.43 317.013 1070.9C317.013 1075.43 318.185 1077.37 319.943 1077.37ZM331.551 1078.9C328.621 1078.9 326.759 1076.24 326.759 1070.9C326.759 1065.57 328.621 1062.99 331.551 1062.99C334.46 1062.99 336.323 1065.59 336.323 1070.9C336.323 1076.24 334.46 1078.9 331.551 1078.9ZM331.551 1077.37C333.288 1077.37 334.46 1075.43 334.46 1070.9C334.46 1066.43 333.288 1064.54 331.551 1064.54C329.793 1064.54 328.621 1066.43 328.621 1070.9C328.621 1075.43 329.793 1077.37 331.551 1077.37Z" fill="#5B5B5B"/>
<path d="M366.001 1078.85H357.021C356.434 1078.85 356.141 1078.85 356.005 1078.73C355.887 1078.63 355.824 1078.48 355.837 1078.32C355.851 1078.15 356.058 1077.94 356.473 1077.52L364.711 1069.29C365.095 1068.9 365.287 1068.71 365.508 1068.64C365.703 1068.58 365.912 1068.58 366.107 1068.64C366.328 1068.71 366.52 1068.9 366.904 1069.29L370.652 1073.03V1074.2M366.001 1078.85C367.629 1078.85 368.443 1078.85 369.065 1078.53C369.612 1078.25 370.057 1077.81 370.335 1077.26C370.652 1076.64 370.652 1075.82 370.652 1074.2M366.001 1078.85H357.863C356.235 1078.85 355.421 1078.85 354.799 1078.53C354.252 1078.25 353.808 1077.81 353.529 1077.26C353.212 1076.64 353.212 1075.82 353.212 1074.2V1066.06C353.212 1064.43 353.212 1063.62 353.529 1062.99C353.808 1062.45 354.252 1062 354.799 1061.72C355.421 1061.41 356.235 1061.41 357.863 1061.41H366.001C367.629 1061.41 368.443 1061.41 369.065 1061.72C369.612 1062 370.057 1062.45 370.335 1062.99C370.652 1063.62 370.652 1064.43 370.652 1066.06V1074.2M360.479 1066.74C360.479 1067.81 359.611 1068.67 358.541 1068.67C357.471 1068.67 356.603 1067.81 356.603 1066.74C356.603 1065.67 357.471 1064.8 358.541 1064.8C359.611 1064.8 360.479 1065.67 360.479 1066.74Z" stroke="#5B5B5B" stroke-width="1.74398" stroke-linecap="round" stroke-linejoin="round"/>
<path d="M379.469 1078.63V1077.04H382.881V1065.59H380.16V1064.38C381.52 1064.12 382.504 1063.77 383.341 1063.29H384.806V1077.04H387.882V1078.63H379.469ZM395.054 1078.9C392.124 1078.9 390.262 1076.24 390.262 1070.9C390.262 1065.57 392.124 1062.99 395.054 1062.99C397.963 1062.99 399.826 1065.59 399.826 1070.9C399.826 1076.24 397.963 1078.9 395.054 1078.9ZM395.054 1077.37C396.791 1077.37 397.963 1075.43 397.963 1070.9C397.963 1066.43 396.791 1064.54 395.054 1064.54C393.296 1064.54 392.124 1066.43 392.124 1070.9C392.124 1075.43 393.296 1077.37 395.054 1077.37Z" fill="#5B5B5B"/>
</g>
<g filter="url(#filter3_d_4202_13921)">
<rect x="438.427" y="871.901" width="240.67" height="230.206" rx="13.9519" fill="white" shape-rendering="crispEdges"/>
<path d="M472.776 904.607V918.44H469.993V904.607H472.776ZM459.738 910.718C459.738 912.266 460.868 913.208 462.292 913.208C463.736 913.208 464.824 912.266 464.824 910.718C464.824 909.127 463.736 908.206 462.292 908.206C460.868 908.206 459.738 909.127 459.738 910.718ZM467.523 910.718C467.523 913.522 465.242 915.594 462.292 915.594C459.341 915.594 457.039 913.522 457.039 910.718C457.039 907.871 459.341 905.821 462.292 905.821C465.242 905.821 467.523 907.871 467.523 910.718ZM462.71 921.328H473.258V923.525H459.948V917.08H462.71V921.328ZM477.086 906.574H486.336C486.336 912.476 484.348 917.289 477.504 920.596L476.06 918.419C480.978 916.054 483.113 913.041 483.511 908.771H477.086V906.574ZM489.287 904.565H492.07V923.839H489.287V904.565Z" fill="#71A1FE"/>
<path d="M461.392 960.309C458.985 960.309 457.478 959.304 456.474 958.216L457.436 956.96C458.336 957.902 459.508 958.718 461.245 958.718C463.066 958.718 464.363 957.63 464.363 955.872C464.363 954.03 463.129 952.795 459.592 952.795V951.331C462.752 951.331 463.84 950.054 463.84 948.401C463.84 946.915 462.836 945.973 461.245 945.931C460.01 945.973 458.922 946.601 458.064 947.459L457.039 946.245C458.19 945.178 459.55 944.403 461.329 944.403C463.903 944.403 465.786 945.785 465.786 948.254C465.786 950.117 464.677 951.351 463.045 951.958V952.042C464.866 952.461 466.31 953.842 466.31 955.935C466.31 958.676 464.112 960.309 461.392 960.309ZM469.693 944.843H478.483C478.483 950.263 475.993 955.035 469.756 958.09L468.835 956.688C473.879 954.281 476.39 950.682 476.746 946.224H469.693V944.843ZM482.271 942.813H483.987V961.585H482.271V942.813ZM503.825 948.861L503.197 950.221C500.288 949.761 497.526 948.233 496.333 946.12C495.161 948.254 492.378 949.74 489.469 950.221L488.82 948.861C492.168 948.401 495.454 946.329 495.454 943.901V943.064H497.212V943.901C497.212 946.287 500.518 948.401 503.825 948.861ZM504.809 953.088H497.17V955.474H502.716V961.606H501V956.855H489.72V955.474H495.454V953.088H487.836V951.707H504.809V953.088ZM513.387 944.445V947.815C513.387 951.121 515.522 954.532 518.159 955.851L517.092 957.211C515.103 956.144 513.408 953.947 512.55 951.372C511.734 954.114 509.997 956.458 507.883 957.588L506.858 956.207C509.558 954.825 511.692 951.226 511.692 947.815V944.445H513.387ZM524.626 950.431V951.854H521.528V961.585H519.812V942.834H521.528V950.431H524.626ZM532.213 944.759H540.689C540.689 950.2 538.847 955.16 532.129 958.509L531.188 957.19C534.662 955.474 536.734 953.34 537.885 950.828L531.564 951.435L531.271 949.928L538.408 949.447C538.722 948.401 538.91 947.312 538.973 946.161H532.213V944.759ZM548.474 950.431V951.854H545.46V961.585H543.744V942.813H545.46V950.431H548.474ZM553.558 946.58V955.474C554.332 955.453 555.107 955.432 555.902 955.391V946.58H553.558ZM557.471 946.58V955.286C558.141 955.223 558.832 955.16 559.439 955.077L559.543 956.332C556.634 956.876 552.7 956.96 550.251 956.96L550.084 955.537C550.649 955.537 551.277 955.537 551.988 955.516V946.58H550.44V945.199H559.02V946.58H557.471ZM561.029 949.97V943.273H562.641V960.602H561.029V951.477H558.476V949.97H561.029ZM564.65 942.834H566.303V961.585H564.65V942.834ZM588.114 946.036V947.417H578.863V946.036H582.61V943.294H584.305V946.036H588.114ZM583.468 955.914C584.849 955.914 585.874 954.721 585.874 953.047C585.874 951.351 584.849 950.159 583.468 950.159C582.045 950.159 581.04 951.351 581.04 953.047C581.04 954.721 582.045 955.914 583.468 955.914ZM589.725 949.175V943.231H591.357V960.664H589.725V954.846H587.067C586.502 956.395 585.142 957.379 583.468 957.379C581.186 957.379 579.533 955.6 579.533 953.047C579.533 950.472 581.186 948.694 583.468 948.694C585.728 948.694 587.381 950.472 587.381 953.047C587.381 953.172 587.381 953.319 587.36 953.465H589.725V950.556H587.13V949.175H589.725ZM593.199 942.813H594.831V961.585H593.199V942.813ZM606.612 944.508C603.619 944.508 601.778 945.324 601.778 946.685C601.778 948.045 603.619 948.861 606.612 948.861C609.605 948.861 611.446 948.045 611.446 946.685C611.446 945.324 609.605 944.508 606.612 944.508ZM606.612 950.18C602.552 950.18 600.02 948.903 600.02 946.685C600.02 944.466 602.552 943.169 606.612 943.169C610.693 943.169 613.204 944.466 613.204 946.685C613.204 948.903 610.693 950.18 606.612 950.18ZM608.726 955.16V952.942H604.457V955.16H608.726ZM611.363 959.953V956.521H601.903V959.953H611.363ZM615.109 952.942H610.442V955.16H613.037V961.334H600.229V955.16H602.74V952.942H598.136V951.561H615.109V952.942ZM623.604 955.181V946.35H619.669V955.181H623.604ZM627.978 949.887V943.231H629.61V960.643H627.978V951.31H625.194V956.542H618.058V944.989H625.194V949.887H627.978ZM631.703 942.813H633.335V961.564H631.703V942.813ZM651.604 949.154V950.535H638.796V943.776H640.512V949.154H651.604ZM653.613 953.235V954.658H649.218V961.585H647.502V954.658H642.73V961.585H641.035V954.658H636.64V953.235H653.613ZM460.743 989.153V991.036H472.337V992.376H459.069V987.876H470.077V986.202H459.006V984.905H471.772V989.153H460.743ZM460.617 977.287C460.617 978.543 462.375 979.254 465.452 979.254C468.528 979.254 470.286 978.543 470.286 977.287C470.286 976.031 468.528 975.32 465.452 975.32C462.375 975.32 460.617 976.031 460.617 977.287ZM466.31 981.954H473.927V983.335H456.976V981.954H464.594V980.531C460.973 980.384 458.859 979.233 458.859 977.287C458.859 975.173 461.329 974.022 465.452 974.022C469.595 974.022 472.044 975.173 472.044 977.287C472.044 979.254 469.909 980.384 466.31 980.531V981.954ZM478.614 982.226V986.809C481.376 986.809 483.678 986.684 486.482 986.244L486.629 987.667C483.678 988.128 481.271 988.232 478.342 988.232H476.918V980.824H483.385V976.889H476.877V975.508H485.08V982.226H478.614ZM489.956 973.792H491.673V992.606H489.956V984.633H486.127V983.23H489.956V979.484H486.252V978.082H489.956V973.792ZM510.527 982.812V984.214H497.635V975.529H510.338V976.952H499.33V982.812H510.527ZM495.459 988.63H512.494V990.053H495.459V988.63ZM526.137 981.745L526.326 983.126C523.249 983.628 520.696 983.733 517.222 983.733H515.715V978.48H522.496V976.115H515.653V974.734H524.191V979.798H517.39V982.331C520.717 982.331 523.166 982.226 526.137 981.745ZM528.439 990.932V988.63H519.671V990.932H528.439ZM528.439 987.29V985.072H530.135V992.334H517.976V985.072H519.671V987.29H528.439ZM528.418 973.834H530.135V984.13H528.418V973.834ZM536.872 975.634V986.265C539.697 986.265 542.606 986.014 545.724 985.386L545.912 986.851C542.648 987.521 539.697 987.73 536.704 987.73H535.156V975.634H536.872ZM547.65 973.813H549.366V992.564H547.65V973.813ZM555.747 977.036V986.474C559.074 986.474 561.481 986.328 564.202 985.846L564.39 987.269C561.523 987.814 559.054 987.939 555.517 987.939H554.031V975.613H562.758V977.036H555.747ZM570.773 981.221V982.644H567.676V992.627H565.96V973.813H567.676V981.221H570.773ZM574.099 986.411L573.848 977.538L573.785 975.362H575.731L575.669 977.538L575.417 986.411H574.099ZM574.748 991.309C573.994 991.309 573.367 990.723 573.367 989.865C573.367 989.007 573.994 988.379 574.748 988.379C575.522 988.379 576.129 989.007 576.129 989.865C576.129 990.723 575.522 991.309 574.748 991.309ZM589.436 977.412V979.108C589.436 982.372 590.839 985.637 593.434 987.102L592.387 988.358C590.567 987.269 589.269 985.26 588.62 982.875C587.972 985.449 586.611 987.646 584.749 988.818L583.702 987.542C586.318 985.972 587.783 982.561 587.783 979.108V977.412H584.225V976.01H592.785V977.412H589.436ZM594.459 980.552V974.231H596.091V991.602H594.459V981.954H591.362V980.552H594.459ZM598.226 973.792H599.879V992.564H598.226V973.792ZM604.189 975.822H612.769C612.769 981.159 610.321 985.993 604.252 989.027L603.31 987.688C608.102 985.281 610.677 981.682 611.074 977.245H604.189V975.822ZM620.638 981.431V982.854H617.625V992.585H615.908V973.813H617.625V981.431H620.638ZM623.441 983.084C623.441 982.31 624.048 981.703 624.822 981.703C625.596 981.703 626.203 982.31 626.203 983.084C626.203 983.858 625.596 984.465 624.822 984.465C624.048 984.465 623.441 983.858 623.441 983.084ZM630.41 983.084C630.41 982.31 631.017 981.703 631.791 981.703C632.565 981.703 633.172 982.31 633.172 983.084C633.172 983.858 632.565 984.465 631.791 984.465C631.017 984.465 630.41 983.858 630.41 983.084ZM637.379 983.084C637.379 982.31 637.986 981.703 638.76 981.703C639.534 981.703 640.141 982.31 640.141 983.084C640.141 983.858 639.534 984.465 638.76 984.465C637.986 984.465 637.379 983.858 637.379 983.084Z" fill="black"/>
<path d="M462.082 1078.85V1069.26M457.611 1071V1077.1C457.611 1078.07 458.411 1078.85 459.399 1078.85H471.404C472.728 1078.85 473.854 1077.91 474.056 1076.63L475.019 1070.53C475.269 1068.94 474.011 1067.51 472.367 1067.51H469.235C468.741 1067.51 468.341 1067.12 468.341 1066.64V1063.56C468.341 1062.37 467.354 1061.41 466.136 1061.41C465.845 1061.41 465.582 1061.57 465.464 1061.83L462.318 1068.74C462.174 1069.05 461.854 1069.26 461.5 1069.26H459.399C458.411 1069.26 457.611 1070.04 457.611 1071Z" stroke="#5B5B5B" stroke-width="1.74398" stroke-linecap="round" stroke-linejoin="round"/>
<path d="M483.868 1078.63V1077.04H487.279V1065.59H484.559V1064.38C485.919 1064.12 486.903 1063.77 487.74 1063.29H489.205V1077.04H492.281V1078.63H483.868ZM499.453 1078.9C496.523 1078.9 494.66 1076.24 494.66 1070.9C494.66 1065.57 496.523 1062.99 499.453 1062.99C502.362 1062.99 504.224 1065.59 504.224 1070.9C504.224 1076.24 502.362 1078.9 499.453 1078.9ZM499.453 1077.37C501.19 1077.37 502.362 1075.43 502.362 1070.9C502.362 1066.43 501.19 1064.54 499.453 1064.54C497.695 1064.54 496.523 1066.43 496.523 1070.9C496.523 1075.43 497.695 1077.37 499.453 1077.37ZM511.061 1078.9C508.131 1078.9 506.269 1076.24 506.269 1070.9C506.269 1065.57 508.131 1062.99 511.061 1062.99C513.97 1062.99 515.833 1065.59 515.833 1070.9C515.833 1076.24 513.97 1078.9 511.061 1078.9ZM511.061 1077.37C512.798 1077.37 513.97 1075.43 513.97 1070.9C513.97 1066.43 512.798 1064.54 511.061 1064.54C509.303 1064.54 508.131 1066.43 508.131 1070.9C508.131 1075.43 509.303 1077.37 511.061 1077.37Z" fill="#5B5B5B"/>
<path d="M539.698 1072.74L537.017 1075.46C536.643 1075.84 536.456 1076.03 536.295 1076.04C536.155 1076.05 536.019 1076 535.928 1075.89C535.823 1075.77 535.823 1075.5 535.823 1074.97V1073.61C535.823 1073.13 535.432 1072.79 534.959 1072.72V1072.72C533.816 1072.55 532.917 1071.65 532.75 1070.51C532.722 1070.32 532.722 1070.09 532.722 1069.64V1065.59C532.722 1064.13 532.722 1063.4 533.007 1062.84C533.258 1062.34 533.658 1061.94 534.151 1061.69C534.71 1061.41 535.443 1061.41 536.908 1061.41H543.361C544.826 1061.41 545.558 1061.41 546.118 1061.69C546.61 1061.94 547.01 1062.34 547.261 1062.84C547.546 1063.4 547.546 1064.13 547.546 1065.59V1069.26M547.546 1078.85L545.648 1077.53C545.382 1077.34 545.248 1077.25 545.103 1077.18C544.974 1077.13 544.839 1077.08 544.7 1077.06C544.543 1077.03 544.38 1077.03 544.055 1077.03H542.489C541.512 1077.03 541.023 1077.03 540.65 1076.84C540.322 1076.67 540.055 1076.4 539.888 1076.08C539.698 1075.7 539.698 1075.22 539.698 1074.24V1072.05C539.698 1071.07 539.698 1070.58 539.888 1070.21C540.055 1069.88 540.322 1069.61 540.65 1069.45C541.023 1069.26 541.512 1069.26 542.489 1069.26H547.372C548.348 1069.26 548.837 1069.26 549.21 1069.45C549.538 1069.61 549.805 1069.88 549.972 1070.21C550.162 1070.58 550.162 1071.07 550.162 1072.05V1074.41C550.162 1075.23 550.162 1075.63 550.029 1075.95C549.852 1076.38 549.513 1076.72 549.086 1076.9C548.765 1077.03 548.359 1077.03 547.546 1077.03V1078.85Z" stroke="#5B5B5B" stroke-width="1.74398" stroke-linecap="round" stroke-linejoin="round"/>
<path d="M558.98 1078.63V1077.04H562.391V1065.59H559.67V1064.38C561.031 1064.12 562.014 1063.77 562.851 1063.29H564.316V1077.04H567.393V1078.63H558.98ZM574.564 1078.9C571.634 1078.9 569.772 1076.24 569.772 1070.9C569.772 1065.57 571.634 1062.99 574.564 1062.99C577.473 1062.99 579.336 1065.59 579.336 1070.9C579.336 1076.24 577.473 1078.9 574.564 1078.9ZM574.564 1077.37C576.301 1077.37 577.473 1075.43 577.473 1070.9C577.473 1066.43 576.301 1064.54 574.564 1064.54C572.806 1064.54 571.634 1066.43 571.634 1070.9C571.634 1075.43 572.806 1077.37 574.564 1077.37ZM586.173 1078.9C583.243 1078.9 581.38 1076.24 581.38 1070.9C581.38 1065.57 583.243 1062.99 586.173 1062.99C589.082 1062.99 590.944 1065.59 590.944 1070.9C590.944 1076.24 589.082 1078.9 586.173 1078.9ZM586.173 1077.37C587.91 1077.37 589.082 1075.43 589.082 1070.9C589.082 1066.43 587.91 1064.54 586.173 1064.54C584.415 1064.54 583.243 1066.43 583.243 1070.9C583.243 1075.43 584.415 1077.37 586.173 1077.37Z" fill="#5B5B5B"/>
<path d="M620.623 1078.85H611.643C611.056 1078.85 610.762 1078.85 610.626 1078.73C610.509 1078.63 610.446 1078.48 610.458 1078.32C610.472 1078.15 610.68 1077.94 611.095 1077.52L619.333 1069.29C619.717 1068.9 619.909 1068.71 620.13 1068.64C620.324 1068.58 620.534 1068.58 620.729 1068.64C620.95 1068.71 621.142 1068.9 621.525 1069.29L625.274 1073.03V1074.2M620.623 1078.85C622.251 1078.85 623.065 1078.85 623.687 1078.53C624.234 1078.25 624.678 1077.81 624.957 1077.26C625.274 1076.64 625.274 1075.82 625.274 1074.2M620.623 1078.85H612.484C610.857 1078.85 610.043 1078.85 609.421 1078.53C608.874 1078.25 608.429 1077.81 608.151 1077.26C607.834 1076.64 607.834 1075.82 607.834 1074.2V1066.06C607.834 1064.43 607.834 1063.62 608.151 1062.99C608.429 1062.45 608.874 1062 609.421 1061.72C610.043 1061.41 610.857 1061.41 612.484 1061.41H620.623C622.251 1061.41 623.065 1061.41 623.687 1061.72C624.234 1062 624.678 1062.45 624.957 1062.99C625.274 1063.62 625.274 1064.43 625.274 1066.06V1074.2M615.1 1066.74C615.1 1067.81 614.233 1068.67 613.163 1068.67C612.092 1068.67 611.225 1067.81 611.225 1066.74C611.225 1065.67 612.092 1064.8 613.163 1064.8C614.233 1064.8 615.1 1065.67 615.1 1066.74Z" stroke="#5B5B5B" stroke-width="1.74398" stroke-linecap="round" stroke-linejoin="round"/>
<path d="M634.091 1078.63V1077.04H637.503V1065.59H634.782V1064.38C636.142 1064.12 637.126 1063.77 637.963 1063.29H639.428V1077.04H642.504V1078.63H634.091ZM649.676 1078.9C646.746 1078.9 644.884 1076.24 644.884 1070.9C644.884 1065.57 646.746 1062.99 649.676 1062.99C652.585 1062.99 654.448 1065.59 654.448 1070.9C654.448 1076.24 652.585 1078.9 649.676 1078.9ZM649.676 1077.37C651.413 1077.37 652.585 1075.43 652.585 1070.9C652.585 1066.43 651.413 1064.54 649.676 1064.54C647.918 1064.54 646.746 1066.43 646.746 1070.9C646.746 1075.43 647.918 1077.37 649.676 1077.37Z" fill="#5B5B5B"/>
</g>
<g filter="url(#filter4_d_4202_13921)">
<rect x="693.049" y="871.901" width="240.67" height="230.206" rx="13.9519" fill="white" shape-rendering="crispEdges"/>
<path d="M727.398 904.607V918.44H724.615V904.607H727.398ZM714.36 910.718C714.36 912.266 715.49 913.208 716.913 913.208C718.357 913.208 719.445 912.266 719.445 910.718C719.445 909.127 718.357 908.206 716.913 908.206C715.49 908.206 714.36 909.127 714.36 910.718ZM722.145 910.718C722.145 913.522 719.864 915.594 716.913 915.594C713.962 915.594 711.66 913.522 711.66 910.718C711.66 907.871 713.962 905.821 716.913 905.821C719.864 905.821 722.145 907.871 722.145 910.718ZM717.332 921.328H727.879V923.525H714.569V917.08H717.332V921.328ZM731.708 906.574H740.958C740.958 912.476 738.969 917.289 732.126 920.596L730.682 918.419C735.6 916.054 737.735 913.041 738.132 908.771H731.708V906.574ZM743.908 904.565H746.692V923.839H743.908V904.565Z" fill="#71A1FE"/>
<path d="M716.013 960.309C713.607 960.309 712.1 959.304 711.095 958.216L712.058 956.96C712.958 957.902 714.13 958.718 715.867 958.718C717.688 958.718 718.985 957.63 718.985 955.872C718.985 954.03 717.75 952.795 714.213 952.795V951.331C717.374 951.331 718.462 950.054 718.462 948.401C718.462 946.915 717.457 945.973 715.867 945.931C714.632 945.973 713.544 946.601 712.686 947.459L711.66 946.245C712.811 945.178 714.172 944.403 715.951 944.403C718.525 944.403 720.408 945.785 720.408 948.254C720.408 950.117 719.299 951.351 717.667 951.958V952.042C719.487 952.461 720.931 953.842 720.931 955.935C720.931 958.676 718.734 960.309 716.013 960.309ZM724.315 944.843H733.105C733.105 950.263 730.614 955.035 724.378 958.09L723.457 956.688C728.501 954.281 731.012 950.682 731.368 946.224H724.315V944.843ZM736.893 942.813H738.609V961.585H736.893V942.813ZM758.447 948.861L757.819 950.221C754.91 949.761 752.147 948.233 750.955 946.12C749.783 948.254 746.999 949.74 744.09 950.221L743.441 948.861C746.79 948.401 750.076 946.329 750.076 943.901V943.064H751.834V943.901C751.834 946.287 755.14 948.401 758.447 948.861ZM759.43 953.088H751.792V955.474H757.338V961.606H755.621V956.855H744.341V955.474H750.076V953.088H742.458V951.707H759.43V953.088ZM768.009 944.445V947.815C768.009 951.121 770.144 954.532 772.781 955.851L771.713 957.211C769.725 956.144 768.03 953.947 767.172 951.372C766.356 954.114 764.619 956.458 762.505 957.588L761.48 956.207C764.179 954.825 766.314 951.226 766.314 947.815V944.445H768.009ZM779.247 950.431V951.854H776.15V961.585H774.434V942.834H776.15V950.431H779.247ZM786.835 944.759H795.311C795.311 950.2 793.469 955.16 786.751 958.509L785.809 957.19C789.283 955.474 791.355 953.34 792.506 950.828L786.186 951.435L785.893 949.928L793.029 949.447C793.343 948.401 793.532 947.312 793.594 946.161H786.835V944.759ZM803.096 950.431V951.854H800.082V961.585H798.366V942.813H800.082V950.431H803.096ZM808.18 946.58V955.474C808.954 955.453 809.728 955.432 810.523 955.391V946.58H808.18ZM812.093 946.58V955.286C812.763 955.223 813.453 955.16 814.06 955.077L814.165 956.332C811.256 956.876 807.321 956.96 804.873 956.96L804.705 955.537C805.271 955.537 805.898 955.537 806.61 955.516V946.58H805.061V945.199H813.642V946.58H812.093ZM815.651 949.97V943.273H817.262V960.602H815.651V951.477H813.098V949.97H815.651ZM819.271 942.834H820.925V961.585H819.271V942.834ZM842.735 946.036V947.417H833.485V946.036H837.231V943.294H838.926V946.036H842.735ZM838.089 955.914C839.471 955.914 840.496 954.721 840.496 953.047C840.496 951.351 839.471 950.159 838.089 950.159C836.666 950.159 835.662 951.351 835.662 953.047C835.662 954.721 836.666 955.914 838.089 955.914ZM844.347 949.175V943.231H845.979V960.664H844.347V954.846H841.689C841.124 956.395 839.763 957.379 838.089 957.379C835.808 957.379 834.155 955.6 834.155 953.047C834.155 950.472 835.808 948.694 838.089 948.694C840.349 948.694 842.003 950.472 842.003 953.047C842.003 953.172 842.003 953.319 841.982 953.465H844.347V950.556H841.752V949.175H844.347ZM847.821 942.813H849.453V961.585H847.821V942.813ZM861.234 944.508C858.241 944.508 856.399 945.324 856.399 946.685C856.399 948.045 858.241 948.861 861.234 948.861C864.226 948.861 866.068 948.045 866.068 946.685C866.068 945.324 864.226 944.508 861.234 944.508ZM861.234 950.18C857.174 950.18 854.642 948.903 854.642 946.685C854.642 944.466 857.174 943.169 861.234 943.169C865.315 943.169 867.826 944.466 867.826 946.685C867.826 948.903 865.315 950.18 861.234 950.18ZM863.347 955.16V952.942H859.078V955.16H863.347ZM865.984 959.953V956.521H856.525V959.953H865.984ZM869.73 952.942H865.064V955.16H867.659V961.334H854.851V955.16H857.362V952.942H852.758V951.561H869.73V952.942ZM878.226 955.181V946.35H874.291V955.181H878.226ZM882.599 949.887V943.231H884.232V960.643H882.599V951.31H879.816V956.542H872.68V944.989H879.816V949.887H882.599ZM886.325 942.813H887.957V961.564H886.325V942.813ZM906.225 949.154V950.535H893.417V943.776H895.134V949.154H906.225ZM908.234 953.235V954.658H903.84V961.585H902.123V954.658H897.352V961.585H895.657V954.658H891.262V953.235H908.234ZM715.365 989.153V991.036H726.959V992.376H713.69V987.876H724.698V986.202H713.628V984.905H726.393V989.153H715.365ZM715.239 977.287C715.239 978.543 716.997 979.254 720.073 979.254C723.15 979.254 724.908 978.543 724.908 977.287C724.908 976.031 723.15 975.32 720.073 975.32C716.997 975.32 715.239 976.031 715.239 977.287ZM720.931 981.954H728.549V983.335H711.598V981.954H719.215V980.531C715.595 980.384 713.481 979.233 713.481 977.287C713.481 975.173 715.951 974.022 720.073 974.022C724.217 974.022 726.666 975.173 726.666 977.287C726.666 979.254 724.531 980.384 720.931 980.531V981.954ZM733.235 982.226V986.809C735.998 986.809 738.3 986.684 741.104 986.244L741.251 987.667C738.3 988.128 735.893 988.232 732.963 988.232H731.54V980.824H738.007V976.889H731.498V975.508H739.702V982.226H733.235ZM744.578 973.792H746.294V992.606H744.578V984.633H740.748V983.23H744.578V979.484H740.874V978.082H744.578V973.792ZM765.149 982.812V984.214H752.257V975.529H764.96V976.952H753.952V982.812H765.149ZM750.08 988.63H767.116V990.053H750.08V988.63ZM780.759 981.745L780.947 983.126C777.871 983.628 775.318 983.733 771.844 983.733H770.337V978.48H777.118V976.115H770.274V974.734H778.813V979.798H772.011V982.331C775.339 982.331 777.787 982.226 780.759 981.745ZM783.061 990.932V988.63H774.292V990.932H783.061ZM783.061 987.29V985.072H784.756V992.334H772.597V985.072H774.292V987.29H783.061ZM783.04 973.834H784.756V984.13H783.04V973.834ZM791.493 975.634V986.265C794.319 986.265 797.228 986.014 800.346 985.386L800.534 986.851C797.269 987.521 794.319 987.73 791.326 987.73H789.777V975.634H791.493ZM802.271 973.813H803.987V992.564H802.271V973.813ZM810.369 977.036V986.474C813.696 986.474 816.103 986.328 818.823 985.846L819.012 987.269C816.145 987.814 813.675 987.939 810.138 987.939H808.653V975.613H817.379V977.036H810.369ZM825.395 981.221V982.644H822.297V992.627H820.581V973.813H822.297V981.221H825.395ZM828.721 986.411L828.47 977.538L828.407 975.362H830.353L830.29 977.538L830.039 986.411H828.721ZM829.369 991.309C828.616 991.309 827.988 990.723 827.988 989.865C827.988 989.007 828.616 988.379 829.369 988.379C830.144 988.379 830.751 989.007 830.751 989.865C830.751 990.723 830.144 991.309 829.369 991.309ZM844.058 977.412V979.108C844.058 982.372 845.46 985.637 848.055 987.102L847.009 988.358C845.188 987.269 843.891 985.26 843.242 982.875C842.593 985.449 841.233 987.646 839.37 988.818L838.324 987.542C840.94 985.972 842.405 982.561 842.405 979.108V977.412H838.847V976.01H847.407V977.412H844.058ZM849.081 980.552V974.231H850.713V991.602H849.081V981.954H845.983V980.552H849.081ZM852.848 973.792H854.501V992.564H852.848V973.792ZM858.811 975.822H867.391C867.391 981.159 864.942 985.993 858.873 989.027L857.932 987.688C862.724 985.281 865.298 981.682 865.696 977.245H858.811V975.822ZM875.26 981.431V982.854H872.246V992.585H870.53V973.813H872.246V981.431H875.26ZM878.063 983.084C878.063 982.31 878.669 981.703 879.444 981.703C880.218 981.703 880.825 982.31 880.825 983.084C880.825 983.858 880.218 984.465 879.444 984.465C878.669 984.465 878.063 983.858 878.063 983.084ZM885.031 983.084C885.031 982.31 885.638 981.703 886.413 981.703C887.187 981.703 887.794 982.31 887.794 983.084C887.794 983.858 887.187 984.465 886.413 984.465C885.638 984.465 885.031 983.858 885.031 983.084ZM892 983.084C892 982.31 892.607 981.703 893.382 981.703C894.156 981.703 894.763 982.31 894.763 983.084C894.763 983.858 894.156 984.465 893.382 984.465C892.607 984.465 892 983.858 892 983.084Z" fill="black"/>
<path d="M716.703 1078.85V1069.26M712.232 1071V1077.1C712.232 1078.07 713.033 1078.85 714.021 1078.85H726.026C727.35 1078.85 728.476 1077.91 728.678 1076.63L729.641 1070.53C729.891 1068.94 728.633 1067.51 726.989 1067.51H723.857C723.363 1067.51 722.963 1067.12 722.963 1066.64V1063.56C722.963 1062.37 721.975 1061.41 720.758 1061.41C720.467 1061.41 720.204 1061.57 720.086 1061.83L716.939 1068.74C716.796 1069.05 716.476 1069.26 716.122 1069.26H714.021C713.033 1069.26 712.232 1070.04 712.232 1071Z" stroke="#5B5B5B" stroke-width="1.74398" stroke-linecap="round" stroke-linejoin="round"/>
<path d="M738.49 1078.63V1077.04H741.901V1065.59H739.181V1064.38C740.541 1064.12 741.524 1063.77 742.362 1063.29H743.826V1077.04H746.903V1078.63H738.49ZM754.075 1078.9C751.145 1078.9 749.282 1076.24 749.282 1070.9C749.282 1065.57 751.145 1062.99 754.075 1062.99C756.984 1062.99 758.846 1065.59 758.846 1070.9C758.846 1076.24 756.984 1078.9 754.075 1078.9ZM754.075 1077.37C755.812 1077.37 756.984 1075.43 756.984 1070.9C756.984 1066.43 755.812 1064.54 754.075 1064.54C752.317 1064.54 751.145 1066.43 751.145 1070.9C751.145 1075.43 752.317 1077.37 754.075 1077.37ZM765.683 1078.9C762.753 1078.9 760.891 1076.24 760.891 1070.9C760.891 1065.57 762.753 1062.99 765.683 1062.99C768.592 1062.99 770.455 1065.59 770.455 1070.9C770.455 1076.24 768.592 1078.9 765.683 1078.9ZM765.683 1077.37C767.42 1077.37 768.592 1075.43 768.592 1070.9C768.592 1066.43 767.42 1064.54 765.683 1064.54C763.925 1064.54 762.753 1066.43 762.753 1070.9C762.753 1075.43 763.925 1077.37 765.683 1077.37Z" fill="#5B5B5B"/>
</g>
<g clip-path="url(#clip2_4202_13921)">
<rect width="627.834" height="75.6621" transform="translate(141.95 162.351)" fill="white" fill-opacity="0.62"/>
<path d="M211.332 193.882C215.113 193.909 218.882 196.167 218.895 203.236C218.895 209.904 215.875 213.766 211.118 213.766C207.39 213.766 204.811 211.441 204.383 208.234H207.831C208.178 209.77 209.367 210.746 211.118 210.746C213.924 210.746 215.501 208.274 215.528 204.118H215.314C214.338 205.802 212.467 206.804 210.343 206.791C206.882 206.804 204.209 204.171 204.196 200.51C204.196 196.728 207.042 193.855 211.332 193.882ZM207.59 200.43C207.59 202.514 209.14 204.145 211.305 204.145C213.456 204.145 215.113 202.408 215.1 200.403C215.1 198.439 213.523 196.702 211.358 196.688C209.18 196.702 207.563 198.359 207.59 200.43ZM223.263 211.093C222.113 211.093 221.165 210.158 221.178 209.009C221.165 207.886 222.113 206.964 223.263 206.951C224.372 206.964 225.32 207.886 225.32 209.009C225.32 210.158 224.372 211.093 223.263 211.093ZM221.178 198.639C221.165 197.517 222.113 196.595 223.263 196.581C224.372 196.595 225.32 197.517 225.32 198.639C225.32 199.788 224.372 200.724 223.263 200.724C222.113 200.724 221.165 199.788 221.178 198.639ZM227.577 209.891V207.111L235.942 194.149H240.272V207.031H242.81V209.891H240.272V213.499H236.958V209.891H227.577ZM231.131 207.031H237.011V198.105H236.797L231.131 206.897V207.031ZM252.523 194.149V213.499H249.022V197.543H248.915L244.399 200.43V197.249L249.182 194.149H252.523Z" fill="black"/>
<path opacity="0.35" d="M683.463 199.377C683.463 196.266 685.985 193.743 689.097 193.743H716.464C719.576 193.743 722.099 196.266 722.099 199.377V207.427C722.099 210.538 719.576 213.061 716.464 213.061H689.097C685.985 213.061 683.463 210.538 683.463 207.427V199.377Z" stroke="black" stroke-width="1.60983"/>
<path opacity="0.4" d="M724.513 200.987V207.781C725.88 207.206 726.769 205.867 726.769 204.384C726.769 202.901 725.88 201.563 724.513 200.987Z" fill="black"/>
<path d="M685.877 199.377C685.877 197.599 687.319 196.158 689.097 196.158H716.464C718.242 196.158 719.684 197.599 719.684 199.377V207.427C719.684 209.205 718.242 210.646 716.464 210.646H689.097C687.319 210.646 685.877 209.205 685.877 207.427V199.377Z" fill="black"/>
<path fill-rule="evenodd" clip-rule="evenodd" d="M657.706 198.713C661.677 198.714 665.496 200.271 668.374 203.064C668.59 203.279 668.937 203.277 669.15 203.058L671.222 200.924C671.33 200.813 671.39 200.662 671.389 200.506C671.388 200.349 671.326 200.199 671.217 200.089C663.664 192.701 651.748 192.701 644.194 200.089C644.085 200.199 644.023 200.349 644.022 200.505C644.021 200.662 644.081 200.812 644.189 200.924L646.261 203.058C646.474 203.277 646.821 203.28 647.038 203.064C649.916 200.271 653.735 198.713 657.706 198.713ZM657.763 205.156C659.945 205.156 662.049 205.983 663.666 207.478C663.885 207.69 664.229 207.686 664.442 207.468L666.511 205.334C666.62 205.222 666.681 205.07 666.679 204.912C666.678 204.754 666.614 204.604 666.503 204.494C661.578 199.818 653.952 199.818 649.028 204.494C648.916 204.604 648.853 204.754 648.851 204.912C648.85 205.07 648.911 205.222 649.02 205.334L651.088 207.468C651.301 207.686 651.646 207.69 651.865 207.478C653.481 205.984 655.583 205.157 657.763 205.156ZM661.971 209.321C661.974 209.479 661.913 209.632 661.802 209.743L658.223 213.429C658.118 213.538 657.975 213.599 657.826 213.599C657.677 213.599 657.534 213.538 657.429 213.429L653.849 209.743C653.739 209.632 653.678 209.479 653.681 209.321C653.684 209.163 653.751 209.013 653.866 208.907C656.152 206.933 659.5 206.933 661.786 208.907C661.901 209.013 661.968 209.163 661.971 209.321Z" fill="black"/>
<path d="M618.265 199.377C618.265 198.488 618.985 197.768 619.874 197.768H621.484C622.373 197.768 623.094 198.488 623.094 199.377V212.256C623.094 213.145 622.373 213.866 621.484 213.866H619.874C618.985 213.866 618.265 213.145 618.265 212.256V199.377Z" fill="black"/>
<path d="M626.314 196.158C626.314 195.269 627.034 194.548 627.924 194.548H629.533C630.422 194.548 631.143 195.269 631.143 196.158V212.256C631.143 213.145 630.422 213.866 629.533 213.866H627.924C627.034 213.866 626.314 213.145 626.314 212.256V196.158Z" fill="black"/>
<path d="M610.215 205.012C610.215 204.123 610.936 203.402 611.825 203.402H613.435C614.324 203.402 615.045 204.123 615.045 205.012V212.256C615.045 213.145 614.324 213.866 613.435 213.866H611.825C610.936 213.866 610.215 213.145 610.215 212.256V205.012Z" fill="black"/>
<path d="M602.166 209.036C602.166 208.147 602.887 207.427 603.776 207.427H605.386C606.275 207.427 606.996 208.147 606.996 209.036V212.256C606.996 213.145 606.275 213.866 605.386 213.866H603.776C602.887 213.866 602.166 213.145 602.166 212.256V209.036Z" fill="black"/>
</g>
<path d="M211.535 1191.28V1214.16H207.942V1191.28H211.535ZM189.7 1201.26C189.7 1204.12 191.758 1206.04 194.548 1206.04C197.304 1206.04 199.396 1204.12 199.396 1201.26C199.396 1198.36 197.304 1196.48 194.548 1196.48C191.758 1196.48 189.7 1198.36 189.7 1201.26ZM202.884 1201.26C202.884 1205.83 199.292 1209.14 194.548 1209.14C189.805 1209.14 186.177 1205.83 186.177 1201.26C186.177 1196.65 189.805 1193.38 194.548 1193.38C199.292 1193.38 202.884 1196.65 202.884 1201.26ZM194.583 1219.26H212.441V1222.19H190.956V1211.86H194.583V1219.26ZM234.378 1200.74H240.168V1191.32H243.761V1214.72H240.168V1203.7H234.378V1200.74ZM236.401 1207.78L234.657 1210.61C231.099 1209.49 228.448 1207.19 227.053 1204.22C225.658 1207.43 223.042 1209.94 219.38 1211.16L217.601 1208.37C222.449 1206.74 225.17 1202.9 225.17 1198.75V1198.15H218.543V1195.26H225.17V1191.46H228.797V1195.26H235.39V1198.15H228.762V1198.75C228.762 1202.62 231.553 1206.28 236.401 1207.78ZM226.949 1219.26H244.563V1222.19H223.356V1212.7H226.949V1219.26ZM254.326 1197.95V1212.32C257.954 1212.28 260.814 1212.11 264.058 1211.44L264.372 1214.41C260.57 1215.14 257.326 1215.28 252.896 1215.28H250.804V1195.02H262.453V1197.95H254.326ZM273.196 1191.25H276.615V1222.74H273.196V1206.63H269.464V1221.21H266.081V1191.91H269.464V1203.7H273.196V1191.25Z" fill="#5B5B5B"/>
<path d="M294.548 1194.28H309.965C309.965 1204.12 306.651 1212.14 295.245 1217.65L292.839 1214.03C301.035 1210.08 304.593 1205.06 305.256 1197.95H294.548V1194.28ZM314.883 1190.93H319.522V1223.06H314.883V1190.93ZM352.445 1200.42L350.806 1203.94C345.33 1203.21 341.389 1200.88 339.365 1197.74C337.342 1200.88 333.401 1203.21 327.925 1203.94L326.251 1200.42C333.471 1199.52 336.994 1195.78 336.994 1192.36V1191.42H341.737V1192.36C341.737 1195.75 345.26 1199.52 352.445 1200.42ZM353.875 1209.28H341.633V1212.39H350.387V1223.13H345.783V1215.98H328.064V1212.39H337.029V1209.28H324.856V1205.62H353.875V1209.28ZM368.766 1193.45V1198.12C368.766 1203.91 371.034 1209.73 376.196 1212.28L373.405 1215.91C370.057 1214.2 367.79 1211.1 366.464 1207.26C365.069 1211.34 362.662 1214.72 359.035 1216.5L356.279 1212.77C361.686 1210.22 364.127 1204.08 364.127 1198.12V1193.45H368.766ZM386.764 1203.32V1207.15H382.09V1223.09H377.486V1190.97H382.09V1203.32H386.764ZM423.614 1190.97V1207.05H418.975V1190.97H423.614ZM401.849 1199.24C401.849 1201.54 403.628 1202.86 406 1202.86C408.372 1202.86 410.081 1201.54 410.081 1199.24C410.081 1196.97 408.372 1195.61 406 1195.61C403.628 1195.61 401.849 1196.97 401.849 1199.24ZM414.545 1199.24C414.545 1203.53 410.883 1206.6 406 1206.6C401.082 1206.6 397.385 1203.53 397.385 1199.24C397.385 1194.98 401.082 1191.91 406 1191.91C410.883 1191.91 414.545 1194.98 414.545 1199.24ZM406.802 1219.15H424.416V1222.74H402.233V1213.85H419.045V1211.9H402.198V1208.37H423.614V1217.13H406.802V1219.15ZM446.458 1198.71H451.271V1190.97H455.875V1210.08H451.271V1202.44H446.458V1198.71ZM448.376 1205.62L446.144 1209.21C442.656 1208.06 440.249 1205.79 438.854 1202.97C437.459 1206.21 434.912 1208.83 431.18 1210.08L428.843 1206.46C433.936 1204.68 436.273 1200.6 436.412 1196.59H430.099V1192.89H447.364V1196.59H441.121C441.26 1200.25 443.493 1204.01 448.376 1205.62ZM445.027 1219.64C449.213 1219.64 451.41 1218.77 451.41 1216.95C451.41 1215.14 449.213 1214.27 445.027 1214.27C440.807 1214.27 438.61 1215.14 438.61 1216.95C438.61 1218.77 440.807 1219.64 445.027 1219.64ZM445.027 1210.78C451.829 1210.78 456.015 1213.05 456.015 1216.95C456.015 1220.86 451.829 1223.13 445.027 1223.13C438.191 1223.13 434.005 1220.86 434.005 1216.95C434.005 1213.05 438.191 1210.78 445.027 1210.78Z" fill="#71A1FE"/>
<path d="M193.955 1264.59C196.676 1264.59 198.594 1261.63 198.594 1256.71C198.594 1251.79 196.676 1248.83 193.955 1248.83C191.2 1248.83 189.316 1251.79 189.316 1256.71C189.316 1261.63 191.2 1264.59 193.955 1264.59ZM193.955 1245.59C198.664 1245.59 202.047 1249.91 202.047 1256.71C202.047 1263.51 198.664 1267.8 193.955 1267.8C189.246 1267.8 185.863 1263.51 185.863 1256.71C185.863 1249.91 189.246 1245.59 193.955 1245.59ZM214.883 1255.6V1258.56H209.965V1274.81H206.372V1243.28H209.965V1255.6H214.883ZM239.959 1243.25H243.586V1274.85H239.959V1243.25ZM226.809 1245.59C231.518 1245.59 234.936 1249.91 234.936 1256.68C234.936 1263.51 231.518 1267.8 226.809 1267.8C222.135 1267.8 218.717 1263.51 218.717 1256.68C218.717 1249.91 222.135 1245.59 226.809 1245.59ZM226.809 1248.83C224.089 1248.83 222.17 1251.79 222.17 1256.68C222.17 1261.63 224.089 1264.59 226.809 1264.59C229.565 1264.59 231.483 1261.63 231.483 1256.68C231.483 1251.79 229.565 1248.83 226.809 1248.83ZM256.698 1266.58V1271.54H271.278V1266.58H256.698ZM253.141 1274.4V1263.72H274.836V1274.4H253.141ZM265.732 1258.14H278.254V1261.07H249.792V1258.14H262.14V1255.04H253.315V1244.5H274.766V1247.4H256.873V1252.14H275.045V1255.04H265.732V1258.14ZM288.924 1264.7C291.087 1264.7 292.412 1261.87 292.412 1256.89C292.412 1251.9 291.087 1249.11 288.924 1249.11C286.762 1249.11 285.436 1251.9 285.436 1256.89C285.436 1261.87 286.762 1264.7 288.924 1264.7ZM299.005 1255.21V1243.88H302.353V1273.28H299.005V1258.18H295.656C295.342 1264.32 292.761 1268.08 288.924 1268.08C284.843 1268.08 282.158 1263.79 282.158 1256.89C282.158 1249.98 284.843 1245.73 288.924 1245.73C292.691 1245.73 295.238 1249.32 295.621 1255.21H299.005ZM305.318 1243.28H308.736V1274.74H305.318V1243.28ZM325.336 1245.83V1251.03C325.336 1256.89 328.336 1262.61 333.149 1264.84L331.021 1267.73C327.464 1265.96 324.918 1262.5 323.557 1258.28C322.162 1262.75 319.581 1266.41 315.988 1268.26L313.721 1265.4C318.639 1262.99 321.709 1256.92 321.709 1251.03V1245.83H325.336ZM336.463 1243.21H340.09V1274.81H336.463V1256.5H329.731V1253.57H336.463V1243.21ZM372.372 1245.93V1248.55H354.374V1245.93H361.595V1243H365.222V1245.93H372.372ZM359.258 1254.24C359.258 1255.63 360.862 1256.47 363.373 1256.47C365.885 1256.47 367.489 1255.63 367.489 1254.24C367.489 1252.81 365.885 1251.93 363.373 1251.93C360.862 1251.93 359.258 1252.81 359.258 1254.24ZM373.244 1260.03L373.523 1262.54C366.861 1263.72 359.502 1263.76 353.991 1263.79L353.572 1260.93C355.944 1260.93 358.7 1260.93 361.595 1260.86V1258.77C358.037 1258.39 355.874 1256.71 355.874 1254.24C355.874 1251.31 358.839 1249.53 363.373 1249.53C367.908 1249.53 370.873 1251.31 370.873 1254.24C370.873 1256.71 368.71 1258.35 365.222 1258.77V1260.72C367.943 1260.58 370.698 1260.41 373.244 1260.03ZM357.479 1268.85V1265.99H378.511V1274.81H374.919V1268.85H357.479ZM382.836 1252.6V1255.56H378.511V1264.59H374.919V1243.32H378.511V1252.6H382.836ZM411.888 1243.28V1266.16H408.296V1243.28H411.888ZM390.054 1253.26C390.054 1256.12 392.112 1258.04 394.902 1258.04C397.657 1258.04 399.75 1256.12 399.75 1253.26C399.75 1250.36 397.657 1248.48 394.902 1248.48C392.112 1248.48 390.054 1250.36 390.054 1253.26ZM403.238 1253.26C403.238 1257.83 399.646 1261.14 394.902 1261.14C390.158 1261.14 386.531 1257.83 386.531 1253.26C386.531 1248.65 390.158 1245.38 394.902 1245.38C399.646 1245.38 403.238 1248.65 403.238 1253.26ZM394.937 1271.26H412.795V1274.19H391.309V1263.86H394.937V1271.26ZM425.698 1264.73C427.826 1264.73 429.325 1263.03 429.325 1260.41C429.325 1257.79 427.826 1256.05 425.698 1256.05C423.57 1256.05 422.07 1257.79 422.07 1260.41C422.07 1263.03 423.57 1264.73 425.698 1264.73ZM425.698 1253.08C429.674 1253.08 432.534 1256.05 432.534 1260.41C432.534 1264.73 429.674 1267.73 425.698 1267.73C421.722 1267.73 418.862 1264.73 418.862 1260.41C418.862 1256.05 421.722 1253.08 425.698 1253.08ZM427.477 1244.19V1248.41H433.372V1251.31H417.955V1248.41H423.919V1244.19H427.477ZM441.429 1243.28H444.847V1274.78H441.429V1259.29H438.08V1273.31H434.732V1243.95H438.08V1256.33H441.429V1243.28ZM460.366 1261.14V1267.98H468.318V1261.11C467.097 1261.42 465.737 1261.56 464.342 1261.56C462.947 1261.56 461.586 1261.42 460.366 1261.14ZM464.342 1247.92C459.563 1247.92 456.25 1250.02 456.25 1253.33C456.25 1256.68 459.563 1258.77 464.342 1258.77C469.086 1258.77 472.399 1256.68 472.399 1253.33C472.399 1250.02 469.086 1247.92 464.342 1247.92ZM471.911 1267.98H478.643V1270.91H450.111V1267.98H456.773V1259.78C454.262 1258.39 452.762 1256.12 452.762 1253.33C452.762 1248.31 457.61 1245.1 464.342 1245.1C471.039 1245.1 475.922 1248.31 475.922 1253.33C475.922 1256.12 474.422 1258.35 471.911 1259.78V1267.98ZM485.616 1272.55C484.116 1272.55 482.93 1271.4 482.93 1269.76C482.93 1268.12 484.116 1266.9 485.616 1266.9C487.116 1266.9 488.302 1268.12 488.302 1269.76C488.302 1271.4 487.116 1272.55 485.616 1272.55Z" fill="#5B5B5B"/>
<path d="M500.686 1276.09V1260.61H505.813C508.994 1260.61 511.422 1261.53 511.422 1264.42C511.422 1265.84 510.626 1267.3 509.308 1267.76V1267.87C510.982 1268.27 512.217 1269.44 512.217 1271.53C512.217 1274.65 509.622 1276.09 506.211 1276.09H500.686ZM503.783 1266.91H505.583C507.55 1266.91 508.408 1266.11 508.408 1264.88C508.408 1263.52 507.487 1262.97 505.625 1262.97H503.783V1266.91ZM503.783 1273.71H505.938C508.052 1273.71 509.203 1272.95 509.203 1271.34C509.203 1269.84 508.073 1269.21 505.938 1269.21H503.783V1273.71ZM519.765 1276.39C516.5 1276.39 513.947 1274.11 513.947 1270.26C513.947 1266.45 516.605 1264.08 519.409 1264.08C522.632 1264.08 524.306 1266.45 524.306 1269.69C524.306 1270.26 524.243 1270.82 524.16 1271.09H516.939C517.191 1273.02 518.446 1274.02 520.183 1274.02C521.146 1274.02 521.983 1273.73 522.82 1273.21L523.867 1275.09C522.716 1275.88 521.23 1276.39 519.765 1276.39ZM516.898 1269.06H521.669C521.669 1267.47 520.958 1266.47 519.451 1266.47C518.216 1266.47 517.128 1267.35 516.898 1269.06ZM530.884 1276.39C528.101 1276.39 527.034 1274.63 527.034 1271.99V1266.8H525.38V1264.52L527.18 1264.37L527.536 1261.24H530.11V1264.37H532.998V1266.8H530.11V1271.99C530.11 1273.33 530.654 1273.96 531.701 1273.96C532.077 1273.96 532.538 1273.83 532.852 1273.71L533.354 1275.95C532.726 1276.16 531.91 1276.39 530.884 1276.39ZM537.78 1276.39C535.687 1276.39 534.306 1274.9 534.306 1272.91C534.306 1270.4 536.336 1269.08 541.045 1268.58C541.003 1267.43 540.5 1266.55 539.056 1266.55C537.968 1266.55 536.922 1267.03 535.834 1267.66L534.724 1265.63C536.106 1264.77 537.78 1264.08 539.621 1264.08C542.593 1264.08 544.121 1265.86 544.121 1269.25V1276.09H541.61L541.379 1274.84H541.317C540.291 1275.72 539.119 1276.39 537.78 1276.39ZM538.784 1273.98C539.663 1273.98 540.312 1273.56 541.045 1272.83V1270.46C538.198 1270.84 537.236 1271.62 537.236 1272.66C537.236 1273.58 537.884 1273.98 538.784 1273.98Z" fill="#E3E1EC"/>
</g>
<rect x="141.608" y="162.01" width="628.517" height="2035.91" rx="45.8592" stroke="black" stroke-opacity="0.17" stroke-width="0.682428" shape-rendering="crispEdges"/>
</g>
<path d="M876.266 672.857V686.69H881.577V668.129H888.581V718.033H881.577V692.644H876.266V707.119H855.137V672.857H876.266ZM862.082 701.282H869.32V678.752H862.082V701.282ZM892.55 720.485V667.37H899.671V720.485H892.55ZM947.509 667.429V705.601H940.038V667.429H947.509ZM903.85 684.18C903.85 676.388 910.212 670.785 918.384 670.814C926.526 670.785 932.888 676.388 932.917 684.18C932.888 692.089 926.526 697.663 918.384 697.663C910.212 697.663 903.85 692.089 903.85 684.18ZM911.146 684.18C911.088 688.616 914.21 691.184 918.384 691.184C922.411 691.184 925.534 688.616 925.563 684.18C925.534 679.861 922.411 677.264 918.384 677.293C914.21 677.264 911.088 679.861 911.146 684.18ZM911.905 719.551V701.749H919.434V713.597H948.91V719.551H911.905ZM1010.44 667.37V720.485H1003.26V667.37H1010.44ZM963.397 702.216H967.832V679.394H964.389V673.382H988.728V679.394H985.343V701.486C986.831 701.34 988.261 701.194 989.604 700.99L990.129 706.36C981.724 708.14 970.868 708.344 964.214 708.344L963.397 702.216ZM974.428 702.099C975.8 702.07 977.171 702.012 978.572 701.953V679.394H974.428V702.099ZM987.502 693.344V686.69H992.639V668.421H999.701V717.975H992.639V693.344H987.502ZM1057.87 667.37V720.602H1050.34V667.37H1057.87ZM1014.97 690.017C1014.94 678.431 1020.87 671.106 1029.04 671.106C1037.03 671.106 1042.99 678.431 1042.99 690.017C1042.99 701.69 1037.03 708.986 1029.04 708.986C1020.87 708.986 1014.94 701.69 1014.97 690.017ZM1022.15 690.017C1022.12 697.926 1024.89 702.245 1029.04 702.216C1033.06 702.245 1035.78 697.926 1035.81 690.017C1035.78 682.137 1033.06 677.818 1029.04 677.818C1024.89 677.818 1022.12 682.137 1022.15 690.017ZM1083.41 681.846C1083.38 690.426 1087.82 699.618 1096.72 703.325L1092.69 709.162C1086.45 706.506 1082.13 701.224 1079.73 694.803C1077.34 701.778 1072.93 707.615 1066.66 710.504L1062.4 704.609C1071.21 700.669 1075.77 690.834 1075.77 681.846V678.577H1064.5V672.507H1094.5V678.577H1083.41V681.846ZM1099.75 720.485V667.37H1107.28V720.485H1099.75Z" fill="#71A1FE"/>
<path d="M897.541 758.526V810.823H891.938V758.526H897.541ZM854.583 796.815C868.475 790.19 875.274 780.764 876.354 768.565H857.093V764.129H881.957C881.957 779.451 875.449 792.7 857.501 801.309L854.583 796.815ZM930.146 761.444C930.175 767.69 938.521 773.614 948.59 774.986L946.43 779.305C938.054 778.021 930.7 773.964 927.344 768.303C923.959 773.964 916.575 778.021 908.199 779.305L906.098 774.986C916.137 773.614 924.455 767.748 924.484 761.444V759.226H930.146V761.444ZM903.472 787.476V782.982H951.158V787.476H930.029V793.663H945.321V810.823H939.718V798.099H908.783V793.663H924.542V787.476H903.472ZM971.038 771.834C970.979 781.085 976.378 790.57 984.17 794.364L980.727 798.8C975.036 795.823 970.629 789.986 968.324 783.011C965.989 790.424 961.407 796.698 955.454 799.792L952.01 795.298C960.035 791.445 965.464 781.406 965.493 771.834V762.904H971.038V771.834ZM988.081 810.823V758.526H993.626V779.363H1002.03V784.091H993.626V810.823H988.081ZM1029.48 760.277C1037.35 760.335 1043.16 765.151 1043.19 772.009C1043.16 778.896 1037.35 783.682 1029.48 783.682C1021.51 783.682 1015.73 778.896 1015.7 772.009C1015.73 765.151 1021.51 760.335 1029.48 760.277ZM1021.13 772.009C1021.1 776.328 1024.66 779.188 1029.48 779.188C1034.26 779.188 1037.82 776.328 1037.82 772.009C1037.82 767.748 1034.26 764.888 1029.48 764.946C1024.66 764.888 1021.1 767.748 1021.13 772.009ZM1023.64 791.971V787.535H1058.02V800.726H1029.18V805.745H1059.77V810.181H1023.81V796.582H1052.53V791.971H1023.64ZM1052.47 785.142V758.526H1058.02V785.142H1052.47ZM1107.66 758.526V789.636H1102.12V776.387H1092.37V771.834H1102.12V758.526H1107.66ZM1064.06 784.908C1072.18 782.077 1077.17 775.015 1077.14 767.806V766.639H1065.81V762.145H1094.01V766.639H1082.8V767.748C1082.77 774.373 1087.5 780.822 1095.41 783.507L1092.55 787.885C1086.68 785.871 1082.36 781.669 1080.09 776.503C1077.81 782.34 1073.23 787.039 1066.98 789.344L1064.06 784.908ZM1072.47 800.959C1072.44 794.743 1079.15 791.124 1090.15 791.095C1101.1 791.124 1107.81 794.743 1107.84 800.959C1107.81 807.175 1101.1 810.794 1090.15 810.823C1079.15 810.794 1072.44 807.175 1072.47 800.959ZM1077.96 800.959C1077.93 804.49 1082.48 806.504 1090.15 806.446C1097.77 806.504 1102.32 804.49 1102.35 800.959C1102.32 797.399 1097.77 795.385 1090.15 795.414C1082.48 795.385 1077.93 797.399 1077.96 800.959ZM1166.92 758.526V769.441H1174.51V774.052H1166.92V784.967H1161.37V758.526H1166.92ZM1126.65 772.009C1126.59 765.092 1132.45 760.365 1140.36 760.335C1148.3 760.365 1154.08 765.092 1154.08 772.009C1154.08 778.867 1148.3 783.682 1140.36 783.682C1132.45 783.682 1126.59 778.867 1126.65 772.009ZM1132.02 772.009C1131.99 776.27 1135.55 779.247 1140.36 779.247C1145.18 779.247 1148.71 776.27 1148.71 772.009C1148.71 767.748 1145.18 764.859 1140.36 764.888C1135.55 764.859 1131.99 767.748 1132.02 772.009ZM1133.12 791.679V787.36H1166.92V800.609H1138.67V805.745H1168.73V810.181H1133.24V796.465H1161.43V791.679H1133.12ZM1218.61 758.584V789.578H1213.06V758.584H1218.61ZM1177.87 766.114V761.678H1201.92V776.387H1183.41V782.69C1192.58 782.69 1199.26 782.428 1207.23 781.114L1207.93 785.667C1199.38 786.98 1192.26 787.272 1182.36 787.243H1177.99V772.067H1196.43V766.114H1177.87ZM1184.23 810.181V792.204H1218.61V810.181H1184.23ZM1189.72 805.687H1213.18V796.64H1189.72V805.687ZM1265.75 758.526V770.9H1273.33V775.511H1265.75V789.052H1260.2V758.526H1265.75ZM1226.7 786.017V761.503H1232.13V769.091H1245.84V761.503H1251.33V786.017H1226.7ZM1232.13 781.64H1245.84V773.468H1232.13V781.64ZM1232.42 810.065V791.796H1266.16V796.231H1237.96V805.687H1267.09V810.065H1232.42ZM1317.55 758.526V810.823H1311.95V758.526H1317.55ZM1274.6 796.815C1288.49 790.19 1295.29 780.764 1296.37 768.565H1277.1V764.129H1301.97C1301.97 779.451 1295.46 792.7 1277.51 801.309L1274.6 796.815Z" fill="#5B5B5B"/>
</g>
<defs>
<filter id="filter0_d_4202_13921" x="55.3504" y="161.669" width="756.207" height="2168.08" filterUnits="userSpaceOnUse" color-interpolation-filters="sRGB">
<feFlood flood-opacity="0" result="BackgroundImageFix"/>
<feColorMatrix in="SourceAlpha" type="matrix" values="0 0 0 0 0 0 0 0 0 0 0 0 0 0 0 0 0 0 127 0" result="hardAlpha"/>
<feOffset dx="-22.4131" dy="67.9864"/>
<feGaussianBlur stdDeviation="31.7519"/>
<feComposite in2="hardAlpha" operator="out"/>
<feColorMatrix type="matrix" values="0 0 0 0 0 0 0 0 0 0 0 0 0 0 0 0 0 0 0.13 0"/>
<feBlend mode="normal" in2="BackgroundImageFix" result="effect1_dropShadow_4202_13921"/>
<feBlend mode="normal" in="SourceGraphic" in2="effect1_dropShadow_4202_13921" result="shape"/>
</filter>
<filter id="filter1_d_4202_13921" x="173.341" y="664.619" width="566.477" height="111.759" filterUnits="userSpaceOnUse" color-interpolation-filters="sRGB">
<feFlood flood-opacity="0" result="BackgroundImageFix"/>
<feColorMatrix in="SourceAlpha" type="matrix" values="0 0 0 0 0 0 0 0 0 0 0 0 0 0 0 0 0 0 127 0" result="hardAlpha"/>
<feOffset dy="6.97594"/>
<feGaussianBlur stdDeviation="5.23195"/>
<feComposite in2="hardAlpha" operator="out"/>
<feColorMatrix type="matrix" values="0 0 0 0 0 0 0 0 0 0 0 0 0 0 0 0 0 0 0.21 0"/>
<feBlend mode="normal" in2="BackgroundImageFix" result="effect1_dropShadow_4202_13921"/>
<feBlend mode="normal" in="SourceGraphic" in2="effect1_dropShadow_4202_13921" result="shape"/>
</filter>
<filter id="filter2_d_4202_13921" x="176.829" y="866.669" width="254.622" height="244.158" filterUnits="userSpaceOnUse" color-interpolation-filters="sRGB">
<feFlood flood-opacity="0" result="BackgroundImageFix"/>
<feColorMatrix in="SourceAlpha" type="matrix" values="0 0 0 0 0 0 0 0 0 0 0 0 0 0 0 0 0 0 127 0" result="hardAlpha"/>
<feOffset dy="1.74398"/>
<feGaussianBlur stdDeviation="3.48797"/>
<feComposite in2="hardAlpha" operator="out"/>
<feColorMatrix type="matrix" values="0 0 0 0 0 0 0 0 0 0 0 0 0 0 0 0 0 0 0.11 0"/>
<feBlend mode="normal" in2="BackgroundImageFix" result="effect1_dropShadow_4202_13921"/>
<feBlend mode="normal" in="SourceGraphic" in2="effect1_dropShadow_4202_13921" result="shape"/>
</filter>
<filter id="filter3_d_4202_13921" x="431.451" y="866.669" width="254.622" height="244.158" filterUnits="userSpaceOnUse" color-interpolation-filters="sRGB">
<feFlood flood-opacity="0" result="BackgroundImageFix"/>
<feColorMatrix in="SourceAlpha" type="matrix" values="0 0 0 0 0 0 0 0 0 0 0 0 0 0 0 0 0 0 127 0" result="hardAlpha"/>
<feOffset dy="1.74398"/>
<feGaussianBlur stdDeviation="3.48797"/>
<feComposite in2="hardAlpha" operator="out"/>
<feColorMatrix type="matrix" values="0 0 0 0 0 0 0 0 0 0 0 0 0 0 0 0 0 0 0.11 0"/>
<feBlend mode="normal" in2="BackgroundImageFix" result="effect1_dropShadow_4202_13921"/>
<feBlend mode="normal" in="SourceGraphic" in2="effect1_dropShadow_4202_13921" result="shape"/>
</filter>
<filter id="filter4_d_4202_13921" x="686.073" y="866.669" width="254.622" height="244.158" filterUnits="userSpaceOnUse" color-interpolation-filters="sRGB">
<feFlood flood-opacity="0" result="BackgroundImageFix"/>
<feColorMatrix in="SourceAlpha" type="matrix" values="0 0 0 0 0 0 0 0 0 0 0 0 0 0 0 0 0 0 127 0" result="hardAlpha"/>
<feOffset dy="1.74398"/>
<feGaussianBlur stdDeviation="3.48797"/>
<feComposite in2="hardAlpha" operator="out"/>
<feColorMatrix type="matrix" values="0 0 0 0 0 0 0 0 0 0 0 0 0 0 0 0 0 0 0.11 0"/>
<feBlend mode="normal" in2="BackgroundImageFix" result="effect1_dropShadow_4202_13921"/>
<feBlend mode="normal" in="SourceGraphic" in2="effect1_dropShadow_4202_13921" result="shape"/>
</filter>
<clipPath id="clip0_4202_13921">
<rect width="1477.02" height="1477.02" fill="white" transform="translate(0 0.97702)"/>
</clipPath>
<clipPath id="clip1_4202_13921">
<rect x="141.95" y="162.351" width="627.834" height="2035.23" rx="45.518" fill="white"/>
</clipPath>
<clipPath id="clip2_4202_13921">
<rect width="627.834" height="75.6621" fill="white" transform="translate(141.95 162.351)"/>
</clipPath>
</defs>
</svg>
