<svg width="1478" height="1478" viewBox="0 0 1478 1478" fill="none" xmlns="http://www.w3.org/2000/svg">
<g clip-path="url(#clip0_4202_13922)">
<rect width="1477.02" height="1477.02" transform="translate(0.896973 0.5)" fill="#F6FCFF"/>
<g filter="url(#filter0_d_4202_13922)">
<g clip-path="url(#clip1_4202_13922)">
<rect x="142.847" y="162" width="627.834" height="1339.38" rx="45.4839" fill="white" shape-rendering="crispEdges"/>
<path d="M196.654 271.399V270.354H186.608V268.345H199.266V273.267H189.26V274.332H199.627V276.321H186.649V271.399H196.654ZM196.774 284.217V282.65H189.281V284.217H196.774ZM201.315 279.355H194.263V280.56H199.366V286.286H186.669V280.56H191.611V279.355H184.559V277.265H201.315V279.355ZM208.405 279.817V271.981H206.035V279.817H208.405ZM212.644 274.714V268.285H215.116V285.663H212.644V276.864H210.856V281.886H203.563V269.892H210.856V274.714H212.644ZM216.401 267.983H218.913V286.487H216.401V267.983ZM234.2 267.983H236.852V286.547H234.2V267.983ZM226.907 269.289C229.7 269.289 231.769 271.821 231.769 275.879C231.769 279.957 229.7 282.509 226.907 282.509C224.115 282.509 222.045 279.957 222.045 275.879C222.045 271.821 224.115 269.289 226.907 269.289ZM226.907 271.68C225.541 271.68 224.597 273.147 224.597 275.879C224.597 278.631 225.541 280.098 226.907 280.098C228.273 280.098 229.218 278.631 229.218 275.879C229.218 273.147 228.273 271.68 226.907 271.68ZM254.972 277.547V279.636H241.974V269.35H254.832V271.479H244.666V273.428H254.41V275.477H244.666V277.547H254.972ZM240.005 282.228H256.76V284.377H240.005V282.228ZM266.032 271.981V279.817H268.403V271.981H266.032ZM263.561 281.886V269.892H270.854V281.886H263.561ZM276.399 267.983H278.91V286.487H276.399V277.185H274.852V285.663H272.381V268.285H274.852V275.055H276.399V267.983ZM296.89 268.004V279.154H294.218V268.004H296.89ZM293.073 276.522L291.867 278.591C289.758 278.029 288.291 276.864 287.427 275.337C286.603 277.044 285.117 278.37 282.927 278.993L281.681 276.924C284.594 276.1 285.94 274.071 286.041 272.022H282.304V269.932H286.041V268.024H288.693V269.932H292.41V272.022H288.693C288.813 273.89 290.179 275.779 293.073 276.522ZM290.642 284.478C293.032 284.478 294.318 284.016 294.318 282.991C294.318 281.987 293.032 281.504 290.642 281.504C288.231 281.504 286.945 281.987 286.945 282.991C286.945 284.016 288.231 284.478 290.642 284.478ZM290.642 279.475C294.539 279.475 296.95 280.781 296.95 282.991C296.95 285.241 294.539 286.507 290.642 286.507C286.724 286.507 284.313 285.241 284.313 282.991C284.313 280.781 286.724 279.475 290.642 279.475ZM308.36 270.213C305.688 270.213 304.422 270.595 304.422 271.419C304.422 272.283 305.688 272.644 308.36 272.644C311.052 272.644 312.318 272.283 312.318 271.419C312.318 270.595 311.052 270.213 308.36 270.213ZM308.36 274.573C304.141 274.573 301.67 273.468 301.67 271.419C301.67 269.39 304.141 268.265 308.36 268.265C312.599 268.265 315.07 269.39 315.07 271.419C315.07 273.468 312.599 274.573 308.36 274.573ZM304.563 283.333V284.377H315.171V286.366H301.931V281.504H312.077V280.52H301.911V278.571H314.689V283.333H304.563ZM300.002 275.457H316.718V277.526H300.002V275.457ZM329.043 270.897C327.697 270.897 326.733 271.539 326.733 272.705C326.733 273.83 327.697 274.473 329.043 274.473C330.409 274.473 331.353 273.83 331.353 272.705C331.353 271.539 330.409 270.897 329.043 270.897ZM329.043 276.643C326.25 276.643 324.181 274.995 324.181 272.705C324.181 270.374 326.25 268.747 329.043 268.747C331.836 268.747 333.885 270.374 333.885 272.705C333.885 274.995 331.836 276.643 329.043 276.643ZM334.829 277.105L334.99 279.033C333.503 279.335 331.956 279.515 330.449 279.656V285.944H327.797V279.817C326.21 279.877 324.703 279.897 323.398 279.897L323.096 277.727C326.331 277.727 330.911 277.687 334.829 277.105ZM335.874 268.004H338.526V286.487H335.874V268.004ZM352.427 269.952L352.407 272.022H341.518V269.952H345.616V267.983H348.288V269.952H352.427ZM344.953 276.241C344.953 277.265 345.777 277.808 346.962 277.808C348.128 277.808 348.971 277.265 348.971 276.241C348.971 275.236 348.128 274.694 346.962 274.694C345.777 274.694 344.953 275.236 344.953 276.241ZM351.503 276.241C351.503 278.37 349.614 279.817 346.962 279.817C344.31 279.817 342.422 278.37 342.422 276.241C342.422 274.151 344.31 272.685 346.962 272.685C349.614 272.685 351.503 274.151 351.503 276.241ZM346.802 280.821V284.076H356.747V286.186H344.15V280.821H346.802ZM356.084 273.649H358.535V275.839H356.084V281.846H353.432V268.004H356.084V273.649ZM365.576 269.912H374.456C374.456 275.578 372.548 280.199 365.978 283.373L364.592 281.283C369.313 279.013 371.362 276.12 371.744 272.022H365.576V269.912ZM377.289 267.983H379.961V286.487H377.289V267.983ZM387.714 280.962V284.076H397.9V286.186H385.062V280.962H387.714ZM387.795 272.524V274.131H395.007V272.524H387.795ZM392.697 277.768H399.769V279.877H383.033V277.768H390.045V276.221H385.163V268.666H387.795V270.475H395.007V268.666H397.639V276.221H392.697V277.768ZM411.561 272.464H414.333V268.004H416.985V279.013H414.333V274.613H411.561V272.464ZM412.665 276.442L411.38 278.511C409.371 277.848 407.984 276.542 407.181 274.915C406.377 276.783 404.91 278.29 402.761 279.013L401.415 276.924C404.348 275.899 405.694 273.549 405.774 271.238H402.138V269.108H412.083V271.238H408.487C408.567 273.348 409.853 275.517 412.665 276.442ZM410.737 284.518C413.148 284.518 414.413 284.016 414.413 282.971C414.413 281.926 413.148 281.424 410.737 281.424C408.306 281.424 407.04 281.926 407.04 282.971C407.04 284.016 408.306 284.518 410.737 284.518ZM410.737 279.415C414.654 279.415 417.065 280.721 417.065 282.971C417.065 285.221 414.654 286.527 410.737 286.527C406.799 286.527 404.388 285.221 404.388 282.971C404.388 280.721 406.799 279.415 410.737 279.415ZM424.397 274.111V276.703H432.313V274.111H424.397ZM429.681 282.208H436.753V284.357H419.997V282.208H427.029V278.812H421.765V269.149H424.397V272.022H432.313V269.149H434.924V278.812H429.681V282.208ZM450.574 271.017V270.113H440.528V268.325H453.185V272.685H443.18V273.649H453.507V275.437H440.568V271.017H450.574ZM443.019 283.554V284.558H453.748V286.346H440.388V281.886H450.614V280.942H440.367V279.154H453.246V283.554H443.019ZM438.479 276.321H455.235V278.23H438.479V276.321ZM464.205 272.725C464.205 274.031 465.189 274.814 466.575 274.814C467.962 274.814 468.946 274.031 468.946 272.725C468.946 271.439 467.962 270.655 466.575 270.655C465.189 270.655 464.205 271.439 464.205 272.725ZM471.498 272.725C471.498 275.196 469.408 276.944 466.575 276.944C463.763 276.944 461.653 275.196 461.653 272.725C461.653 270.294 463.763 268.526 466.575 268.526C469.408 268.526 471.498 270.294 471.498 272.725ZM466.515 283.031V284.237H476.621V286.286H463.883V281.123H473.467V280.018H463.863V277.968H476.078V283.031H466.515ZM476.078 271.56H478.509V273.729H476.078V277.245H473.426V268.004H476.078V271.56ZM483.249 276.703V280.239C485.479 280.219 487.468 280.118 489.779 279.777L489.979 281.946C487.247 282.368 484.897 282.429 482.124 282.429H480.637V274.613H486.243V271.66H480.597V269.55H488.854V276.703H483.249ZM492.812 267.983H495.484V286.547H492.812V279.073H489.738V276.944H492.812V274.051H489.779V271.921H492.812V267.983ZM500.244 277.165L499.28 275.096C503.057 274.633 505.026 272.825 505.287 271.057H499.963V268.948H513.685V271.057H508.441C508.702 272.825 510.651 274.633 514.408 275.096L513.464 277.165C510.229 276.723 507.959 275.337 506.854 273.448C505.749 275.337 503.479 276.723 500.244 277.165ZM515.212 278.23V280.339H508.12V286.547H505.468V280.339H498.496V278.23H515.212ZM522.865 269.611V272.624C522.865 275.618 523.668 278.692 526.18 280.359L524.733 282.409C523.166 281.444 522.182 279.877 521.599 278.009C520.956 280.058 519.871 281.826 518.204 282.83L516.617 280.841C519.329 279.194 520.313 275.879 520.313 272.725V269.611H522.865ZM526.562 274.252V268.305H529.033V285.683H526.562V276.401H524.231V274.252H526.562ZM530.318 268.004H532.83V286.507H530.318V268.004ZM541.769 278.672V282.208H545.847V278.672C545.204 278.792 544.521 278.852 543.798 278.852C543.075 278.852 542.412 278.792 541.769 278.672ZM543.798 270.997C541.226 270.997 539.518 272.042 539.518 273.89C539.518 275.718 541.226 276.783 543.798 276.783C546.369 276.783 548.097 275.718 548.097 273.89C548.097 272.042 546.369 270.997 543.798 270.997ZM548.479 282.208H552.196V284.357H535.44V282.208H539.137V277.687C537.73 276.823 536.887 275.497 536.907 273.89C536.907 270.856 539.82 268.908 543.798 268.908C547.796 268.908 550.709 270.856 550.709 273.89C550.709 275.497 549.865 276.823 548.479 277.687V282.208ZM555.81 279.716L555.389 272.303L555.288 269.51H558.262L558.161 272.303L557.739 279.716H555.81ZM556.775 285.061C555.73 285.061 554.947 284.217 554.947 283.132C554.947 282.027 555.73 281.203 556.775 281.203C557.82 281.203 558.623 282.027 558.623 283.132C558.623 284.217 557.82 285.061 556.775 285.061Z" fill="#9B9B9B"/>
<path d="M186.428 328.985H197.893C197.893 336.191 195 342.299 186.696 346.317L185.222 344.12C191.571 341.066 194.571 336.807 195.053 331.235H186.428V328.985ZM202.259 326.44H205.018V350.629H202.259V326.44ZM230.384 333.914L229.366 336.057C225.455 335.494 222.187 333.619 220.633 331.075C219.08 333.646 215.812 335.494 211.874 336.057L210.883 333.914C215.651 333.298 219.214 330.566 219.214 327.673V326.762H222.053V327.673C222.053 330.512 225.616 333.298 230.384 333.914ZM231.563 339.914H221.973V342.674H228.884V350.656H226.125V344.897H212.115V342.674H219.214V339.914H209.677V337.691H231.563V339.914ZM242.811 328.449V332.414C242.811 336.727 245.061 341.093 248.705 342.888L247.017 345.084C244.419 343.745 242.49 341.12 241.445 337.959C240.4 341.307 238.365 344.12 235.605 345.54L233.918 343.316C237.695 341.468 240.052 336.887 240.052 332.414V328.449H242.811ZM256.848 336.03V338.307H253.071V350.629H250.312V326.44H253.071V336.03H256.848Z" fill="black"/>
<path d="M215.847 411.355V409.128H219.621V397.127H216.527V395.416C218.144 395.111 219.293 394.713 220.277 394.103H222.317V409.128H225.692V411.355H215.847ZM232.846 394.221H242.878C242.878 400.526 240.346 405.87 233.08 409.386L231.791 407.464C237.346 404.792 239.971 401.065 240.393 396.189H232.846V394.221ZM246.698 391.994H249.112V413.159H246.698V391.994ZM270.303 398.533L269.412 400.408C265.99 399.916 263.13 398.276 261.771 396.049C260.412 398.299 257.552 399.916 254.106 400.408L253.239 398.533C257.411 397.994 260.529 395.603 260.529 393.072V392.275H263.013V393.072C263.013 395.557 266.131 397.994 270.303 398.533ZM271.334 403.784H262.943V406.198H268.99V413.183H266.576V408.143H254.317V406.198H260.529V403.784H252.184V401.838H271.334V403.784ZM280.172 393.752V397.221C280.172 400.994 282.141 404.815 285.329 406.385L283.852 408.307C281.579 407.136 279.891 404.838 278.977 402.073C278.063 405.003 276.281 407.464 273.867 408.706L272.39 406.76C275.695 405.143 277.758 401.135 277.758 397.221V393.752H280.172ZM292.454 400.385V402.377H289.149V413.159H286.735V391.994H289.149V400.385H292.454Z" fill="#9B9B9B"/>
<rect x="184.532" y="375.146" width="138.598" height="53.4165" rx="26.7082" stroke="#E3E1EC" stroke-width="1.67422"/>
<path d="M375.226 411.355V409.784C380.312 405.284 382.937 401.932 382.937 399.096C382.937 397.221 381.929 395.932 380.007 395.932C378.648 395.932 377.523 396.799 376.609 397.854L375.085 396.354C376.562 394.76 378.085 393.775 380.335 393.775C383.5 393.775 385.539 395.838 385.539 398.955C385.539 402.284 382.89 405.729 379.234 409.222C380.124 409.128 381.203 409.058 382.046 409.058H386.359V411.355H375.226ZM393.208 394.221H403.24C403.24 400.526 400.709 405.87 393.443 409.386L392.154 407.464C397.709 404.792 400.334 401.065 400.756 396.189H393.208V394.221ZM407.061 391.994H409.475V413.159H407.061V391.994ZM430.666 398.533L429.775 400.408C426.353 399.916 423.493 398.276 422.134 396.049C420.774 398.299 417.915 399.916 414.469 400.408L413.602 398.533C417.774 397.994 420.891 395.603 420.891 393.072V392.275H423.376V393.072C423.376 395.557 426.493 397.994 430.666 398.533ZM431.697 403.784H423.306V406.198H429.353V413.183H426.939V408.143H414.68V406.198H420.891V403.784H412.547V401.838H431.697V403.784ZM440.535 393.752V397.221C440.535 400.994 442.504 404.815 445.692 406.385L444.215 408.307C441.941 407.136 440.254 404.838 439.34 402.073C438.425 405.003 436.644 407.464 434.23 408.706L432.753 406.76C436.058 405.143 438.121 401.135 438.121 397.221V393.752H440.535ZM452.817 400.385V402.377H449.512V413.159H447.098V391.994H449.512V400.385H452.817Z" fill="#9B9B9B"/>
<rect x="344.895" y="375.146" width="138.598" height="53.4165" rx="26.7082" stroke="#E3E1EC" stroke-width="1.67422"/>
<rect x="504.421" y="374.309" width="140.272" height="55.0907" rx="27.5453" fill="#71A1FE"/>
<path d="M540.839 411.659C538.12 411.659 536.362 410.581 535.213 409.292L536.526 407.557C537.534 408.589 538.823 409.456 540.604 409.456C542.55 409.456 543.886 408.378 543.886 406.596C543.886 404.674 542.667 403.432 538.776 403.432V401.44C542.175 401.44 543.3 400.151 543.3 398.416C543.3 396.892 542.292 395.931 540.651 395.908C539.315 395.931 538.19 396.588 537.206 397.549L535.799 395.861C537.159 394.642 538.753 393.775 540.745 393.775C543.839 393.775 546.019 395.369 546.019 398.229C546.019 400.221 544.87 401.604 543.042 402.283V402.401C545.034 402.893 546.605 404.393 546.605 406.713C546.605 409.831 544.003 411.659 540.839 411.659ZM553.571 394.22H563.603C563.603 400.526 561.072 405.87 553.806 409.386L552.516 407.464C558.071 404.791 560.697 401.065 561.119 396.189H553.571V394.22ZM567.424 391.994H569.838V413.159H567.424V391.994ZM591.028 398.533L590.138 400.408C586.716 399.916 583.856 398.275 582.497 396.049C581.137 398.299 578.278 399.916 574.832 400.408L573.965 398.533C578.137 397.994 581.254 395.603 581.254 393.072V392.275H583.739V393.072C583.739 395.556 586.856 397.994 591.028 398.533ZM592.06 403.784H583.669V406.198H589.716V413.183H587.302V408.143H575.043V406.198H581.254V403.784H572.91V401.838H592.06V403.784ZM600.898 393.752V397.221C600.898 400.994 602.867 404.815 606.054 406.385L604.578 408.307C602.304 407.135 600.617 404.838 599.702 402.073C598.788 405.002 597.007 407.464 594.593 408.706L593.116 406.76C596.421 405.143 598.484 401.135 598.484 397.221V393.752H600.898ZM613.18 400.385V402.377H609.875V413.159H607.461V391.994H609.875V400.385H613.18Z" fill="white"/>
<line x1="183.695" y1="456.02" x2="731.167" y2="456.02" stroke="#9B9B9B" stroke-width="0.334845"/>
<path d="M202.339 506.099V498.92H197.437V496.67H202.339V491.822H205.099V506.099H202.339ZM199.42 502.965L197.946 505.135C195.348 504.198 193.473 502.376 192.428 500.019C191.357 502.697 189.321 504.814 186.401 505.858L184.954 503.635C188.839 502.322 190.955 499.054 190.955 495.518V493.134H193.741V495.384C193.741 498.733 195.75 501.76 199.42 502.965ZM197.036 513.868C200.464 513.868 202.447 512.984 202.447 511.403C202.447 509.823 200.464 508.939 197.036 508.939C193.607 508.939 191.651 509.823 191.651 511.403C191.651 512.984 193.607 513.868 197.036 513.868ZM197.036 506.769C202.098 506.769 205.206 508.484 205.206 511.403C205.206 514.323 202.098 516.038 197.036 516.038C191.999 516.038 188.892 514.323 188.892 511.403C188.892 508.484 191.999 506.769 197.036 506.769ZM226.955 497.233H221.946V499.51H226.955V497.233ZM219.24 501.358V498.197H213.535V501.358H219.24ZM221.946 501.653V503.555H210.802V492.92H213.535V496.081H219.24V492.92H221.946V495.117H226.955V491.848H229.741V504.385H226.955V501.653H221.946ZM216.749 513.573H230.545V515.743H214.017V509.475H227.009V507.626H213.99V505.457H229.741V511.511H216.749V513.573Z" fill="black"/>
<path d="M227.192 565.09L227.497 567.059C223.957 567.762 220.77 567.973 217.676 567.973H215.965V558.433H218.379V565.98C221.145 565.934 224.074 565.723 227.192 565.09ZM220.395 572.356V576.364H229.184V572.356H220.395ZM218.027 578.309V570.434H231.552V578.309H218.027ZM234.552 562.09V564.082H231.552V569.356H229.137V557.402H231.552V562.09H234.552ZM250.703 569.871V563.59H246.413V561.621H250.703V557.378H253.117V569.871H250.703ZM248.148 567.129L246.859 569.028C244.585 568.207 242.944 566.613 242.03 564.551C241.093 566.895 239.311 568.746 236.757 569.66L235.491 567.715C238.89 566.566 240.741 563.707 240.741 560.613V558.527H243.179V560.496C243.179 563.426 244.937 566.074 248.148 567.129ZM246.062 576.669C249.062 576.669 250.797 575.895 250.797 574.512C250.797 573.129 249.062 572.356 246.062 572.356C243.062 572.356 241.351 573.129 241.351 574.512C241.351 575.895 243.062 576.669 246.062 576.669ZM246.062 570.457C250.492 570.457 253.211 571.957 253.211 574.512C253.211 577.067 250.492 578.567 246.062 578.567C241.655 578.567 238.936 577.067 238.936 574.512C238.936 571.957 241.655 570.457 246.062 570.457Z" fill="#9B9B9B"/>
<rect x="184.532" y="540.554" width="101.598" height="53.4165" rx="26.7082" stroke="#E3E1EC" stroke-width="1.67422"/>
<rect x="307.058" y="539.717" width="103.272" height="55.0907" rx="27.5453" fill="#71A1FE"/>
<path d="M349.265 568.582H353.531V563.941H349.195C349.359 564.715 349.453 565.512 349.453 566.402C349.453 567.199 349.383 567.903 349.265 568.582ZM344.085 571.723C345.914 571.723 347.156 569.731 347.156 566.402C347.156 563.121 345.914 561.129 344.085 561.129C342.281 561.129 341.015 563.121 341.015 566.402C341.015 569.731 342.281 571.723 344.085 571.723ZM353.531 557.378H355.969V578.614H353.531V570.575H348.656C347.765 572.661 346.101 573.88 344.085 573.88C340.968 573.88 338.741 570.997 338.741 566.402C338.741 561.855 340.968 558.949 344.085 558.949C346.007 558.949 347.578 560.05 348.539 561.949H353.531V557.378ZM374.066 569.871V563.59H369.776V561.621H374.066V557.378H376.48V569.871H374.066ZM371.511 567.129L370.222 569.028C367.948 568.207 366.307 566.613 365.393 564.551C364.456 566.895 362.674 568.746 360.119 569.661L358.854 567.715C362.252 566.567 364.104 563.707 364.104 560.613V558.527H366.542V560.496C366.542 563.426 368.3 566.074 371.511 567.129ZM369.425 576.669C372.425 576.669 374.159 575.895 374.159 574.512C374.159 573.13 372.425 572.356 369.425 572.356C366.424 572.356 364.713 573.13 364.713 574.512C364.713 575.895 366.424 576.669 369.425 576.669ZM369.425 570.457C373.855 570.457 376.574 571.958 376.574 574.512C376.574 577.067 373.855 578.567 369.425 578.567C365.018 578.567 362.299 577.067 362.299 574.512C362.299 571.958 365.018 570.457 369.425 570.457Z" fill="white"/>
<line x1="183.695" y1="621.428" x2="731.167" y2="621.428" stroke="#9B9B9B" stroke-width="0.334845"/>
<path d="M202.232 657.257H204.991V670.249H202.232V657.257ZM189.187 671.374H191.919V674.052H202.259V671.374H204.991V681.151H189.187V671.374ZM191.919 676.195V678.928H202.259V676.195H191.919ZM191.946 658.355C195.643 658.355 198.348 660.659 198.348 663.98C198.348 667.302 195.643 669.606 191.946 669.606C188.249 669.606 185.517 667.302 185.517 663.98C185.517 660.659 188.249 658.355 191.946 658.355ZM191.946 660.632C189.749 660.632 188.222 661.971 188.222 663.98C188.222 666.016 189.749 667.329 191.946 667.329C194.116 667.329 195.669 666.016 195.669 663.98C195.669 661.971 194.116 660.632 191.946 660.632ZM218.169 659.266V663.23C218.169 667.543 220.419 671.909 224.062 673.704L222.375 675.901C219.776 674.561 217.847 671.936 216.803 668.775C215.758 672.124 213.722 674.936 210.963 676.356L209.275 674.133C213.052 672.284 215.41 667.704 215.41 663.23V659.266H218.169ZM232.206 666.847V669.124H228.428V681.446H225.669V657.257H228.428V666.847H232.206ZM241.729 659.801H253.194C253.194 667.007 250.301 673.115 241.997 677.133L240.524 674.936C246.873 671.883 249.873 667.623 250.355 662.052H241.729V659.801ZM257.561 657.257H260.32V681.446H257.561V657.257ZM265.943 659.105H277.382C277.382 665.507 273.122 670.061 266.077 672.204L264.925 670.008C270.47 668.32 273.899 665.186 274.381 661.355H265.943V659.105ZM271.328 673.008V678.74H284.829V680.99H268.542V673.008H271.328ZM283.864 664.329H287.32V666.605H283.864V674.776H281.105V657.257H283.864V664.329Z" fill="black"/>
<path d="M215.847 742.171V739.944H219.621V727.943H216.527V726.232C218.144 725.927 219.293 725.529 220.277 724.919H222.317V739.944H225.692V742.171H215.847ZM233.367 740.413C234.867 740.413 236.039 739.053 236.039 736.826C236.039 734.6 235.055 733.357 233.203 733.357C232.195 733.357 231.023 733.897 229.992 735.373C230.273 738.795 231.515 740.413 233.367 740.413ZM238.266 726.443L236.789 728.084C236.156 727.334 235.102 726.794 234.094 726.794C231.89 726.794 230.062 728.459 229.945 733.381C230.953 732.139 232.453 731.389 233.695 731.389C236.602 731.389 238.547 733.17 238.547 736.826C238.547 740.249 236.203 742.475 233.39 742.475C230.109 742.475 227.437 739.733 227.437 733.873C227.437 727.24 230.554 724.591 233.953 724.591C235.875 724.591 237.281 725.412 238.266 726.443ZM245.935 733.17L245.068 731.271C249.1 730.732 252.076 728.412 252.217 725.951H245.771V724.005H261.358V725.951H254.959C255.1 728.412 258.077 730.732 262.108 731.271L261.241 733.17C257.749 732.654 254.866 730.92 253.576 728.576C252.287 730.92 249.428 732.654 245.935 733.17ZM263.163 734.717L263.14 736.662H254.725V743.999H252.311V736.662H244.013V734.717H263.163Z" fill="#9B9B9B"/>
<rect x="184.532" y="705.962" width="109.598" height="53.4165" rx="26.7082" stroke="#E3E1EC" stroke-width="1.67422"/>
<rect x="315.058" y="705.125" width="111.272" height="55.0907" rx="27.5453" fill="#71A1FE"/>
<path d="M346.226 742.171V740.6C351.312 736.1 353.937 732.748 353.937 729.912C353.937 728.037 352.929 726.748 351.007 726.748C349.648 726.748 348.523 727.615 347.609 728.67L346.085 727.169C347.562 725.576 349.085 724.591 351.335 724.591C354.5 724.591 356.539 726.654 356.539 729.771C356.539 733.1 353.89 736.545 350.234 740.038C351.124 739.944 352.203 739.873 353.046 739.873H357.359V742.171H346.226ZM360.745 735.443H365.48V730.92C365.48 729.982 365.574 728.529 365.621 727.591H365.527C365.105 728.459 364.636 729.349 364.144 730.24L360.745 735.443ZM370.215 735.443V737.53H368.011V742.171H365.48V737.53H358.026V735.725L364.894 724.919H368.011V735.443H370.215ZM377.298 733.17L376.431 731.271C380.462 730.732 383.439 728.412 383.58 725.951H377.134V724.005H392.721V725.951H386.322C386.463 728.412 389.44 730.732 393.471 731.271L392.604 733.17C389.111 732.654 386.228 730.92 384.939 728.576C383.65 730.92 380.79 732.654 377.298 733.17ZM394.526 734.717L394.502 736.662H386.088V743.999H383.674V736.662H375.376V734.717H394.526Z" fill="white"/>
<line x1="183.695" y1="786.836" x2="731.167" y2="786.836" stroke="#9B9B9B" stroke-width="0.334845"/>
<path d="M188.892 825.451V838.389C191.035 838.335 193.366 838.148 195.991 837.666L196.285 840.023C193.044 840.612 190.258 840.746 187.74 840.746H186.133V825.451H188.892ZM203.009 822.665H205.634V846.854H203.009V834.558H200.143V845.648H197.544V823.147H200.143V832.281H203.009V822.665ZM236.428 829.897L235.436 832.04C231.499 831.505 228.231 829.683 226.65 827.165C225.096 829.683 221.828 831.505 217.891 832.04L216.873 829.897C221.721 829.281 225.23 826.656 225.23 823.843V822.906H228.07V823.843C228.07 826.629 231.633 829.281 236.428 829.897ZM232.034 844.363V841.764H221.132V844.363H232.034ZM232.034 839.648V837.184H234.793V846.559H218.399V837.184H221.132V839.648H232.034ZM215.694 833.487H237.606V835.683H215.694V833.487ZM253.141 833.032L250.435 832.737C250.918 830.138 250.998 828.237 251.025 826.736H241.569V824.486H253.73V825.879C253.73 827.513 253.73 829.897 253.141 833.032ZM255.15 834.237L255.337 836.246C250.301 837.13 244.596 837.264 240.39 837.264L240.095 835.014C241.542 835.014 243.203 835.014 244.917 834.96V830.005H247.649V834.88C250.167 834.773 252.766 834.612 255.15 834.237ZM246.524 839.219V844.148H260.186V846.399H243.738V839.219H246.524ZM259.409 830.326H262.624V832.603H259.409V840.827H256.623V822.665H259.409V830.326Z" fill="black"/>
<path d="M196.955 868.286V866.84H188.879V868.286H196.955ZM199.004 863.806V869.853H186.829V863.806H188.879V865.313H196.955V863.806H199.004ZM201.134 872.746H193.942V874.233H199.065V878.512H188.738V879.939H199.587V881.526H186.689V877.066H197.036V875.78H186.629V874.233H191.852V872.746H184.68V871.099H201.134V872.746ZM218.792 866.016V867.683H203.945V866.016H210.354V863.786H212.423V866.016H218.792ZM207.441 872.204C207.441 873.409 208.887 874.092 211.359 874.092C213.85 874.092 215.296 873.409 215.296 872.204C215.296 871.018 213.85 870.335 211.359 870.335C208.887 870.335 207.441 871.018 207.441 872.204ZM212.423 878.01H219.636V879.718H203.182V878.01H210.354V875.68C207.24 875.459 205.331 874.213 205.331 872.204C205.331 870.014 207.662 868.728 211.359 868.728C215.075 868.728 217.406 870.014 217.406 872.204C217.406 874.213 215.537 875.438 212.423 875.68V878.01ZM227.59 873.831V877.769H232.171V873.811C231.468 873.992 230.684 874.072 229.881 874.072C229.077 874.072 228.294 873.992 227.59 873.831ZM229.881 866.217C227.128 866.217 225.22 867.422 225.22 869.331C225.22 871.26 227.128 872.465 229.881 872.465C232.613 872.465 234.522 871.26 234.522 869.331C234.522 867.422 232.613 866.217 229.881 866.217ZM234.24 877.769H238.118V879.457H221.684V877.769H225.521V873.048C224.074 872.244 223.211 870.938 223.211 869.331C223.211 866.438 226.003 864.589 229.881 864.589C233.738 864.589 236.551 866.438 236.551 869.331C236.551 870.938 235.687 872.224 234.24 873.048V877.769ZM255.897 872.123L255.033 873.851C252.059 873.269 249.488 871.46 248.322 869.05C247.117 871.46 244.545 873.269 241.592 873.851L240.708 872.123C244.304 871.521 247.217 868.808 247.217 866.016V864.65H249.407V866.016C249.407 868.829 252.32 871.521 255.897 872.123ZM249.327 877.729H256.6V879.436H240.166V877.729H247.258V873.49H249.327V877.729ZM259.531 865.453H267.949C267.949 870.717 265.699 875.378 259.772 878.372L258.627 876.785C263.067 874.514 265.458 871.32 265.88 867.141H259.531V865.453ZM275.443 870.697V872.425H272.691V881.667H270.621V863.525H272.691V870.697H275.443ZM296.589 863.565V873.871H294.52V863.565H296.589ZM286.805 866.257C285.198 866.257 284.013 867.282 284.013 868.829C284.013 870.396 285.198 871.4 286.805 871.4C288.412 871.4 289.598 870.396 289.598 868.829C289.598 867.282 288.412 866.257 286.805 866.257ZM286.805 873.108C284.033 873.108 281.983 871.36 281.983 868.829C281.983 866.297 284.033 864.549 286.805 864.549C289.578 864.549 291.607 866.297 291.607 868.829C291.607 871.36 289.578 873.108 286.805 873.108ZM294.661 874.655V875.459C294.661 877.327 295.826 879.155 298.197 879.919L297.172 881.446C295.424 880.823 294.239 879.657 293.616 878.191C293.033 879.617 291.948 880.923 290.301 881.606C288.593 880.943 287.528 879.698 286.966 878.231C286.303 879.657 285.138 880.823 283.45 881.446L282.445 879.919C284.756 879.095 285.961 877.226 285.961 875.459V874.655H287.97V875.459C287.97 876.985 288.674 878.613 290.261 879.617C291.868 878.532 292.631 876.825 292.631 875.459V874.655H294.661ZM314.689 868.748V870.436H302.233V864.188H304.303V868.748H314.689ZM304.182 875.941V879.617H314.79V881.285H302.113V875.941H304.182ZM300.104 872.606H316.578V874.273H300.104V872.606ZM325.991 865.634V875.338C327.598 875.298 329.346 875.157 331.315 874.796L331.536 876.564C329.105 877.006 327.016 877.106 325.127 877.106H323.922V865.634H325.991ZM336.579 863.545H338.548V881.687H336.579V872.465H334.429V880.783H332.48V863.906H334.429V870.757H336.579V863.545ZM361.643 868.969L360.899 870.576C357.946 870.175 355.495 868.808 354.31 866.92C353.144 868.808 350.693 870.175 347.74 870.576L346.976 868.969C350.613 868.507 353.245 866.538 353.245 864.429V863.726H355.374V864.429C355.374 866.518 358.046 868.507 361.643 868.969ZM358.348 879.818V877.869H350.171V879.818H358.348ZM358.348 876.282V874.434H360.417V881.466H348.122V874.434H350.171V876.282H358.348ZM346.092 871.661H362.527V873.309H346.092V871.661ZM374.178 871.32L372.149 871.099C372.51 869.15 372.57 867.724 372.591 866.599H365.499V864.911H374.62V865.956C374.62 867.181 374.62 868.969 374.178 871.32ZM375.684 872.224L375.825 873.731C372.048 874.394 367.769 874.494 364.615 874.494L364.394 872.807C365.478 872.807 366.724 872.807 368.01 872.766V869.05H370.059V872.706C371.948 872.626 373.896 872.505 375.684 872.224ZM369.215 875.961V879.657H379.462V881.345H367.126V875.961H369.215ZM378.879 869.291H381.29V870.998H378.879V877.166H376.789V863.545H378.879V869.291ZM391.273 865.373C388.461 865.373 386.954 865.915 386.954 866.96C386.954 867.985 388.461 868.527 391.273 868.527C394.086 868.527 395.593 867.985 395.593 866.96C395.593 865.915 394.086 865.373 391.273 865.373ZM391.273 870.074C387.195 870.074 384.804 868.969 384.804 866.96C384.804 864.931 387.195 863.826 391.273 863.826C395.332 863.826 397.743 864.931 397.743 866.96C397.743 868.969 395.332 870.074 391.273 870.074ZM387.094 878.432V879.939H397.943V881.526H385.045V876.965H395.392V875.659H385.005V874.092H397.421V878.432H387.094ZM383.056 871.139H399.49V872.786H383.056V871.139ZM407.035 865.252H415.554V877.247H407.035V865.252ZM413.524 866.9H409.064V875.579H413.524V866.9ZM418.909 863.525H420.998V881.727H418.909V863.525ZM427.667 871.882V875.7C430.54 875.68 433.051 875.539 435.924 875.077L436.145 876.764C433.031 877.307 430.319 877.407 427.124 877.407H425.577V870.215H431.906V866.84H425.537V865.152H433.995V871.882H427.667ZM437.431 863.505H439.52V881.727H437.431V863.505ZM449.777 868.206C449.777 869.652 450.942 870.617 452.55 870.617C454.137 870.617 455.282 869.652 455.282 868.206C455.282 866.759 454.137 865.815 452.55 865.815C450.942 865.815 449.777 866.759 449.777 868.206ZM457.291 868.206C457.291 870.597 455.282 872.284 452.55 872.284C449.797 872.284 447.768 870.597 447.768 868.206C447.768 865.815 449.797 864.127 452.55 864.127C455.282 864.127 457.291 865.815 457.291 868.206ZM452.067 878.171V879.818H462.314V881.466H450.038V876.664H459.662V875.117H449.998V873.49H461.711V878.171H452.067ZM461.711 867.262H464.262V868.969H461.711V872.706H459.642V863.525H461.711V867.262ZM468.701 871.862V875.86C471.172 875.84 473.302 875.74 475.793 875.358L475.954 877.066C473.201 877.508 470.871 877.568 468.058 877.568H466.672V870.195H472.599V866.779H466.632V865.112H474.628V871.862H468.701ZM478.987 863.505H481.057V881.707H478.987V874.173H475.572V872.485H478.987V869.23H475.672V867.543H478.987V863.505ZM486.158 872.425L485.415 870.797C488.87 870.335 491.422 868.346 491.543 866.237H486.018V864.569H499.378V866.237H493.893C494.014 868.346 496.565 870.335 500.021 870.797L499.277 872.425C496.284 871.983 493.813 870.496 492.708 868.487C491.603 870.496 489.152 871.983 486.158 872.425ZM500.925 873.751L500.905 875.418H493.692V881.707H491.623V875.418H484.511V873.751H500.925ZM508.558 865.212V868.387C508.558 871.32 509.663 874.394 512.094 875.921L510.928 877.528C509.281 876.523 508.196 874.755 507.573 872.726C506.93 874.956 505.745 876.865 503.997 877.93L502.731 876.363C505.303 874.836 506.549 871.581 506.549 868.487V865.212H508.558ZM512.817 869.893V863.886H514.766V880.843H512.817V871.581H510.145V869.893H512.817ZM516.514 863.545H518.483V881.687H516.514V863.545ZM527.381 873.831V877.769H531.962V873.811C531.259 873.992 530.475 874.072 529.671 874.072C528.868 874.072 528.084 873.992 527.381 873.831ZM529.671 866.217C526.919 866.217 525.01 867.422 525.01 869.331C525.01 871.26 526.919 872.465 529.671 872.465C532.404 872.465 534.312 871.26 534.312 869.331C534.312 867.422 532.404 866.217 529.671 866.217ZM534.031 877.769H537.909V879.457H521.474V877.769H525.312V873.048C523.865 872.244 523.001 870.938 523.001 869.331C523.001 866.438 525.794 864.589 529.671 864.589C533.529 864.589 536.342 866.438 536.342 869.331C536.342 870.938 535.478 872.224 534.031 873.048V877.769ZM541.925 880.401C541.061 880.401 540.378 879.738 540.378 878.794C540.378 877.849 541.061 877.146 541.925 877.146C542.789 877.146 543.472 877.849 543.472 878.794C543.472 879.738 542.789 880.401 541.925 880.401Z" fill="#9B9B9B"/>
<path d="M216.644 932.439L229.606 931.947C229.653 930.798 229.653 929.744 229.653 928.783H217.254V926.837H232.044V928.783C232.044 931.361 232.067 934.291 231.13 938.768L228.739 938.486C229.114 936.728 229.348 935.181 229.465 933.799L216.972 934.478L216.644 932.439ZM224.59 941.44H234.153V943.432H215.004V941.44H222.152V936.119H224.59V941.44ZM251.945 932.064L249.554 931.877C249.859 930.142 249.929 928.806 249.929 927.658H237.811V925.712H252.344V927.048C252.344 928.361 252.344 930.001 251.945 932.064ZM240.249 942.049V943.971H252.93V945.87H237.835V940.362H249.976V938.604H237.788V936.705H252.39V942.049H240.249ZM245.546 933.119H254.687V935.041H235.608V933.119H243.109V929.744H245.546V933.119ZM271.12 924.892H273.558V946.128H271.12V924.892ZM262.283 926.462C265.448 926.462 267.745 929.369 267.745 933.916C267.745 938.51 265.448 941.393 262.283 941.393C259.142 941.393 256.845 938.51 256.845 933.916C256.845 929.369 259.142 926.462 262.283 926.462ZM262.283 928.642C260.455 928.642 259.166 930.634 259.166 933.916C259.166 937.244 260.455 939.236 262.283 939.236C264.135 939.236 265.424 937.244 265.424 933.916C265.424 930.634 264.135 928.642 262.283 928.642Z" fill="#9B9B9B"/>
<rect x="184.532" y="908.068" width="121.598" height="53.4165" rx="26.7082" stroke="#E3E1EC" stroke-width="1.67422"/>
<path d="M373.367 924.892H375.805V946.128H373.367V924.892ZM364.53 926.462C367.695 926.462 369.992 929.369 369.992 933.916C369.992 938.51 367.695 941.393 364.53 941.393C361.389 941.393 359.092 938.51 359.092 933.916C359.092 929.369 361.389 926.462 364.53 926.462ZM364.53 928.642C362.702 928.642 361.413 930.634 361.413 933.916C361.413 937.244 362.702 939.236 364.53 939.236C366.382 939.236 367.671 937.244 367.671 933.916C367.671 930.634 366.382 928.642 364.53 928.642ZM379.861 925.829H389.752C389.752 931.291 386.049 934.736 379.814 936.119L378.923 934.15C383.986 933.095 386.729 930.681 387.057 927.798H379.861V925.829ZM384.221 942.026V943.948H396.175V945.893H381.853V940.197H393.081V938.416H381.806V936.471H395.471V942.026H384.221ZM395.471 929.415H398.472V931.408H395.471V935.603H393.057V924.915H395.471V929.415ZM414.482 924.892H416.92V946.128H414.482V924.892ZM405.646 926.462C408.81 926.462 411.107 929.369 411.107 933.916C411.107 938.51 408.81 941.393 405.646 941.393C402.505 941.393 400.208 938.51 400.208 933.916C400.208 929.369 402.505 926.462 405.646 926.462ZM405.646 928.642C403.817 928.642 402.528 930.634 402.528 933.916C402.528 937.244 403.817 939.236 405.646 939.236C407.497 939.236 408.786 937.244 408.786 933.916C408.786 930.634 407.497 928.642 405.646 928.642Z" fill="#9B9B9B"/>
<rect x="327.895" y="908.068" width="121.598" height="53.4165" rx="26.7082" stroke="#E3E1EC" stroke-width="1.67422"/>
<rect x="470.421" y="907.23" width="103.272" height="55.0907" rx="27.5453" fill="#71A1FE"/>
<path d="M519.848 926.509V928.361H502.69V926.509H510.097V924.634H512.535V926.509H519.848ZM515.675 931.994C515.675 931.103 514.199 930.681 511.316 930.681C508.433 930.681 506.933 931.103 506.933 931.994C506.933 932.861 508.433 933.283 511.316 933.283C514.199 933.283 515.675 932.861 515.675 931.994ZM504.354 931.994C504.354 930.025 506.839 929.04 511.316 929.04C515.769 929.04 518.254 930.025 518.254 931.994C518.254 933.916 515.769 934.924 511.316 934.924C506.839 934.924 504.354 933.916 504.354 931.994ZM516.121 944.018V942.307H506.487V944.018H516.121ZM516.121 940.572V938.955H518.512V945.823H504.096V938.955H506.487V940.572H516.121ZM501.729 936.002H520.902V937.924H501.729V936.002ZM524.888 931.595C524.888 933.564 526.271 934.877 528.123 934.877C529.928 934.877 531.311 933.564 531.311 931.595C531.311 929.673 529.928 928.361 528.123 928.361C526.271 928.361 524.888 929.673 524.888 931.595ZM537.428 930.025H533.373C533.538 930.517 533.608 931.033 533.608 931.595C533.608 932.158 533.538 932.673 533.373 933.166H537.428V930.025ZM537.428 935.134H532.342C531.358 936.283 529.858 936.986 528.123 936.963C524.982 936.963 522.591 934.713 522.591 931.595C522.591 928.478 524.982 926.228 528.123 926.228C529.858 926.228 531.358 926.931 532.342 928.056H537.428V924.938H539.843V940.502H537.428V935.134ZM528.545 943.713H540.382V945.682H526.131V938.932H528.545V943.713Z" fill="white"/>
<path d="M232.466 996.748V1007.6H230.028V996.748H232.466ZM227.895 1005.23L226.723 1007.13C224.285 1006.33 222.504 1004.72 221.543 1002.63C220.582 1004.9 218.777 1006.66 216.222 1007.53L215.027 1005.61C218.379 1004.51 220.277 1001.76 220.277 998.904V997.311H222.738V998.904C222.738 1001.65 224.637 1004.23 227.895 1005.23ZM221.004 1015.83H233.099V1017.73H218.637V1012.22H230.075V1010.48H218.59V1008.61H232.466V1013.98H221.004V1015.83ZM238.936 999.186V1010.51C240.812 1010.46 242.851 1010.3 245.148 1009.87L245.406 1011.94C242.569 1012.45 240.132 1012.57 237.928 1012.57H236.522V999.186H238.936ZM251.289 996.748H253.586V1017.91H251.289V1007.16H248.781V1016.86H246.507V997.17H248.781V1005.16H251.289V996.748ZM269.966 997.193C274.583 997.193 277.513 998.717 277.513 1001.25C277.513 1003.76 274.583 1005.3 269.966 1005.3C265.348 1005.3 262.418 1003.76 262.418 1001.25C262.418 998.717 265.348 997.193 269.966 997.193ZM269.966 999.069C266.825 999.069 264.903 999.842 264.903 1001.25C264.903 1002.63 266.825 1003.4 269.966 1003.4C273.106 1003.4 275.005 1002.63 275.005 1001.25C275.005 999.842 273.106 999.069 269.966 999.069ZM262.676 1010.58H277.208V1017.66H262.676V1010.58ZM274.841 1012.5H265.067V1015.73H274.841V1012.5ZM260.379 1006.85H279.529V1008.77H260.379V1006.85ZM293.805 1006.36L292.609 1008.26C290.172 1007.41 288.414 1005.75 287.476 1003.64C286.515 1005.94 284.71 1007.76 282.202 1008.63L281.007 1006.73C284.335 1005.58 286.21 1002.73 286.21 999.772V997.709H288.671V999.772C288.671 1002.63 290.547 1005.28 293.805 1006.36ZM284.124 1012.38V1010.44H298.399V1017.91H295.984V1012.38H284.124ZM295.984 996.725H298.399V1009.43H295.984V996.725ZM318.247 1006.01L317.005 1007.88C314.685 1007.08 312.974 1005.51 312.083 1003.48C311.169 1005.68 309.411 1007.41 306.95 1008.28L305.707 1006.36C309.012 1005.28 310.864 1002.54 310.864 999.678V997.522H313.278V999.795C313.278 1002.49 315.083 1005 318.247 1006.01ZM320.896 1015.71V1013.48H311.942V1015.71H320.896ZM320.896 1011.59V1009.33H323.31V1017.66H309.551V1009.33H311.942V1011.59H320.896ZM320.873 996.748H323.31V1008.42H320.873V1002.54H316.607V1000.57H320.873V996.748ZM328.187 1007.32L327.203 1005.47C330.297 1004.79 332.101 1002.96 332.125 1000.92H327.695V999.022H332.101V996.795H334.539V999.022H338.969V1000.92H334.539C334.563 1002.84 336.344 1004.51 339.391 1005.14L338.43 1007.01C336.016 1006.5 334.305 1005.33 333.367 1003.8C332.453 1005.49 330.695 1006.76 328.187 1007.32ZM340.071 1007.88L340.211 1009.66C338.36 1009.99 336.414 1010.23 334.539 1010.32V1017.3H332.125V1010.46C330.156 1010.53 328.304 1010.55 326.64 1010.55L326.335 1008.56C330.273 1008.56 335.524 1008.51 340.071 1007.88ZM341.43 996.748H343.844V1017.94H341.43V996.748ZM363.67 998.834V1000.76H351.177V998.834H356.216V996.584H358.63V998.834H363.67ZM354.599 1005.42C354.599 1006.66 355.724 1007.41 357.411 1007.41C359.099 1007.41 360.248 1006.66 360.248 1005.42C360.248 1004.2 359.099 1003.45 357.411 1003.45C355.724 1003.45 354.599 1004.2 354.599 1005.42ZM362.545 1005.42C362.545 1007.72 360.482 1009.22 357.411 1009.22C354.364 1009.22 352.278 1007.72 352.278 1005.42C352.278 1003.15 354.364 1001.62 357.411 1001.62C360.482 1001.62 362.545 1003.15 362.545 1005.42ZM356.544 1012.48V1015.73H365.31V1012.48H356.544ZM354.153 1017.66V1010.58H367.678V1017.66H354.153ZM370.678 1002.19V1004.18H367.678V1009.5H365.264V996.748H367.678V1002.19H370.678Z" fill="#9B9B9B"/>
<rect x="184.532" y="979.9" width="216.598" height="53.4165" rx="26.7082" stroke="#E3E1EC" stroke-width="1.67422"/>
<rect x="422.058" y="979.063" width="214.272" height="55.0907" rx="27.5453" fill="#71A1FE"/>
<path d="M468.367 996.724H470.805V1017.96H468.367V996.724ZM459.531 998.295C462.695 998.295 464.992 1001.2 464.992 1005.75C464.992 1010.34 462.695 1013.23 459.531 1013.23C456.39 1013.23 454.093 1010.34 454.093 1005.75C454.093 1001.2 456.39 998.295 459.531 998.295ZM459.531 1000.47C457.703 1000.47 456.413 1002.47 456.413 1005.75C456.413 1009.08 457.703 1011.07 459.531 1011.07C461.382 1011.07 462.672 1009.08 462.672 1005.75C462.672 1002.47 461.382 1000.47 459.531 1000.47ZM479.643 1011.07C481.471 1011.07 482.714 1009.1 482.714 1005.75C482.714 1002.47 481.471 1000.47 479.643 1000.47C477.838 1000.47 476.596 1002.47 476.596 1005.75C476.596 1009.1 477.838 1011.07 479.643 1011.07ZM489.089 996.724H491.527V1017.96H489.089V1006.59H484.987C484.706 1010.69 482.55 1013.23 479.643 1013.23C476.526 1013.23 474.299 1010.34 474.299 1005.75C474.299 1001.2 476.526 998.295 479.643 998.295C482.479 998.295 484.636 1000.73 484.964 1004.62H489.089V996.724ZM499.333 1011.61V1015.55H511.498V1017.51H496.896V1011.61H499.333ZM501.607 999.584V1003.83H506.482V999.584H501.607ZM505.264 1008.02H513.655V1009.99H494.458V1008.02H502.826V1005.77H496.31V1003.83H499.193V999.584H496.193V997.639H511.873V999.584H508.897V1003.83H511.756V1005.77H505.264V1008.02ZM531.816 1007.04L530.667 1008.91C528.277 1008.23 526.542 1006.73 525.628 1004.83C524.667 1006.92 522.909 1008.54 520.424 1009.31L519.276 1007.41C522.534 1006.43 524.362 1003.94 524.362 1001.32V1001.08H519.909V999.162H524.362V996.631H526.8V999.162H531.23V1001.08H526.776V1001.32C526.776 1003.76 528.581 1006.1 531.816 1007.04ZM521.925 1012.64V1010.69H535.847V1017.96H533.433V1012.64H521.925ZM538.848 1002.21V1004.2H535.847V1009.69H533.433V996.724H535.847V1002.21H538.848ZM549.397 1016.06C552.491 1016.06 554.249 1015.41 554.249 1014.12C554.249 1012.85 552.491 1012.17 549.397 1012.17C546.303 1012.17 544.568 1012.85 544.568 1014.12C544.568 1015.41 546.303 1016.06 549.397 1016.06ZM549.397 1010.32C553.967 1010.32 556.686 1011.7 556.686 1014.12C556.686 1016.55 553.967 1017.91 549.397 1017.91C544.85 1017.91 542.107 1016.55 542.107 1014.12C542.107 1011.7 544.85 1010.32 549.397 1010.32ZM546.818 1004.88V1007.04H552.022V1004.88C551.248 1005 550.381 1005.07 549.444 1005.07C548.506 1005.07 547.592 1005 546.818 1004.88ZM549.444 998.975C546.279 998.975 544.381 999.725 544.381 1001.08C544.381 1002.44 546.279 1003.22 549.444 1003.22C552.584 1003.22 554.483 1002.44 554.483 1001.08C554.483 999.725 552.584 998.975 549.444 998.975ZM554.436 1007.04H559.007V1008.96H539.857V1007.04H544.404V1004.22C542.81 1003.55 541.896 1002.47 541.896 1001.08C541.896 998.6 544.803 997.099 549.444 997.099C554.061 997.099 556.991 998.6 556.991 1001.08C556.991 1002.47 556.053 1003.55 554.436 1004.25V1007.04ZM567.323 1003.45C567.323 1005.4 568.73 1006.66 570.581 1006.66C572.433 1006.66 573.863 1005.4 573.863 1003.45C573.863 1001.53 572.433 1000.26 570.581 1000.26C568.73 1000.26 567.323 1001.53 567.323 1003.45ZM576.23 1003.45C576.23 1006.55 573.793 1008.75 570.581 1008.75C567.394 1008.75 564.956 1006.55 564.956 1003.45C564.956 1000.36 567.394 998.178 570.581 998.178C573.793 998.178 576.23 1000.36 576.23 1003.45ZM570.253 1010.67V1015.55H582.067V1017.51H567.816V1010.67H570.253ZM581.223 1003.03H584.223V1005.02H581.223V1012.26H578.809V996.748H581.223V1003.03ZM597.772 998.834V1000.76H585.279V998.834H590.319V996.584H592.733V998.834H597.772ZM588.701 1005.42C588.701 1006.66 589.826 1007.41 591.514 1007.41C593.202 1007.41 594.35 1006.66 594.35 1005.42C594.35 1004.2 593.202 1003.45 591.514 1003.45C589.826 1003.45 588.701 1004.2 588.701 1005.42ZM596.647 1005.42C596.647 1007.72 594.585 1009.22 591.514 1009.22C588.467 1009.22 586.381 1007.72 586.381 1005.42C586.381 1003.15 588.467 1001.62 591.514 1001.62C594.585 1001.62 596.647 1003.15 596.647 1005.42ZM590.647 1012.48V1015.73H599.413V1012.48H590.647ZM588.256 1017.66V1010.58H601.78V1017.66H588.256ZM604.781 1002.19V1004.18H601.78V1009.5H599.366V996.748H601.78V1002.19H604.781Z" fill="white"/>
<line x1="183.695" y1="1060.77" x2="731.167" y2="1060.77" stroke="#9B9B9B" stroke-width="0.334845"/>
<path d="M188.651 1098.96V1112.46C191.919 1112.43 195.401 1112.17 199.071 1111.42L199.393 1113.69C195.294 1114.5 191.544 1114.76 187.901 1114.76H185.892V1098.96H188.651ZM207.456 1106.03V1108.31H203.786V1120.79H201.027V1096.6H203.786V1106.03H207.456ZM226.821 1096.58H229.607V1120.85H226.821V1096.58ZM216.722 1098.37C220.339 1098.37 222.964 1101.69 222.964 1106.89C222.964 1112.14 220.339 1115.43 216.722 1115.43C213.133 1115.43 210.508 1112.14 210.508 1106.89C210.508 1101.69 213.133 1098.37 216.722 1098.37ZM216.722 1100.86C214.633 1100.86 213.16 1103.14 213.16 1106.89C213.16 1110.69 214.633 1112.97 216.722 1112.97C218.839 1112.97 220.312 1110.69 220.312 1106.89C220.312 1103.14 218.839 1100.86 216.722 1100.86Z" fill="black"/>
<path d="M215.847 1181.52V1179.29H219.621V1167.29H216.527V1165.58C218.144 1165.27 219.293 1164.87 220.277 1164.27H222.317V1179.29H225.692V1181.52H215.847Z" fill="#5B5B5B"/>
<rect x="184.532" y="1145.31" width="72.5979" height="53.4165" rx="15.9051" stroke="#E3E1EC" stroke-width="1.67422"/>
<path d="M293.468 1181.52V1179.29H297.242V1167.29H294.148V1165.58C295.765 1165.27 296.913 1164.87 297.898 1164.27H299.937V1179.29H303.312V1181.52H293.468Z" fill="#5B5B5B"/>
<rect x="262.153" y="1145.31" width="72.5979" height="53.4165" rx="15.9051" stroke="#E3E1EC" stroke-width="1.67422"/>
<path d="M360.614 1170.59L359.57 1172.22C357.561 1171.56 356.114 1170.23 355.351 1168.57C354.547 1170.49 353.02 1171.98 350.85 1172.72L349.826 1171.06C352.679 1170.15 354.246 1167.86 354.246 1165.35V1164.02H356.335V1165.31C356.335 1167.66 357.862 1169.73 360.614 1170.59ZM354.527 1178.19V1179.78H364.773V1181.4H352.498V1176.66H362.121V1175.22H352.458V1173.59H364.17V1178.19H354.527ZM364.17 1167.18H366.722V1168.89H364.17V1172.8H362.101V1163.42H364.17V1167.18Z" fill="#9B9B9B"/>
<line x1="183.695" y1="1226.18" x2="731.167" y2="1226.18" stroke="#9B9B9B" stroke-width="0.334845"/>
<path d="M185.418 1263H195.45C195.45 1269.31 192.919 1274.65 185.653 1278.17L184.363 1276.25C189.918 1273.57 192.544 1269.85 192.966 1264.97H185.418V1263ZM199.271 1260.78H201.685V1281.94H199.271V1260.78ZM217.086 1270.46L215.82 1272.36C213.547 1271.54 211.859 1269.92 210.968 1267.93C210.031 1270.22 208.296 1272.05 205.859 1272.94L204.569 1271.02C207.898 1269.87 209.703 1266.99 209.703 1263.94V1261.85H212.14V1264.13C212.14 1266.85 213.945 1269.43 217.086 1270.46ZM214.484 1280.04C217.438 1280.04 219.149 1279.32 219.149 1277.96C219.149 1276.65 217.438 1275.89 214.484 1275.89C211.531 1275.89 209.82 1276.65 209.82 1277.96C209.82 1279.32 211.531 1280.04 214.484 1280.04ZM214.484 1274C218.867 1274 221.539 1275.47 221.539 1277.96C221.539 1280.47 218.867 1281.94 214.484 1281.94C210.125 1281.94 207.429 1280.47 207.429 1277.96C207.429 1275.47 210.125 1274 214.484 1274ZM221.305 1266H224.305V1268H221.305V1273.48H218.891V1260.75H221.305V1266ZM233.143 1262.53V1266C233.143 1269.89 235.3 1273.79 238.628 1275.29L237.222 1277.21C234.784 1276.06 232.932 1273.72 231.971 1270.86C231.01 1273.93 229.135 1276.43 226.58 1277.68L225.151 1275.66C228.526 1274.14 230.729 1270.08 230.729 1266V1262.53H233.143ZM240.316 1260.75H242.753V1281.99H240.316V1260.75ZM246.716 1262.39H256.725C256.725 1268 252.998 1271.98 246.833 1273.86L245.825 1271.93C250.677 1270.46 253.677 1267.71 254.099 1264.36H246.716V1262.39ZM251.427 1274.56V1279.57H263.241V1281.54H248.99V1274.56H251.427ZM262.397 1266.96H265.42V1268.96H262.397V1276.11H259.983V1260.78H262.397V1266.96ZM276.016 1262.91C272.735 1262.91 270.977 1263.54 270.977 1264.76C270.977 1265.96 272.735 1266.59 276.016 1266.59C279.298 1266.59 281.056 1265.96 281.056 1264.76C281.056 1263.54 279.298 1262.91 276.016 1262.91ZM276.016 1268.39C271.258 1268.39 268.469 1267.11 268.469 1264.76C268.469 1262.39 271.258 1261.1 276.016 1261.1C280.751 1261.1 283.564 1262.39 283.564 1264.76C283.564 1267.11 280.751 1268.39 276.016 1268.39ZM271.141 1278.15V1279.9H283.798V1281.75H268.75V1276.43H280.822V1274.91H268.703V1273.08H283.189V1278.15H271.141ZM266.43 1269.64H285.603V1271.56H266.43V1269.64ZM293.873 1266.21C293.873 1267.9 295.232 1269.03 297.107 1269.03C298.959 1269.03 300.295 1267.9 300.295 1266.21C300.295 1264.53 298.959 1263.43 297.107 1263.43C295.232 1263.43 293.873 1264.53 293.873 1266.21ZM302.639 1266.21C302.639 1269 300.295 1270.97 297.107 1270.97C293.896 1270.97 291.529 1269 291.529 1266.21C291.529 1263.43 293.896 1261.46 297.107 1261.46C300.295 1261.46 302.639 1263.43 302.639 1266.21ZM296.545 1277.84V1279.76H308.499V1281.68H294.178V1276.08H305.405V1274.28H294.131V1272.38H307.796V1277.84H296.545ZM307.796 1265.11H310.772V1267.11H307.796V1271.46H305.381V1260.75H307.796V1265.11ZM314.946 1270.48V1275.14C317.829 1275.12 320.314 1275 323.22 1274.56L323.408 1276.55C320.197 1277.07 317.478 1277.14 314.196 1277.14H312.579V1268.54H319.493V1264.55H312.532V1262.6H321.861V1270.48H314.946ZM326.947 1260.73H329.361V1281.97H326.947V1273.18H322.962V1271.21H326.947V1267.41H323.08V1265.44H326.947V1260.73ZM334.308 1271.14L333.441 1269.24C337.473 1268.7 340.449 1266.38 340.59 1263.92H334.144V1261.97H349.731V1263.92H343.332C343.473 1266.38 346.45 1268.7 350.481 1269.24L349.614 1271.14C346.122 1270.62 343.239 1268.89 341.95 1266.54C340.66 1268.89 337.801 1270.62 334.308 1271.14ZM351.536 1272.68L351.513 1274.63H343.098V1281.97H340.684V1274.63H332.386V1272.68H351.536ZM359.437 1262.72V1266.43C359.437 1269.85 360.726 1273.43 363.562 1275.22L362.202 1277.09C360.28 1275.92 359.015 1273.86 358.288 1271.49C357.538 1274.09 356.155 1276.32 354.116 1277.56L352.639 1275.73C355.64 1273.95 357.093 1270.15 357.093 1266.54V1262.72H359.437ZM364.406 1268.18V1261.18H366.679V1280.96H364.406V1270.15H361.288V1268.18H364.406ZM368.719 1260.78H371.016V1281.94H368.719V1260.78ZM380.393 1272.78V1277.37H385.737V1272.75C384.917 1272.97 384.002 1273.06 383.065 1273.06C382.127 1273.06 381.213 1272.97 380.393 1272.78ZM383.065 1263.89C379.854 1263.89 377.627 1265.3 377.627 1267.53C377.627 1269.78 379.854 1271.18 383.065 1271.18C386.253 1271.18 388.479 1269.78 388.479 1267.53C388.479 1265.3 386.253 1263.89 383.065 1263.89ZM388.151 1277.37H392.675V1279.34H373.502V1277.37H377.979V1271.86C376.291 1270.93 375.283 1269.4 375.283 1267.53C375.283 1264.15 378.541 1262 383.065 1262C387.565 1262 390.847 1264.15 390.847 1267.53C390.847 1269.4 389.839 1270.9 388.151 1271.86V1277.37ZM396.356 1280.44C395.348 1280.44 394.552 1279.67 394.552 1278.57C394.552 1277.47 395.348 1276.65 396.356 1276.65C397.364 1276.65 398.161 1277.47 398.161 1278.57C398.161 1279.67 397.364 1280.44 396.356 1280.44Z" fill="#5B5B5B"/>
<path d="M415.675 1284.75C413.518 1281.24 412.229 1277.47 412.229 1272.85C412.229 1268.25 413.518 1264.46 415.675 1260.96L417.011 1261.57C414.972 1264.93 414.011 1268.86 414.011 1272.85C414.011 1276.83 414.972 1280.79 417.011 1284.12L415.675 1284.75ZM436.51 1260.85V1271.77H434.588V1260.85H436.51ZM424.11 1263.78V1269.38C425.235 1269.36 426.384 1269.31 427.532 1269.24V1263.78H424.11ZM432.478 1268.84L432.572 1270.25C428.4 1270.88 423.501 1271.02 419.797 1271.04L419.61 1269.45C420.43 1269.45 421.321 1269.45 422.235 1269.43V1263.78H420.172V1262.25H431.447V1263.78H429.384V1269.14C430.439 1269.07 431.47 1268.96 432.478 1268.84ZM424.743 1280.11H437.306V1281.64H422.845V1276.39H434.611V1274.28H422.774V1272.78H436.51V1277.82H424.743V1280.11ZM458.892 1268.86L458.095 1270.41C454.837 1269.85 451.673 1268.02 450.313 1265.49C449.001 1268.04 445.836 1269.85 442.555 1270.41L441.782 1268.86C445.602 1268.3 449.305 1265.77 449.305 1262.77V1261.6H451.321V1262.77C451.321 1265.7 455.072 1268.3 458.892 1268.86ZM459.806 1272.68L459.83 1274.28H451.227V1281.9H449.305V1274.28H440.821V1272.68H459.806ZM463.437 1284.75L462.125 1284.12C464.141 1280.79 465.125 1276.83 465.125 1272.85C465.125 1268.86 464.141 1264.93 462.125 1261.57L463.437 1260.96C465.617 1264.46 466.906 1268.25 466.906 1272.85C466.906 1277.47 465.617 1281.24 463.437 1284.75Z" fill="#71A1FE"/>
<path d="M227.223 1334.46H229.145V1345.73H227.223V1334.46ZM215.598 1346.76H217.496V1349.34H227.247V1346.76H229.145V1355.18H215.598V1346.76ZM217.496 1350.84V1353.63H227.247V1350.84H217.496ZM217.848 1335.44C221.035 1335.44 223.356 1337.41 223.356 1340.27C223.356 1343.18 221.035 1345.12 217.848 1345.12C214.683 1345.12 212.386 1343.18 212.386 1340.27C212.386 1337.41 214.683 1335.44 217.848 1335.44ZM217.848 1337.04C215.762 1337.04 214.261 1338.37 214.261 1340.27C214.261 1342.19 215.762 1343.53 217.848 1343.53C219.981 1343.53 221.481 1342.19 221.481 1340.27C221.481 1338.37 219.981 1337.04 217.848 1337.04ZM244.566 1344.35L244.754 1345.9C242.176 1346.34 240.043 1346.41 235.847 1346.41H234.347V1340.18H241.472V1337.27H234.277V1335.7H243.348V1341.65H236.222V1344.84C240.113 1344.84 242.129 1344.75 244.566 1344.35ZM236.691 1350.07V1348.5H250.754V1355.48H248.832V1350.07H236.691ZM248.832 1334.46H250.754V1347.37H248.832V1343.48H244.731V1341.93H248.832V1339.12H244.731V1337.55H248.832V1334.46ZM275.589 1334.46H277.511V1345.73H275.589V1334.46ZM263.964 1346.76H265.862V1349.34H275.613V1346.76H277.511V1355.18H263.964V1346.76ZM265.862 1350.84V1353.63H275.613V1350.84H265.862ZM266.214 1335.44C269.402 1335.44 271.722 1337.41 271.722 1340.27C271.722 1343.18 269.402 1345.12 266.214 1345.12C263.05 1345.12 260.752 1343.18 260.752 1340.27C260.752 1337.41 263.05 1335.44 266.214 1335.44ZM266.214 1337.04C264.128 1337.04 262.628 1338.37 262.628 1340.27C262.628 1342.19 264.128 1343.53 266.214 1343.53C268.347 1343.53 269.847 1342.19 269.847 1340.27C269.847 1338.37 268.347 1337.04 266.214 1337.04ZM292.933 1344.35L293.12 1345.9C290.542 1346.34 288.409 1346.41 284.213 1346.41H282.713V1340.18H289.839V1337.27H282.643V1335.7H291.714V1341.65H284.588V1344.84C288.479 1344.84 290.495 1344.75 292.933 1344.35ZM285.057 1350.07V1348.5H299.121V1355.48H297.198V1350.07H285.057ZM297.198 1334.46H299.121V1347.37H297.198V1343.48H293.097V1341.93H297.198V1339.12H293.097V1337.55H297.198V1334.46ZM323.956 1334.46H325.878V1345.73H323.956V1334.46ZM312.33 1346.76H314.228V1349.34H323.979V1346.76H325.878V1355.18H312.33V1346.76ZM314.228 1350.84V1353.63H323.979V1350.84H314.228ZM314.58 1335.44C317.768 1335.44 320.088 1337.41 320.088 1340.27C320.088 1343.18 317.768 1345.12 314.58 1345.12C311.416 1345.12 309.119 1343.18 309.119 1340.27C309.119 1337.41 311.416 1335.44 314.58 1335.44ZM314.58 1337.04C312.494 1337.04 310.994 1338.37 310.994 1340.27C310.994 1342.19 312.494 1343.53 314.58 1343.53C316.713 1343.53 318.213 1342.19 318.213 1340.27C318.213 1338.37 316.713 1337.04 314.58 1337.04ZM341.299 1344.35L341.486 1345.9C338.908 1346.34 336.775 1346.41 332.579 1346.41H331.079V1340.18H338.205V1337.27H331.009V1335.7H340.08V1341.65H332.954V1344.84C336.845 1344.84 338.861 1344.75 341.299 1344.35ZM333.423 1350.07V1348.5H347.487V1355.48H345.565V1350.07H333.423ZM345.565 1334.46H347.487V1347.37H345.565V1343.48H341.463V1341.93H345.565V1339.12H341.463V1337.55H345.565V1334.46ZM372.322 1334.46H374.244V1345.73H372.322V1334.46ZM360.696 1346.76H362.594V1349.34H372.345V1346.76H374.244V1355.18H360.696V1346.76ZM362.594 1350.84V1353.63H372.345V1350.84H362.594ZM362.946 1335.44C366.134 1335.44 368.454 1337.41 368.454 1340.27C368.454 1343.18 366.134 1345.12 362.946 1345.12C359.782 1345.12 357.485 1343.18 357.485 1340.27C357.485 1337.41 359.782 1335.44 362.946 1335.44ZM362.946 1337.04C360.86 1337.04 359.36 1338.37 359.36 1340.27C359.36 1342.19 360.86 1343.53 362.946 1343.53C365.079 1343.53 366.579 1342.19 366.579 1340.27C366.579 1338.37 365.079 1337.04 362.946 1337.04ZM389.665 1344.35L389.852 1345.9C387.274 1346.34 385.141 1346.41 380.945 1346.41H379.445V1340.18H386.571V1337.27H379.375V1335.7H388.446V1341.65H381.32V1344.84C385.211 1344.84 387.227 1344.75 389.665 1344.35ZM381.789 1350.07V1348.5H395.853V1355.48H393.931V1350.07H381.789ZM393.931 1334.46H395.853V1347.37H393.931V1343.48H389.829V1341.93H393.931V1339.12H389.829V1337.55H393.931V1334.46ZM420.688 1334.46H422.61V1345.73H420.688V1334.46ZM409.062 1346.76H410.961V1349.34H420.711V1346.76H422.61V1355.18H409.062V1346.76ZM410.961 1350.84V1353.63H420.711V1350.84H410.961ZM411.312 1335.44C414.5 1335.44 416.82 1337.41 416.82 1340.27C416.82 1343.18 414.5 1345.12 411.312 1345.12C408.148 1345.12 405.851 1343.18 405.851 1340.27C405.851 1337.41 408.148 1335.44 411.312 1335.44ZM411.312 1337.04C409.226 1337.04 407.726 1338.37 407.726 1340.27C407.726 1342.19 409.226 1343.53 411.312 1343.53C413.445 1343.53 414.945 1342.19 414.945 1340.27C414.945 1338.37 413.445 1337.04 411.312 1337.04ZM438.031 1344.35L438.218 1345.9C435.64 1346.34 433.507 1346.41 429.312 1346.41H427.811V1340.18H434.937V1337.27H427.741V1335.7H436.812V1341.65H429.687V1344.84C433.577 1344.84 435.593 1344.75 438.031 1344.35ZM430.155 1350.07V1348.5H444.219V1355.48H442.297V1350.07H430.155ZM442.297 1334.46H444.219V1347.37H442.297V1343.48H438.195V1341.93H442.297V1339.12H438.195V1337.55H442.297V1334.46ZM469.054 1334.46H470.976V1345.73H469.054V1334.46ZM457.428 1346.76H459.327V1349.34H469.077V1346.76H470.976V1355.18H457.428V1346.76ZM459.327 1350.84V1353.63H469.077V1350.84H459.327ZM459.678 1335.44C462.866 1335.44 465.186 1337.41 465.186 1340.27C465.186 1343.18 462.866 1345.12 459.678 1345.12C456.514 1345.12 454.217 1343.18 454.217 1340.27C454.217 1337.41 456.514 1335.44 459.678 1335.44ZM459.678 1337.04C457.592 1337.04 456.092 1338.37 456.092 1340.27C456.092 1342.19 457.592 1343.53 459.678 1343.53C461.811 1343.53 463.311 1342.19 463.311 1340.27C463.311 1338.37 461.811 1337.04 459.678 1337.04ZM486.397 1344.35L486.585 1345.9C484.006 1346.34 481.873 1346.41 477.678 1346.41H476.178V1340.18H483.303V1337.27H476.107V1335.7H485.178V1341.65H478.053V1344.84C481.944 1344.84 483.959 1344.75 486.397 1344.35ZM478.521 1350.07V1348.5H492.585V1355.48H490.663V1350.07H478.521ZM490.663 1334.46H492.585V1347.37H490.663V1343.48H486.561V1341.93H490.663V1339.12H486.561V1337.55H490.663V1334.46ZM517.42 1334.46H519.342V1345.73H517.42V1334.46ZM505.794 1346.76H507.693V1349.34H517.443V1346.76H519.342V1355.18H505.794V1346.76ZM507.693 1350.84V1353.63H517.443V1350.84H507.693ZM508.044 1335.44C511.232 1335.44 513.553 1337.41 513.553 1340.27C513.553 1343.18 511.232 1345.12 508.044 1345.12C504.88 1345.12 502.583 1343.18 502.583 1340.27C502.583 1337.41 504.88 1335.44 508.044 1335.44ZM508.044 1337.04C505.958 1337.04 504.458 1338.37 504.458 1340.27C504.458 1342.19 505.958 1343.53 508.044 1343.53C510.177 1343.53 511.677 1342.19 511.677 1340.27C511.677 1338.37 510.177 1337.04 508.044 1337.04ZM534.763 1344.35L534.951 1345.9C532.372 1346.34 530.239 1346.41 526.044 1346.41H524.544V1340.18H531.669V1337.27H524.473V1335.7H533.544V1341.65H526.419V1344.84C530.31 1344.84 532.325 1344.75 534.763 1344.35ZM526.888 1350.07V1348.5H540.951V1355.48H539.029V1350.07H526.888ZM539.029 1334.46H540.951V1347.37H539.029V1343.48H534.927V1341.93H539.029V1339.12H534.927V1337.55H539.029V1334.46ZM565.786 1334.46H567.708V1345.73H565.786V1334.46ZM554.16 1346.76H556.059V1349.34H565.81V1346.76H567.708V1355.18H554.16V1346.76ZM556.059 1350.84V1353.63H565.81V1350.84H556.059ZM556.41 1335.44C559.598 1335.44 561.919 1337.41 561.919 1340.27C561.919 1343.18 559.598 1345.12 556.41 1345.12C553.246 1345.12 550.949 1343.18 550.949 1340.27C550.949 1337.41 553.246 1335.44 556.41 1335.44ZM556.41 1337.04C554.324 1337.04 552.824 1338.37 552.824 1340.27C552.824 1342.19 554.324 1343.53 556.41 1343.53C558.543 1343.53 560.044 1342.19 560.044 1340.27C560.044 1338.37 558.543 1337.04 556.41 1337.04ZM583.129 1344.35L583.317 1345.9C580.738 1346.34 578.606 1346.41 574.41 1346.41H572.91V1340.18H580.035V1337.27H572.839V1335.7H581.91V1341.65H574.785V1344.84C578.676 1344.84 580.692 1344.75 583.129 1344.35ZM575.254 1350.07V1348.5H589.317V1355.48H587.395V1350.07H575.254ZM587.395 1334.46H589.317V1347.37H587.395V1343.48H583.293V1341.93H587.395V1339.12H583.293V1337.55H587.395V1334.46Z" fill="black"/>
<path fill-rule="evenodd" clip-rule="evenodd" d="M696.272 1341.61L688.093 1349.79C687.817 1350.06 687.445 1350.22 687.056 1350.22C686.668 1350.22 686.296 1350.06 686.02 1349.79L681.016 1344.79C680.88 1344.65 680.772 1344.49 680.698 1344.31C680.625 1344.13 680.587 1343.94 680.587 1343.75C680.587 1343.36 680.741 1342.99 681.016 1342.71C681.29 1342.44 681.663 1342.28 682.051 1342.28C682.44 1342.28 682.812 1342.44 683.087 1342.71L687.056 1346.68L694.2 1339.54C694.336 1339.4 694.498 1339.29 694.675 1339.22C694.853 1339.15 695.044 1339.11 695.236 1339.11C695.428 1339.11 695.619 1339.15 695.796 1339.22C695.974 1339.29 696.136 1339.4 696.272 1339.54C696.408 1339.67 696.516 1339.84 696.589 1340.01C696.663 1340.19 696.701 1340.38 696.701 1340.57C696.701 1340.77 696.663 1340.96 696.589 1341.13C696.516 1341.31 696.408 1341.47 696.272 1341.61ZM688.644 1328.11C679.744 1328.11 672.529 1335.32 672.529 1344.22C672.529 1353.12 679.744 1360.34 688.644 1360.34C697.543 1360.34 704.758 1353.12 704.758 1344.22C704.758 1335.32 697.543 1328.11 688.644 1328.11Z" fill="#71A1FE"/>
<rect x="183.864" y="1302.37" width="545.797" height="83.7112" rx="9.20823" stroke="#9B9B9B" stroke-width="1.67422"/>
<path d="M195.591 1460.15H199.341V1454.83H201.755V1467.44H199.341V1462.12H195.591V1460.15ZM196.81 1464.86L195.614 1466.76C193.27 1465.94 191.583 1464.27 190.692 1462.23C189.754 1464.56 187.973 1466.43 185.465 1467.32L184.223 1465.4C187.504 1464.23 189.403 1461.41 189.403 1458.51V1458.2H184.926V1456.26H196.247V1458.2H191.84V1458.48C191.84 1461.13 193.645 1463.76 196.81 1464.86ZM194.723 1474.14C197.7 1474.14 199.435 1473.39 199.435 1472.01C199.435 1470.63 197.7 1469.88 194.723 1469.88C191.7 1469.88 189.989 1470.63 189.989 1472.01C189.989 1473.39 191.7 1474.14 194.723 1474.14ZM194.723 1468C199.13 1468 201.849 1469.5 201.849 1472.01C201.849 1474.54 199.13 1476.02 194.723 1476.02C190.293 1476.02 187.575 1474.54 187.575 1472.01C187.575 1469.5 190.293 1468 194.723 1468ZM208.413 1464.56V1469.01C211.765 1468.99 214.695 1468.82 218.047 1468.28L218.305 1470.25C214.672 1470.88 211.507 1471 207.781 1471H205.976V1462.61H213.359V1458.67H205.929V1456.7H215.797V1464.56H208.413ZM219.805 1454.78H222.243V1476.04H219.805V1454.78ZM236.706 1460.15H240.456V1454.83H242.871V1467.44H240.456V1462.12H236.706V1460.15ZM237.925 1464.86L236.729 1466.76C234.386 1465.94 232.698 1464.27 231.807 1462.23C230.87 1464.56 229.088 1466.43 226.58 1467.32L225.338 1465.4C228.62 1464.23 230.518 1461.41 230.518 1458.51V1458.2H226.041V1456.26H237.362V1458.2H232.956V1458.48C232.956 1461.13 234.761 1463.76 237.925 1464.86ZM235.839 1474.14C238.816 1474.14 240.55 1473.39 240.55 1472.01C240.55 1470.63 238.816 1469.88 235.839 1469.88C232.815 1469.88 231.104 1470.63 231.104 1472.01C231.104 1473.39 232.815 1474.14 235.839 1474.14ZM235.839 1468C240.245 1468 242.964 1469.5 242.964 1472.01C242.964 1474.54 240.245 1476.02 235.839 1476.02C231.409 1476.02 228.69 1474.54 228.69 1472.01C228.69 1469.5 231.409 1468 235.839 1468ZM250.677 1469.43V1473.63H263.053V1475.6H248.263V1469.43H250.677ZM256.678 1465.8H265.045V1467.77H245.919V1465.8H254.24V1463.36H248.286V1455.88H262.702V1457.83H250.677V1461.41H262.889V1463.36H256.678V1465.8ZM276.016 1457.43C272.899 1457.43 270.954 1458.3 270.954 1459.77C270.954 1461.27 272.899 1462.14 276.016 1462.14C279.11 1462.14 281.056 1461.27 281.056 1459.77C281.056 1458.3 279.11 1457.43 276.016 1457.43ZM276.016 1464.09C271.446 1464.09 268.469 1462.47 268.469 1459.77C268.469 1457.1 271.446 1455.48 276.016 1455.48C280.587 1455.48 283.564 1457.1 283.564 1459.77C283.564 1462.47 280.587 1464.09 276.016 1464.09ZM271.282 1469.43V1473.63H283.447V1475.6H268.844V1469.43H271.282ZM266.43 1465.8H285.58V1467.77H266.43V1465.8ZM293.873 1460.31C293.873 1462.05 295.209 1463.2 297.084 1463.2C298.912 1463.2 300.272 1462.05 300.272 1460.31C300.272 1458.58 298.912 1457.43 297.084 1457.43C295.209 1457.43 293.873 1458.58 293.873 1460.31ZM306.366 1461.27H302.475C302.03 1463.57 299.897 1465.16 297.084 1465.16C293.896 1465.16 291.552 1463.15 291.552 1460.31C291.552 1457.48 293.896 1455.46 297.084 1455.46C299.873 1455.46 301.983 1457.01 302.452 1459.3H306.366V1454.8H308.804V1465.52H306.366V1461.27ZM297.436 1473.84H309.507V1475.74H295.045V1470.18H306.413V1468.45H295.021V1466.57H308.804V1471.96H297.436V1473.84ZM314.946 1458.81V1468.8H320.079V1458.81H314.946ZM312.555 1470.72V1456.89H322.47V1470.72H312.555ZM331.518 1463.1V1465.09H328.213V1476.02H325.798V1454.83H328.213V1463.1H331.518ZM335.527 1456.89V1468.7C338.387 1468.68 341.434 1468.45 344.645 1467.79L344.926 1469.78C341.34 1470.49 338.059 1470.72 334.871 1470.72H333.113V1456.89H335.527ZM351.981 1463.08V1465.07H348.77V1475.99H346.356V1454.83H348.77V1463.08H351.981ZM363.369 1469.45C365.08 1469.45 366.322 1468.28 366.322 1466.5C366.322 1464.72 365.08 1463.55 363.369 1463.55C361.658 1463.55 360.415 1464.72 360.415 1466.5C360.415 1468.28 361.658 1469.45 363.369 1469.45ZM363.369 1461.56C366.392 1461.56 368.619 1463.62 368.619 1466.5C368.619 1469.41 366.392 1471.45 363.369 1471.45C360.322 1471.45 358.118 1469.41 358.118 1466.5C358.118 1463.62 360.322 1461.56 363.369 1461.56ZM364.541 1455.13V1458.09H369.486V1460.05H357.087V1458.09H362.126V1455.13H364.541ZM376.893 1463.34V1465.35H373.635V1476.02H371.197V1454.83H373.635V1463.34H376.893ZM385.567 1456.59V1460.05C385.567 1463.95 387.723 1467.84 391.052 1469.34L389.645 1471.26C387.208 1470.11 385.356 1467.77 384.395 1464.91C383.434 1467.98 381.559 1470.49 379.004 1471.73L377.574 1469.71C380.949 1468.19 383.153 1464.13 383.153 1460.05V1456.59H385.567ZM392.739 1454.8H395.177V1476.04H392.739V1454.8ZM401.46 1456.89V1468.7C404.32 1468.68 407.367 1468.45 410.578 1467.79L410.859 1469.78C407.273 1470.49 403.992 1470.72 400.804 1470.72H399.046V1456.89H401.46ZM417.915 1463.08V1465.07H414.703V1475.99H412.289V1454.83H414.703V1463.08H417.915ZM425.768 1466.83V1471.42H431.112V1466.81C430.292 1467.02 429.378 1467.11 428.44 1467.11C427.503 1467.11 426.589 1467.02 425.768 1466.83ZM428.44 1457.95C425.229 1457.95 423.002 1459.35 423.002 1461.58C423.002 1463.83 425.229 1465.23 428.44 1465.23C431.628 1465.23 433.855 1463.83 433.855 1461.58C433.855 1459.35 431.628 1457.95 428.44 1457.95ZM433.527 1471.42H438.05V1473.39H418.877V1471.42H423.354V1465.91C421.666 1464.98 420.658 1463.45 420.658 1461.58C420.658 1458.2 423.916 1456.05 428.44 1456.05C432.941 1456.05 436.222 1458.2 436.222 1461.58C436.222 1463.45 435.214 1464.95 433.527 1465.91V1471.42ZM442.411 1468.68C441.849 1464.74 445.927 1463.24 445.927 1460.69C445.927 1459.4 445.107 1458.41 443.63 1458.41C442.529 1458.41 441.568 1458.98 440.794 1459.84L439.271 1458.46C440.419 1457.15 441.99 1456.21 443.935 1456.21C446.654 1456.21 448.553 1457.76 448.553 1460.5C448.553 1463.92 444.38 1465.19 444.779 1468.68H442.411ZM443.63 1474.49C442.599 1474.49 441.826 1473.72 441.826 1472.62C441.826 1471.52 442.599 1470.7 443.63 1470.7C444.638 1470.7 445.435 1471.52 445.435 1472.62C445.435 1473.72 444.638 1474.49 443.63 1474.49Z" fill="#5B5B5B"/>
<path d="M465.675 1478.81C463.518 1475.29 462.229 1471.52 462.229 1466.9C462.229 1462.31 463.518 1458.51 465.675 1455.02L467.011 1455.62C464.972 1458.98 464.011 1462.91 464.011 1466.9C464.011 1470.88 464.972 1474.85 467.011 1478.17L465.675 1478.81ZM486.51 1454.9V1465.82H484.588V1454.9H486.51ZM474.11 1457.83V1463.43C475.235 1463.41 476.384 1463.36 477.532 1463.29V1457.83H474.11ZM482.478 1462.89L482.572 1464.3C478.4 1464.93 473.501 1465.07 469.797 1465.09L469.61 1463.5C470.43 1463.5 471.321 1463.5 472.235 1463.48V1457.83H470.172V1456.3H481.447V1457.83H479.384V1463.2C480.439 1463.13 481.47 1463.01 482.478 1462.89ZM474.743 1474.17H487.306V1475.69H472.845V1470.44H484.611V1468.33H472.774V1466.83H486.51V1471.87H474.743V1474.17ZM508.892 1462.91L508.095 1464.46C504.837 1463.9 501.673 1462.07 500.313 1459.54C499.001 1462.09 495.836 1463.9 492.555 1464.46L491.782 1462.91C495.602 1462.35 499.305 1459.82 499.305 1456.82V1455.65H501.321V1456.82C501.321 1459.75 505.072 1462.35 508.892 1462.91ZM509.806 1466.74L509.83 1468.33H501.227V1475.95H499.305V1468.33H490.821V1466.74H509.806ZM513.437 1478.81L512.125 1478.17C514.141 1474.85 515.125 1470.88 515.125 1466.9C515.125 1462.91 514.141 1458.98 512.125 1455.62L513.437 1455.02C515.617 1458.51 516.906 1462.31 516.906 1466.9C516.906 1471.52 515.617 1475.29 513.437 1478.81Z" fill="#71A1FE"/>
<g filter="url(#filter1_d_4202_13922)">
<rect x="142.847" y="162" width="627.834" height="73.6659" fill="white"/>
<path d="M368.184 192.223V203.528H373.22V192.223H368.184ZM366.121 205.269V190.482H375.256V205.269H366.121ZM383.587 187.696H385.676V211.698H383.587V199H380.345V210.519H378.283V188.232H380.345V197.206H383.587V187.696ZM409.622 187.723V202.429H407.426V187.723H409.622ZM404.747 199.483L403.729 201.197C400.916 200.34 398.72 198.518 397.568 196.161C396.55 198.786 394.3 200.822 391.46 201.786L390.389 200.045C393.951 198.893 396.443 195.973 396.443 192.705V192.411H390.978V190.643H396.443V187.696H398.639V190.643H404.05V192.411H398.612V192.705C398.612 195.732 401.184 198.438 404.747 199.483ZM401.639 209.983C405.283 209.983 407.506 208.992 407.506 207.331C407.506 205.617 405.283 204.653 401.639 204.653C397.996 204.653 395.746 205.617 395.746 207.331C395.746 208.992 397.996 209.983 401.639 209.983ZM401.639 202.938C406.649 202.938 409.703 204.519 409.703 207.331C409.703 210.117 406.649 211.698 401.639 211.698C396.63 211.698 393.576 210.117 393.576 207.331C393.576 204.519 396.63 202.938 401.639 202.938ZM438.005 187.696H440.202V211.778H438.005V187.696ZM427.531 189.544C431.094 189.544 433.639 192.812 433.639 197.929C433.639 203.045 431.094 206.313 427.531 206.313C423.968 206.313 421.424 203.045 421.424 197.929C421.424 192.812 423.968 189.544 427.531 189.544ZM427.531 191.527C425.174 191.527 423.513 194.045 423.513 197.929C423.513 201.84 425.174 204.358 427.531 204.358C429.862 204.358 431.522 201.84 431.522 197.929C431.522 194.045 429.862 191.527 427.531 191.527ZM446.575 190.053H457.611V205.671H446.575V190.053ZM455.468 191.821H448.718V203.929H455.468V191.821ZM462.648 187.696H464.844V211.778H462.648V187.696ZM478.397 191.982V195.036C478.397 199.108 481.29 203.26 484.826 204.76L483.593 206.528C480.807 205.242 478.45 202.483 477.298 199.188C476.2 202.697 473.843 205.724 471.11 207.117L469.825 205.349C473.28 203.715 476.2 199.188 476.2 195.036V191.982H470.628V190.161H484.049V191.982H478.397ZM487.29 187.723H489.487V211.725H487.29V187.723ZM513.075 197.956L510.905 197.715C511.467 194.955 511.548 192.893 511.548 191.366H501.743V189.571H513.691V190.83C513.691 192.411 513.691 194.795 513.075 197.956ZM515.352 199.402L515.512 201.009C510.53 201.84 504.77 201.974 500.511 201.974L500.297 200.179C501.824 200.179 503.565 200.152 505.387 200.126V194.929H507.556V200.045C510.181 199.938 512.914 199.75 515.352 199.402ZM506.163 204.144V209.394H519.932V211.189H503.967V204.144H506.163ZM519.155 195.518H522.611V197.34H519.155V205.804H516.959V187.696H519.155V195.518ZM528.69 198.518V204.117C532.627 204.117 536.163 203.929 540.369 203.26L540.583 205.054C536.244 205.778 532.601 205.938 528.475 205.938H526.493V196.723H535.333V191.714H526.413V189.919H537.556V198.518H528.69ZM542.619 187.669H544.816V211.751H542.619V187.669Z" fill="black"/>
</g>
<g filter="url(#filter2_d_4202_13922)">
<rect width="627.018" height="160.726" transform="translate(142.847 1340.65)" fill="white"/>
<rect x="183.028" y="1360.75" width="277.332" height="87.0597" rx="10.0453" fill="#F2F5FA"/>
<path d="M230.743 1400.93C230.743 1400.93 234.1 1396.35 236.827 1393.62C239.554 1390.9 243.323 1389.21 247.485 1389.21C255.807 1389.21 262.553 1395.95 262.553 1404.28C262.553 1412.6 255.807 1419.34 247.485 1419.34C240.616 1419.34 234.82 1414.75 233.006 1408.46M230.743 1400.93V1390.88M230.743 1400.93H240.789" stroke="#5B5B5B" stroke-width="3.34845" stroke-linecap="round" stroke-linejoin="round"/>
<path d="M305.367 1393.06H308.126V1406.05H305.367V1393.06ZM292.321 1407.17H295.053V1409.85H305.393V1407.17H308.126V1416.95H292.321V1407.17ZM295.053 1412V1414.73H305.393V1412H295.053ZM295.08 1394.16C298.777 1394.16 301.482 1396.46 301.482 1399.78C301.482 1403.1 298.777 1405.41 295.08 1405.41C291.383 1405.41 288.651 1403.1 288.651 1399.78C288.651 1396.46 291.383 1394.16 295.08 1394.16ZM295.08 1396.43C292.884 1396.43 291.357 1397.77 291.357 1399.78C291.357 1401.82 292.884 1403.13 295.08 1403.13C297.25 1403.13 298.804 1401.82 298.804 1399.78C298.804 1397.77 297.25 1396.43 295.08 1396.43ZM325.402 1404.25L325.696 1406.48C322.776 1406.99 320.312 1407.07 315.571 1407.07H313.803V1399.57H321.517V1396.67H313.749V1394.45H324.25V1401.68H316.508V1404.82C320.553 1404.82 322.776 1404.71 325.402 1404.25ZM316.508 1411.41V1409.16H332.875V1417.3H330.116V1411.41H316.508ZM330.116 1393.06H332.875V1407.95H330.116V1403.83H325.777V1401.6H330.116V1398.76H325.777V1396.54H330.116V1393.06ZM345.507 1407.79L344.462 1405.57C349.551 1404.87 352.873 1402.11 353.034 1398.87H345.453V1396.62H353.061V1393.49H355.82V1396.62H363.401V1398.87H355.847C356.007 1402.11 359.329 1404.87 364.419 1405.57L363.374 1407.79C359.302 1407.15 356.034 1405.27 354.454 1402.54C352.846 1405.27 349.578 1407.15 345.507 1407.79ZM355.82 1412.08H365.41V1414.33H343.497V1412.08H353.061V1406.93H355.82V1412.08ZM369.506 1395.6H380.971C380.971 1402.81 378.078 1408.92 369.774 1412.93L368.301 1410.74C374.649 1407.68 377.65 1403.42 378.132 1397.85H369.506V1395.6ZM385.338 1393.06H388.097V1417.25H385.338V1393.06ZM407.301 1395.84V1398.07H392.916V1395.84H398.756V1393.11H401.515V1395.84H407.301ZM396.935 1403.8C396.935 1405.27 398.247 1406.18 400.149 1406.18C402.051 1406.18 403.337 1405.27 403.337 1403.8C403.337 1402.3 402.051 1401.39 400.149 1401.39C398.247 1401.39 396.935 1402.3 396.935 1403.8ZM401.515 1408.19V1410.44C403.578 1410.34 405.641 1410.2 407.569 1409.91L407.784 1411.94C402.614 1412.85 397.015 1412.91 392.863 1412.91L392.488 1410.63C394.336 1410.63 396.506 1410.63 398.756 1410.55V1408.19C396.077 1407.74 394.336 1406.1 394.336 1403.8C394.336 1401.07 396.693 1399.27 400.149 1399.27C403.578 1399.27 405.935 1401.07 405.935 1403.8C405.935 1406.1 404.194 1407.76 401.515 1408.19ZM415.15 1403.16V1405.43H411.695V1417.25H408.935V1393.03H411.695V1403.16H415.15Z" fill="#5B5B5B"/>
<rect x="592.624" y="1360.75" width="137.06" height="86.8783" rx="10.0453" fill="#71A1FE"/>
<path d="M641.35 1398.92C641.35 1400.61 642.77 1401.68 644.779 1401.68C646.815 1401.68 648.181 1400.61 648.181 1398.92C648.181 1397.26 646.815 1396.19 644.779 1396.19C642.77 1396.19 641.35 1397.26 641.35 1398.92ZM652.279 1405.17L652.467 1407.17C647.484 1408.11 641.859 1408.19 637.814 1408.19L637.466 1405.94C639.207 1405.94 641.27 1405.94 643.44 1405.86V1403.67C640.654 1403.24 638.779 1401.42 638.779 1398.92C638.779 1396.06 641.27 1394.1 644.779 1394.1C648.288 1394.1 650.753 1396.06 650.753 1398.92C650.753 1401.39 648.931 1403.21 646.199 1403.67V1405.76C648.261 1405.62 650.351 1405.46 652.279 1405.17ZM643.573 1409.99V1414.54H657.289V1416.76H640.814V1409.99H643.573ZM656.458 1400.99H659.78V1403.26H656.458V1411.57H653.699V1393.08H656.458V1400.99ZM670.761 1407.95V1412.13H675.716V1407.95H670.761ZM678.449 1412.13H684.074V1414.41H662.162V1412.13H668.028V1407.95H664.814V1400.18H678.743V1396.97H664.76V1394.75H681.476V1402.38H667.519V1405.73H682.012V1407.95H678.449V1412.13Z" fill="white"/>
</g>
</g>
<rect x="142.505" y="161.659" width="628.517" height="1340.06" rx="45.8251" stroke="black" stroke-opacity="0.17" stroke-width="0.682428" shape-rendering="crispEdges"/>
</g>
<path d="M900.654 631.255V684.37H893.475V657.813H888.514V681.802H881.51V632.131H888.514V651.801H893.475V631.255H900.654ZM856.995 671.412V637.151H864.466V664.904C868.727 664.788 873.426 664.408 878.533 663.416L879.292 669.836C872.171 671.062 866.101 671.441 860.614 671.412H856.995ZM960.551 631.255V662.774H953.138V650.225H944.85V644.213H953.138V631.255H960.551ZM915.433 656.937C924.129 654.019 928.098 647.073 928.274 640.419H917.592V634.466H946.426V640.419H935.861C936.007 646.606 939.801 652.851 948.06 655.595L944.383 661.431C938.546 659.534 934.49 655.682 932.184 650.925C929.849 656.324 925.589 660.673 919.285 662.832L915.433 656.937ZM924.129 674.214C924.129 667.764 931.075 663.97 942.398 663.941C953.751 663.97 960.697 667.764 960.726 674.214C960.697 680.663 953.751 684.428 942.398 684.428C931.075 684.428 924.129 680.663 924.129 674.214ZM931.542 674.214C931.542 677.249 935.365 678.767 942.398 678.767C949.461 678.767 953.284 677.249 953.313 674.214C953.284 671.15 949.461 669.632 942.398 669.661C935.365 669.632 931.542 671.15 931.542 674.214ZM1013.82 672.113V678.183H965.197V672.113H985.684V662.307H970.333V634.641H977.804V642.871H1000.98V634.641H1008.39V662.307H993.096V672.113H1013.82ZM977.804 656.353H1000.98V648.824H977.804V656.353ZM1074.71 655.536V661.607H1026.14V655.536H1074.71ZM1031.69 674.564C1031.69 668.319 1038.69 664.788 1050.31 664.817C1061.84 664.788 1068.75 668.319 1068.81 674.564C1068.75 680.839 1061.84 684.399 1050.31 684.37C1038.69 684.399 1031.69 680.839 1031.69 674.564ZM1032.04 651.801V632.656H1068.87V638.668H1039.45V645.906H1069.16V651.801H1032.04ZM1039.28 674.564C1039.25 677.366 1042.95 678.708 1050.31 678.708C1057.52 678.708 1061.31 677.366 1061.34 674.564C1061.31 671.879 1057.52 670.478 1050.31 670.478C1042.95 670.478 1039.25 671.879 1039.28 674.564ZM1124.12 659.739V665.692H1075.5V659.739H1096.1V655.886H1081.57V641.295H1110.75V638.026H1081.45V632.248H1118.22V646.664H1088.98V650.166H1119.22V655.886H1103.52V659.739H1124.12ZM1080.93 674.564V668.727H1118.52V684.136H1110.99V674.564H1080.93ZM1166.88 631.255V652.034H1174.7V658.163H1166.88V684.37H1159.53V631.255H1166.88ZM1124.68 645.147V639.193H1136.7V632.073H1144.17V639.193H1155.91V645.147H1124.68ZM1126.84 660.789C1126.81 653.377 1132.59 648.094 1140.44 648.124C1148.17 648.094 1153.98 653.377 1153.98 660.789C1153.98 668.202 1148.17 673.426 1140.44 673.455C1132.59 673.426 1126.81 668.202 1126.84 660.789ZM1133.96 660.789C1133.96 664.904 1136.67 667.356 1140.44 667.327C1144.15 667.356 1146.86 664.904 1146.86 660.789C1146.86 656.704 1144.15 654.194 1140.44 654.135C1136.67 654.194 1133.96 656.704 1133.96 660.789ZM1218.16 635.866V640.886C1218.13 647.54 1218.13 655.011 1216 666.276L1208.53 665.517C1210.57 655.478 1210.66 648.007 1210.69 641.762H1179.41V635.866H1218.16ZM1174.39 677.891V671.821H1191.72V653.552H1199.13V671.821H1222.83V677.891H1174.39Z" fill="#71A1FE"/>
<path d="M902.591 748.852V753.287H881.404V758.132H896.638V774.066H861.092V758.132H875.917V753.287H854.73V748.852H902.591ZM860.742 727.839V723.578H896.58V736.361H866.345V740.797H897.63V745.233H860.859V732.334H891.035V727.839H860.742ZM866.579 769.572H891.151V762.51H866.579V769.572ZM926.265 728.306V741.906H933.269V723.403H938.581V772.14H933.269V746.458H926.265V760.934H905.953V728.306H926.265ZM911.206 756.498H921.07V732.684H911.206V756.498ZM943.892 774.708V722.411H949.204V774.708H943.892ZM996.925 722.411V774.825H991.38V722.411H996.925ZM955.426 744.649C955.426 733.472 961.058 726.351 968.967 726.322C976.73 726.351 982.45 733.472 982.45 744.649C982.45 755.943 976.73 763.064 968.967 763.035C961.058 763.064 955.426 755.943 955.426 744.649ZM960.795 744.649C960.766 752.966 964.093 758.074 968.967 758.074C973.753 758.074 977.08 752.966 977.08 744.649C977.08 736.448 973.753 731.312 968.967 731.283C964.093 731.312 960.766 736.448 960.795 744.649ZM1045.46 750.252V754.688H1009.04V726.73H1044.94V731.225H1014.65V738.287H1043.83V742.665H1014.65V750.252H1045.46ZM1003.03 768.113V763.56H1050.89V768.113H1003.03ZM1109.8 722.411V774.708H1104.48V747.451H1098.01V772.14H1092.75V723.403H1098.01V742.898H1104.48V722.411H1109.8ZM1066.55 760.934V728.306H1086.86V760.934H1066.55ZM1071.8 756.498H1081.66V732.684H1071.8V756.498ZM1133.64 733.267C1133.62 739.542 1138.78 745.32 1146.89 747.567L1144.27 751.887C1138.14 750.165 1133.47 746.371 1131.05 741.468C1128.71 746.925 1124.04 751.186 1117.77 753.171L1115.03 748.793C1123.11 746.371 1128.13 740.038 1128.1 733.267V732.976H1116.48V728.54H1128.1V722.411H1133.7V728.54H1145.2V732.976H1133.64V733.267ZM1122.2 764.961C1122.2 758.862 1128.95 755.33 1140.01 755.33C1150.98 755.33 1157.72 758.862 1157.75 764.961C1157.72 771.119 1150.98 774.621 1140.01 774.592C1128.95 774.621 1122.2 771.119 1122.2 764.961ZM1127.81 764.961C1127.81 768.375 1132.24 770.302 1140.01 770.331C1147.74 770.302 1152.29 768.375 1152.26 764.961C1152.29 761.634 1147.74 759.679 1140.01 759.708C1132.24 759.679 1127.81 761.634 1127.81 764.961ZM1152.03 754.338V722.469H1157.58V754.338H1152.03ZM1187.44 723.287C1199.23 723.257 1206.08 726.438 1206.11 732.275C1206.08 738.141 1199.23 741.322 1187.44 741.322C1175.65 741.322 1168.73 738.141 1168.76 732.275C1168.73 726.438 1175.65 723.257 1187.44 723.287ZM1163.62 748.968V744.532H1211.31V748.968H1163.62ZM1169.34 757.14V752.996H1205.3V765.253H1174.83V769.922H1206.76V774.183H1169.4V761.225H1199.81V757.14H1169.34ZM1174.54 732.275C1174.51 735.515 1179.12 737.178 1187.44 737.178C1195.81 737.178 1200.42 735.515 1200.39 732.275C1200.42 729.182 1195.81 727.372 1187.44 727.372C1179.12 727.372 1174.51 729.182 1174.54 732.275ZM1242.55 724.804C1250.43 724.775 1256.12 729.182 1256.15 735.66C1256.12 742.081 1250.43 746.517 1242.55 746.458C1234.7 746.517 1229.03 742.081 1229.06 735.66C1229.03 729.182 1234.7 724.775 1242.55 724.804ZM1225.33 750.544C1234.99 750.544 1248.32 750.34 1259.76 748.618L1260.17 752.762C1255.39 753.667 1250.46 754.221 1245.64 754.542V773.074H1240.1V754.863C1235.02 755.097 1230.23 755.126 1226.09 755.155L1225.33 750.544ZM1234.43 735.66C1234.38 739.454 1237.79 741.964 1242.55 741.906C1247.42 741.964 1250.83 739.454 1250.83 735.66C1250.83 731.837 1247.42 729.269 1242.55 729.298C1237.79 729.269 1234.38 731.837 1234.43 735.66ZM1263.38 774.708V722.469H1268.87V774.708H1263.38ZM1315.89 722.469V739.279H1323.48V743.89H1315.89V761.576H1310.35V722.469H1315.89ZM1274.86 733.034V728.54H1287.7V722.411H1293.24V728.54H1306.03V733.034H1274.86ZM1277.72 745.408C1277.69 739.425 1282.86 735.515 1290.44 735.544C1297.94 735.515 1303.11 739.425 1303.11 745.408C1303.11 751.332 1297.94 755.184 1290.44 755.214C1282.86 755.184 1277.69 751.332 1277.72 745.408ZM1282.74 773.599V758.482H1288.28V769.105H1318.11V773.599H1282.74ZM1283.09 745.408C1283.03 748.822 1286.01 750.924 1290.44 750.894C1294.88 750.924 1297.86 748.822 1297.91 745.408C1297.86 741.964 1294.88 739.834 1290.44 739.805C1286.01 739.834 1283.03 741.964 1283.09 745.408Z" fill="#5B5B5B"/>
<path d="M870.431 811.279C870.431 819.509 874.254 827.884 881.462 831.766L878.369 835.851C873.291 833.167 869.789 828.176 867.892 822.252C866.024 828.585 862.522 834.042 857.473 837.077L854.205 832.875C861.442 828.672 865.178 819.713 865.236 811.279V809.178H855.781V804.625H865.236V797.095H870.431V804.625H879.711V809.178H870.431V811.279ZM876.268 820.209V815.598H883.797V796.337H889.05V844.898H883.797V820.209H876.268ZM894.362 847.525V795.228H899.673V847.525H894.362ZM946.285 800.306V806.668C946.285 814.314 946.285 821.493 944.009 832.349L938.522 831.824C939.631 827.009 940.215 822.836 940.507 818.954L909.105 820.618L908.405 816.065L940.769 814.839C940.886 812.038 940.886 809.353 940.915 806.668V804.858H909.864V800.306H946.285ZM904.202 840.521V835.968H951.888V840.521H904.202ZM997.042 795.228V847.642H991.497V795.228H997.042ZM956.535 804.45V799.955H981.049V819.042H962.255V830.482C970.747 830.452 978.13 830.044 986.886 828.614L987.411 833.167C978.16 834.713 970.28 835.064 961.029 835.093H956.593V814.606H975.387V804.45H956.535ZM1029.59 802.64C1029.59 811.162 1038.66 819.217 1048.73 821.026L1046.16 825.637C1037.79 823.828 1030.11 818.341 1026.73 810.987C1023.28 818.312 1015.61 823.769 1007.23 825.637L1004.78 821.026C1014.7 819.158 1023.72 811.162 1023.75 802.64V798.671H1029.59V802.64ZM1003.03 840.638V836.027H1050.89V840.638H1003.03ZM1094.88 823.069V827.505H1058.46V799.547H1094.35V804.041H1064.06V811.104H1093.24V815.481H1064.06V823.069H1094.88ZM1052.44 840.929V836.377H1100.31V840.929H1052.44ZM1140.71 799.839V824.236H1116.25V799.839H1140.71ZM1121.68 819.859H1135.28V804.333H1121.68V819.859ZM1122.15 846.416V829.84H1127.69V841.922H1157.52V846.416H1122.15ZM1149.75 833.517V795.169H1155.3V810.812H1162.89V815.481H1155.3V833.517H1149.75ZM1211.37 816.649V821.085H1163.62V816.649H1211.37ZM1169.34 829.489V825.229H1205.3V837.894H1174.83V842.564H1206.76V846.941H1169.4V833.809H1199.81V829.489H1169.34ZM1169.87 812.855V796.745H1205.18V801.24H1175.41V808.419H1205.71V812.855H1169.87ZM1256.52 795.228V847.525H1250.92V795.228H1256.52ZM1213.56 833.517C1227.45 826.892 1234.25 817.466 1235.33 805.267H1216.07V800.831H1240.94C1240.94 816.152 1234.43 829.402 1216.48 838.011L1213.56 833.517Z" fill="#5B5B5B"/>
</g>
<defs>
<filter id="filter0_d_4202_13922" x="56.2472" y="161.318" width="756.207" height="1472.23" filterUnits="userSpaceOnUse" color-interpolation-filters="sRGB">
<feFlood flood-opacity="0" result="BackgroundImageFix"/>
<feColorMatrix in="SourceAlpha" type="matrix" values="0 0 0 0 0 0 0 0 0 0 0 0 0 0 0 0 0 0 127 0" result="hardAlpha"/>
<feOffset dx="-22.4131" dy="67.9864"/>
<feGaussianBlur stdDeviation="31.7519"/>
<feComposite in2="hardAlpha" operator="out"/>
<feColorMatrix type="matrix" values="0 0 0 0 0 0 0 0 0 0 0 0 0 0 0 0 0 0 0.13 0"/>
<feBlend mode="normal" in2="BackgroundImageFix" result="effect1_dropShadow_4202_13922"/>
<feBlend mode="normal" in="SourceGraphic" in2="effect1_dropShadow_4202_13922" result="shape"/>
</filter>
<filter id="filter1_d_4202_13922" x="136.15" y="156.977" width="641.228" height="87.0597" filterUnits="userSpaceOnUse" color-interpolation-filters="sRGB">
<feFlood flood-opacity="0" result="BackgroundImageFix"/>
<feColorMatrix in="SourceAlpha" type="matrix" values="0 0 0 0 0 0 0 0 0 0 0 0 0 0 0 0 0 0 127 0" result="hardAlpha"/>
<feOffset dy="1.67422"/>
<feGaussianBlur stdDeviation="3.34845"/>
<feComposite in2="hardAlpha" operator="out"/>
<feColorMatrix type="matrix" values="0 0 0 0 0 0 0 0 0 0 0 0 0 0 0 0 0 0 0.11 0"/>
<feBlend mode="normal" in2="BackgroundImageFix" result="effect1_dropShadow_4202_13922"/>
<feBlend mode="normal" in="SourceGraphic" in2="effect1_dropShadow_4202_13922" result="shape"/>
</filter>
<filter id="filter2_d_4202_13922" x="90.9457" y="1287.08" width="730.82" height="264.528" filterUnits="userSpaceOnUse" color-interpolation-filters="sRGB">
<feFlood flood-opacity="0" result="BackgroundImageFix"/>
<feColorMatrix in="SourceAlpha" type="matrix" values="0 0 0 0 0 0 0 0 0 0 0 0 0 0 0 0 0 0 127 0" result="hardAlpha"/>
<feOffset dy="-1.67422"/>
<feGaussianBlur stdDeviation="25.9505"/>
<feComposite in2="hardAlpha" operator="out"/>
<feColorMatrix type="matrix" values="0 0 0 0 0 0 0 0 0 0 0 0 0 0 0 0 0 0 0.14 0"/>
<feBlend mode="normal" in2="BackgroundImageFix" result="effect1_dropShadow_4202_13922"/>
<feBlend mode="normal" in="SourceGraphic" in2="effect1_dropShadow_4202_13922" result="shape"/>
</filter>
<clipPath id="clip0_4202_13922">
<rect width="1477.02" height="1477.02" fill="white" transform="translate(0.896973 0.5)"/>
</clipPath>
<clipPath id="clip1_4202_13922">
<rect x="142.847" y="162" width="627.834" height="1339.38" rx="45.4839" fill="white"/>
</clipPath>
</defs>
</svg>
